<svg width="14" height="14" viewBox="0 0 14 14" fill="none" xmlns="http://www.w3.org/2000/svg">
<path d="M9.58333 0H3.16667C2.525 0 2 0.525 2 1.16667V8.75C2 9.07083 2.2625 9.33333 2.58333 9.33333C2.90417 9.33333 3.16667 9.07083 3.16667 8.75V1.75C3.16667 1.42917 3.42917 1.16667 3.75 1.16667H9.58333C9.90417 1.16667 10.1667 0.904167 10.1667 0.583333C10.1667 0.2625 9.90417 0 9.58333 0ZM11.9167 2.33333H5.5C4.85833 2.33333 4.33333 2.85833 4.33333 3.5V11.6667C4.33333 12.3083 4.85833 12.8333 5.5 12.8333H11.9167C12.5583 12.8333 13.0833 12.3083 13.0833 11.6667V3.5C13.0833 2.85833 12.5583 2.33333 11.9167 2.33333ZM11.3333 11.6667H6.08333C5.7625 11.6667 5.5 11.4042 5.5 11.0833V4.08333C5.5 3.7625 5.7625 3.5 6.08333 3.5H11.3333C11.6542 3.5 11.9167 3.7625 11.9167 4.08333V11.0833C11.9167 11.4042 11.6542 11.6667 11.3333 11.6667Z" fill="#9BB0CF"/>
</svg>
