<svg width="20" height="16" viewBox="0 0 20 16" fill="none" xmlns="http://www.w3.org/2000/svg">
<path d="M16.2378 2.16052C15.0905 1.62337 13.8602 1.22761 12.5739 1.00095C12.5505 0.996576 12.5271 1.00751 12.515 1.02937C12.3568 1.31653 12.1815 1.69115 12.0588 1.98559C10.6753 1.77424 9.29889 1.77424 7.94374 1.98559C7.82099 1.6846 7.63936 1.31653 7.48043 1.02937C7.46836 1.00824 7.44496 0.997306 7.42154 1.00095C6.13593 1.22689 4.90567 1.62264 3.7577 2.16052C3.74776 2.1649 3.73925 2.17219 3.73359 2.18166C1.40004 5.73909 0.760787 9.20908 1.07439 12.636C1.0758 12.6528 1.08503 12.6688 1.0978 12.679C2.63741 13.8328 4.12878 14.5332 5.59246 14.9974C5.61588 15.0047 5.6407 14.996 5.65561 14.9763C6.00184 14.4938 6.31048 13.9851 6.57511 13.4501C6.59072 13.4188 6.57582 13.3816 6.5439 13.3692C6.05435 13.1797 5.5882 12.9487 5.1398 12.6863C5.10433 12.6652 5.10149 12.6134 5.13412 12.5887C5.22848 12.5165 5.32286 12.4414 5.41297 12.3656C5.42927 12.3518 5.45198 12.3489 5.47115 12.3576C8.41696 13.73 11.6062 13.73 14.5172 12.3576C14.5364 12.3481 14.5591 12.3511 14.5761 12.3649C14.6662 12.4407 14.7606 12.5165 14.8557 12.5887C14.8883 12.6134 14.8862 12.6652 14.8507 12.6863C14.4023 12.9538 13.9361 13.1797 13.4459 13.3685C13.414 13.3809 13.3998 13.4188 13.4154 13.4501C13.6857 13.9844 13.9943 14.4931 14.3342 14.9756C14.3484 14.996 14.3739 15.0047 14.3973 14.9974C15.8681 14.5332 17.3595 13.8328 18.8991 12.679C18.9126 12.6688 18.9211 12.6535 18.9225 12.6368C19.2978 8.67482 18.2939 5.23329 16.2612 2.18238C16.2562 2.17219 16.2477 2.1649 16.2378 2.16052ZM7.01502 10.5494C6.12812 10.5494 5.39735 9.71853 5.39735 8.69815C5.39735 7.67778 6.11395 6.84693 7.01502 6.84693C7.92315 6.84693 8.64686 7.68508 8.63266 8.69815C8.63266 9.71853 7.91606 10.5494 7.01502 10.5494ZM12.9961 10.5494C12.1092 10.5494 11.3784 9.71853 11.3784 8.69815C11.3784 7.67778 12.095 6.84693 12.9961 6.84693C13.9042 6.84693 14.6279 7.68508 14.6137 8.69815C14.6137 9.71853 13.9042 10.5494 12.9961 10.5494Z" stroke="#9BB0CF" stroke-width="1.2"/>
</svg>
