<svg width="20" height="18" viewBox="0 0 20 18" fill="none" xmlns="http://www.w3.org/2000/svg">
<path fill-rule="evenodd" clip-rule="evenodd" d="M14.1036 1.11544C14.4682 0.673664 15.0188 0.400391 15.6323 0.400391C16.7362 0.400391 17.64 1.29647 17.64 2.40197C17.64 3.50747 16.7362 4.40354 15.6323 4.40354C14.7206 4.40354 13.95 3.79702 13.7048 2.96893L11.7598 2.5607L11.1286 5.50428C12.831 5.67171 14.3943 6.19921 15.6328 6.98139C16.0328 6.71969 16.5097 6.57362 17.0242 6.57362C18.4445 6.57362 19.6014 7.72166 19.6014 9.14212C19.6014 10.0274 19.1481 10.8019 18.5017 11.2674C18.5072 11.3553 18.51 11.4444 18.51 11.5358C18.51 13.2996 17.4803 14.8305 15.9422 15.8953C14.402 16.9615 12.3061 17.6004 10.0172 17.6004C7.72824 17.6004 5.63234 16.9615 4.0922 15.8953C2.55404 14.8305 1.52439 13.2996 1.52439 11.5358C1.52439 11.4458 1.52705 11.3552 1.53247 11.265C0.849585 10.8032 0.401367 10.0332 0.401367 9.14212C0.401367 7.72166 1.55824 6.57362 2.97852 6.57362C3.48549 6.57362 3.96352 6.73012 4.35996 6.98333C5.67813 6.13539 7.35635 5.60448 9.19407 5.47897L10.0946 1.23797L10.1017 1.20453L10.1125 1.17211C10.1672 1.00902 10.2802 0.777459 10.532 0.627032C10.7442 0.500278 10.9851 0.466191 11.2068 0.502974L11.2199 0.50514L11.2328 0.507881L14.1036 1.11544ZM14.817 2.27504L14.824 2.43934C14.8419 2.85755 15.1936 3.20354 15.6323 3.20354C16.0785 3.20354 16.44 2.83977 16.44 2.40197C16.44 1.96416 16.0785 1.60039 15.6323 1.60039C15.3139 1.60039 15.0497 1.77848 14.926 2.04244L14.817 2.27504ZM10.082 6.64389L9.70298 6.65524C7.69926 6.71524 5.93927 7.30012 4.69236 8.20956L4.28813 8.50439L3.92547 8.15972C3.67942 7.92588 3.3339 7.77362 2.97852 7.77362C2.21602 7.77362 1.60137 8.38936 1.60137 9.14212C1.60137 9.69629 1.92553 10.1673 2.41922 10.3908L2.83983 10.5811L2.76361 11.0365C2.73801 11.1894 2.72439 11.3607 2.72439 11.5358C2.72439 12.7957 3.45836 13.997 4.77521 14.9086C6.09008 15.8189 7.94057 16.4004 10.0172 16.4004C12.0938 16.4004 13.9443 15.8189 15.2592 14.9086C16.576 13.997 17.31 12.7957 17.31 11.5358C17.31 11.3634 17.2968 11.2076 17.2708 11.0522L17.1967 10.6095L17.6004 10.4134C18.0573 10.1915 18.4014 9.69924 18.4014 9.14212C18.4014 8.38936 17.7867 7.77362 17.0242 7.77362C16.6444 7.77362 16.3223 7.91598 16.0873 8.14999L15.7278 8.50787L15.3151 8.21299C14.0776 7.32879 12.328 6.7299 10.3738 6.65507L10.082 6.64389ZM6.88538 9.74212C6.43922 9.74212 6.07764 10.1059 6.07764 10.5437C6.07764 10.9815 6.43922 11.3453 6.88538 11.3453C7.33153 11.3453 7.69311 10.9815 7.69311 10.5437C7.69311 10.1059 7.33153 9.74212 6.88538 9.74212ZM4.87764 10.5437C4.87764 9.4382 5.78144 8.54212 6.88538 8.54212C7.98931 8.54212 8.89311 9.4382 8.89311 10.5437C8.89311 11.6492 7.98931 12.5453 6.88538 12.5453C5.78144 12.5453 4.87764 11.6492 4.87764 10.5437ZM13.0857 9.74212C12.6396 9.74212 12.278 10.1059 12.278 10.5437C12.278 10.9815 12.6396 11.3453 13.0857 11.3453C13.5319 11.3453 13.8935 10.9815 13.8935 10.5437C13.8935 10.1059 13.5319 9.74212 13.0857 9.74212ZM11.078 10.5437C11.078 9.4382 11.9818 8.54212 13.0857 8.54212C14.1897 8.54212 15.0935 9.4382 15.0935 10.5437C15.0935 11.6492 14.1897 12.5453 13.0857 12.5453C11.9818 12.5453 11.078 11.6492 11.078 10.5437ZM6.2406 13.2996C6.61705 12.9248 7.23278 12.9248 7.60923 13.2996C7.79671 13.4863 8.14716 13.6569 8.62347 13.7768C9.08459 13.8929 9.59216 13.9437 10.0172 13.9437C10.442 13.9437 10.9454 13.893 11.4044 13.7769C11.8754 13.6579 12.2303 13.4875 12.4289 13.2959C12.8057 12.9248 13.4186 12.926 13.7938 13.2996L13.831 13.3367L13.8613 13.3797C14.1124 13.7369 14.1437 14.2897 13.7621 14.6697C13.1585 15.2706 12.3239 15.5586 11.6333 15.7037C10.9294 15.8516 10.2901 15.8681 10.0014 15.8681C9.70912 15.8681 9.06652 15.8472 8.36216 15.6975C7.6724 15.551 6.83689 15.2634 6.2406 14.6697C5.86269 14.2934 5.86269 13.6759 6.2406 13.2996Z" fill="#9BB0CF"/>
</svg>
