<svg width="18" height="15" viewBox="0 0 18 15" fill="none" xmlns="http://www.w3.org/2000/svg">
<path d="M10.6919 2.96797C9.25885 3.55233 6.39488 4.76182 2.09992 6.59642C1.40248 6.86833 1.03714 7.13434 1.00388 7.39445C0.940022 7.89383 1.67333 8.04929 2.59598 8.34334C3.34822 8.58307 4.36012 8.86354 4.88616 8.87468C5.36333 8.88479 5.89591 8.69192 6.48389 8.29607C10.4968 5.64029 12.5683 4.29792 12.6983 4.26899C12.7901 4.24857 12.9172 4.2229 13.0034 4.29797C13.0895 4.37304 13.0811 4.5152 13.0719 4.55334C12.999 4.8583 9.22931 8.21995 9.01236 8.44087C8.18338 9.28502 7.24043 9.80154 8.69503 10.7413C9.9537 11.5545 10.6862 12.0733 11.9829 12.9067C12.8116 13.4392 13.4613 14.0707 14.3169 13.9936C14.7105 13.958 15.1172 13.5951 15.3237 12.5127C15.8118 9.95454 16.7712 4.41185 16.9929 2.12784C17.0123 1.92773 16.9879 1.67163 16.9683 1.55921C16.9486 1.44679 16.9076 1.28661 16.7586 1.16804C16.5821 1.02761 16.3095 0.997997 16.1877 1.0001C15.6335 1.00967 14.7834 1.2995 10.6919 2.96797Z" stroke="#9BB0CF" stroke-width="1.2"/>
</svg>
