<svg width="19" height="15" viewBox="0 0 19 15" fill="none" xmlns="http://www.w3.org/2000/svg">
<path d="M6.03344 14C12.0697 14 15.3722 9.38277 15.3722 5.37993C15.3722 5.25013 15.3691 5.11744 15.3628 4.98764C16.0052 4.55879 16.5597 4.02761 17 3.41904C16.4017 3.66476 15.7664 3.82523 15.1159 3.89499C15.8009 3.51603 16.3137 2.92071 16.5594 2.21938C15.915 2.57185 15.2104 2.82049 14.4756 2.95464C13.9806 2.46909 13.326 2.14759 12.6131 2.03987C11.9003 1.93214 11.1688 2.04417 10.5318 2.35865C9.89486 2.67313 9.38787 3.17253 9.08923 3.77965C8.7906 4.38677 8.71695 5.06779 8.87969 5.71742C7.57499 5.65699 6.29862 5.34415 5.13332 4.79918C3.96802 4.25421 2.9398 3.48928 2.11531 2.55398C1.69627 3.22086 1.56804 4.01 1.75669 4.76102C1.94534 5.51204 2.43671 6.16857 3.13094 6.5972C2.60975 6.58192 2.09998 6.4524 1.64375 6.21932V6.25682C1.64328 6.95667 1.9054 7.63507 2.38554 8.1767C2.86568 8.71833 3.53422 9.08976 4.2775 9.22787C3.7947 9.3498 3.28799 9.36756 2.79656 9.27979C3.0063 9.88166 3.41438 10.4081 3.96385 10.7856C4.51331 11.1631 5.17675 11.3728 5.86156 11.3855C4.69895 12.2284 3.26278 12.6857 1.78438 12.6835C1.52219 12.6831 1.26027 12.6683 1 12.6391C2.5019 13.5285 4.24902 14.0009 6.03344 14Z" stroke="#9BB0CF" stroke-width="1.2"/>
</svg>
