<svg width="560" height="560" viewBox="0 0 560 560" fill="none" xmlns="http://www.w3.org/2000/svg">
<rect width="560" height="560" rx="280" fill="white"/>
<circle opacity="0.7" cx="280" cy="280" r="150" stroke="url(#paint0_linear_7450_33642)" stroke-width="48"/>
<g opacity="0.3">
<circle cx="280" cy="280" r="198" stroke="url(#paint1_linear_7450_33642)" stroke-width="48"/>
<circle cx="280" cy="280" r="198" stroke="url(#paint2_linear_7450_33642)" stroke-width="48"/>
</g>
<mask id="mask0_7450_33642" style="mask-type:alpha" maskUnits="userSpaceOnUse" x="248" y="209" width="122" height="117">
<path fill-rule="evenodd" clip-rule="evenodd" d="M367.577 252.249C375.827 283.039 357.428 314.721 326.481 323.013C310.192 327.378 293.674 324.393 280.478 316.096L260.355 304.521C260.355 304.521 262.15 293.942 258.789 281.399C255.428 268.856 248.573 260.55 248.573 260.55L254.146 259.057C257.407 236.912 273.513 217.701 296.605 211.514C327.552 203.222 359.327 221.459 367.577 252.249ZM335.164 260.934C338.642 273.914 330.886 287.269 317.84 290.765C304.794 294.26 291.399 286.572 287.921 273.593C284.444 260.613 292.2 247.258 305.246 243.762C318.291 240.267 331.686 247.955 335.164 260.934Z" fill="url(#paint3_linear_7450_33642)"/>
</mask>
<g mask="url(#mask0_7450_33642)">
<path fill-rule="evenodd" clip-rule="evenodd" d="M367.577 252.249C375.827 283.039 357.428 314.721 326.481 323.013C310.192 327.378 293.674 324.393 280.478 316.096L260.355 304.521C260.355 304.521 262.15 293.942 258.789 281.399C255.428 268.856 248.573 260.55 248.573 260.55L254.146 259.057C257.407 236.912 273.513 217.701 296.605 211.514C327.552 203.222 359.327 221.459 367.577 252.249ZM335.164 260.934C338.642 273.914 330.886 287.269 317.84 290.765C304.794 294.26 291.399 286.572 287.921 273.593C284.444 260.613 292.2 247.258 305.246 243.762C318.291 240.267 331.686 247.955 335.164 260.934Z" fill="url(#paint4_linear_7450_33642)"/>
<path opacity="0.4" d="M254.419 281.868L248.75 260.713L248.779 260.716C253.114 261.218 257.131 263.717 260.599 265.874C261.312 266.317 262.002 266.746 262.667 267.141L299.471 288.423C299.696 288.545 300.006 288.703 300.367 288.879C281.468 282.218 271.417 280.138 254.419 281.868Z" fill="#1E2337"/>
</g>
<path d="M231.034 229.146C200.087 237.438 181.688 269.12 189.938 299.91C198.188 330.7 229.964 348.937 260.911 340.645C273.199 337.352 283.51 330.371 290.959 321.223L260.558 304.399C258.143 306.193 255.354 307.57 252.27 308.397C239.224 311.892 225.829 304.204 222.351 291.225C218.873 278.245 226.63 264.89 239.675 261.394C242.76 260.568 245.864 260.366 248.852 260.712C254.079 261.318 258.842 264.825 262.74 267.137L299.544 288.419C300.36 288.862 302.298 289.78 303.655 290.272C304.409 290.545 305.572 290.87 306.569 291.083C307.603 291.303 308.458 291.407 308.458 291.407C308.458 291.407 301.677 283.377 298.343 270.934C295.009 258.491 296.866 248.146 296.866 248.146L273.86 235.003C268.423 231.888 262.933 229.277 256.75 228.124C248.472 226.581 239.721 226.818 231.034 229.146Z" fill="url(#paint5_linear_7450_33642)"/>
<path opacity="0.3" fill-rule="evenodd" clip-rule="evenodd" d="M260.472 304.446C265.119 310.114 272.759 320.357 276.407 333.973C281.985 330.53 286.863 326.208 290.901 321.249L260.5 304.425C260.491 304.432 260.481 304.439 260.472 304.446Z" fill="#262D47"/>
<path d="M497.969 295C484.184 295 472.969 283.785 472.969 270C472.969 256.215 484.184 245 497.969 245C511.754 245 522.969 256.215 522.969 270C522.969 283.785 511.754 295 497.969 295Z" fill="#E91C9A"/>
<path d="M188.062 114C172.072 114 159.062 100.766 159.062 84.5C159.062 68.2337 172.072 55 188.062 55C204.053 55 217.062 68.2337 217.062 84.5C217.062 100.766 204.053 114 188.062 114Z" fill="#F88DCF"/>
<path d="M375.438 156.998C364.685 156.998 355.938 148.25 355.938 137.498C355.938 126.746 364.685 117.998 375.438 117.998C386.19 117.998 394.938 126.746 394.938 137.498C394.938 148.25 386.19 156.998 375.438 156.998Z" fill="#AAD7E4"/>
<path d="M62.5 297.002C47.3365 297.002 35 284.665 35 269.502C35 254.338 47.3365 242.002 62.5 242.002C77.6635 242.002 90 254.338 90 269.502C90 284.665 77.6635 297.002 62.5 297.002Z" fill="#AAD7E4"/>
<path d="M360.5 452.006C349.196 452.006 340 442.81 340 431.506C340 420.202 349.196 411.006 360.5 411.006C371.804 411.006 381 420.202 381 431.506C381 442.81 371.804 452.006 360.5 452.006Z" fill="#F8C9E5"/>
<path opacity="0.9" d="M173.937 496.996C158.498 496.996 145.938 484.435 145.938 468.996C145.938 453.557 158.498 440.996 173.937 440.996C189.377 440.996 201.937 453.557 201.937 468.996C201.937 484.435 189.377 496.996 173.937 496.996Z" fill="#24AFD5"/>
<defs>
<linearGradient id="paint0_linear_7450_33642" x1="173.437" y1="173.333" x2="413.438" y2="373.333" gradientUnits="userSpaceOnUse">
<stop stop-color="#D4DCDE" stop-opacity="0.22"/>
<stop offset="1" stop-color="#D5DEE0" stop-opacity="0.27"/>
</linearGradient>
<linearGradient id="paint1_linear_7450_33642" x1="139.337" y1="139.2" x2="456.138" y2="403.2" gradientUnits="userSpaceOnUse">
<stop stop-color="#B4C4C8"/>
<stop offset="1" stop-color="#CBD4D6" stop-opacity="0.41"/>
</linearGradient>
<linearGradient id="paint2_linear_7450_33642" x1="139.337" y1="139.2" x2="456.138" y2="403.2" gradientUnits="userSpaceOnUse">
<stop stop-color="#B4C4C8"/>
<stop offset="1" stop-color="#CBD4D6" stop-opacity="0.41"/>
</linearGradient>
<linearGradient id="paint3_linear_7450_33642" x1="335.803" y1="217.594" x2="292.923" y2="323.431" gradientUnits="userSpaceOnUse">
<stop stop-color="#FF52BC"/>
<stop offset="0.516172" stop-color="#C83E93"/>
<stop offset="1" stop-color="#861F5E"/>
</linearGradient>
<linearGradient id="paint4_linear_7450_33642" x1="335.803" y1="217.594" x2="292.923" y2="323.431" gradientUnits="userSpaceOnUse">
<stop stop-color="#FF52BC"/>
<stop offset="0.516172" stop-color="#C83E93"/>
<stop offset="1" stop-color="#861F5E"/>
</linearGradient>
<linearGradient id="paint5_linear_7450_33642" x1="291.516" y1="320.042" x2="198.011" y2="268.236" gradientUnits="userSpaceOnUse">
<stop stop-color="#00FFFF"/>
<stop offset="1" stop-color="#01CDFD"/>
</linearGradient>
</defs>
</svg>
