<svg version="1.2" xmlns="http://www.w3.org/2000/svg" viewBox="0 0 22 19" width="22" height="19">
	<title>24farmpink</title>
	<style>
		.s0 { fill: #ffffff } 
	</style>
	<path id="Layer" fill-rule="evenodd" class="s0" d="m3.8 1.3v0.3c0.6 0.1 1.1 0.5 1.4 1.1 0.2 0.3 0 0.8-0.4 1-0.3 0.2-0.8 0-1-0.4-0.1-0.1-0.2-0.3-0.6-0.3h-0.4c-0.4 0-0.7 0.3-0.7 0.6 0 0.4 0.3 0.6 0.7 0.6h0.6c1.1 0 2.1 1 2.1 2.2 0 1-0.8 1.9-1.8 2.1v0.2c0 0.5-0.3 0.8-0.7 0.8-0.4 0-0.8-0.3-0.8-0.8v-0.2c-0.8-0.1-1.4-0.7-1.6-1.2-0.2-0.3-0.1-0.8 0.3-1 0.4-0.2 0.8 0 1 0.4 0 0 0.2 0.3 0.6 0.3h0.9c0.3 0 0.6-0.3 0.6-0.6 0-0.4-0.3-0.7-0.6-0.7h-0.6c-1.2 0-2.2-0.9-2.2-2.1 0-0.9 0.7-1.8 1.7-2v-0.4c0-0.4 0.3-0.7 0.7-0.7 0.4 0 0.8 0.3 0.8 0.7zm8 0v0.4c0.6 0.1 1.1 0.5 1.4 1.1 0.2 0.3 0 0.8-0.4 1-0.3 0.2-0.8 0-1-0.4-0.1-0.1-0.2-0.3-0.6-0.3h-0.4c-0.4 0-0.7 0.3-0.7 0.6 0 0.4 0.3 0.6 0.7 0.6h0.6c1.1 0 2.1 1 2.1 2.2 0 1-0.8 1.9-1.8 2.1v0.2c0 0.5-0.3 0.8-0.7 0.8-0.4 0-0.8-0.3-0.8-0.8v-0.2c-0.8-0.1-1.4-0.7-1.6-1.2-0.2-0.3-0.1-0.8 0.3-1 0.4-0.2 0.8 0 1 0.4 0 0 0.2 0.3 0.6 0.3h0.9c0.3 0 0.6-0.3 0.6-0.6 0-0.4-0.3-0.7-0.6-0.7h-0.6c-1.2 0-2.2-0.9-2.2-2.1 0-0.9 0.7-1.8 1.7-2v-0.4c0-0.4 0.3-0.7 0.7-0.7 0.4 0 0.8 0.3 0.8 0.7zm8 0v0.4c0.6 0.1 1.1 0.5 1.4 1.1 0.2 0.3 0 0.8-0.4 1-0.3 0.2-0.8 0-1-0.4-0.1-0.1-0.2-0.3-0.6-0.3h-0.4c-0.4 0-0.7 0.3-0.7 0.6 0 0.4 0.3 0.6 0.7 0.6h0.6c1.1 0 2.1 1 2.1 2.2 0 1-0.8 1.9-1.8 2.1v0.2c0 0.5-0.3 0.8-0.7 0.8-0.4 0-0.8-0.3-0.8-0.8v-0.2c-0.8-0.1-1.4-0.7-1.6-1.2-0.2-0.3-0.1-0.8 0.3-1 0.4-0.2 0.8 0 1 0.4 0 0 0.2 0.3 0.6 0.3h0.9c0.3 0 0.6-0.3 0.6-0.6 0-0.4-0.3-0.7-0.6-0.7h-0.6c-1.2 0-2.2-0.9-2.2-2.1 0-0.9 0.7-1.8 1.7-2v-0.4c0-0.4 0.3-0.7 0.7-0.7 0.4 0 0.8 0.3 0.8 0.7zm-1.3 10.4q0.2 0 0.3 0.1l2.4 2.5q0.2 0.1 0.2 0.2 0.1 0.2 0.1 0.3 0 0.2-0.1 0.4 0 0.1-0.2 0.2l-2.4 2.5q-0.1 0.1-0.3 0.1-0.1 0.1-0.3 0.1-0.1 0-0.2 0-0.2-0.1-0.3-0.2-0.1-0.1-0.2-0.3 0-0.1 0-0.2 0-0.2 0.1-0.3 0-0.2 0.1-0.3l1.2-1.2h-5.3q-0.1 0.6-0.5 1.1c-0.5 0.6-1.2 0.9-2.1 0.9-0.9 0-1.6-0.3-2.1-0.9q-0.4-0.5-0.5-1.1h-2.5q-0.2 0.6-0.6 1.1c-0.5 0.6-1.2 0.9-2.1 0.9-0.8 0-1.5-0.3-2-0.9-0.5-0.5-0.7-1.2-0.7-1.9 0-0.6 0.2-1.3 0.7-1.8 0.5-0.6 1.2-0.9 2-0.9 0.9 0 1.6 0.3 2.1 0.9q0.4 0.5 0.6 1.1h2.5q0.1-0.6 0.5-1.1c0.5-0.6 1.2-0.9 2.1-0.9 0.9 0 1.6 0.3 2.1 0.9q0.4 0.5 0.5 1.1h5.3l-1.2-1.2q-0.1-0.2-0.2-0.4 0-0.2 0-0.4 0.1-0.3 0.3-0.4 0.2-0.1 0.4-0.1 0.2 0 0.3 0.1zm-16.2 2.3c-0.2 0.2-0.3 0.5-0.3 0.8 0 0.4 0.1 0.7 0.3 0.9 0.2 0.2 0.5 0.4 0.9 0.4 0.5 0 0.8-0.2 1-0.4 0.2-0.2 0.3-0.5 0.3-0.8q0 0 0-0.1c0-0.3-0.1-0.6-0.3-0.8-0.2-0.2-0.5-0.4-1-0.4-0.4 0-0.7 0.2-0.9 0.4zm7.8 0c-0.2 0.2-0.3 0.5-0.3 0.8q0 0 0 0.1c0 0.3 0.1 0.6 0.3 0.8 0.2 0.2 0.4 0.4 0.9 0.4 0.5 0 0.7-0.2 0.9-0.4 0.2-0.2 0.3-0.5 0.3-0.8q0 0 0-0.1c0-0.3-0.1-0.6-0.3-0.8-0.2-0.2-0.4-0.4-0.9-0.4-0.5 0-0.7 0.2-0.9 0.4z"/>
</svg>