<svg width="21" height="20" viewBox="0 0 21 20" fill="none" xmlns="http://www.w3.org/2000/svg">
<path opacity="0.5" d="M9.74891 0.493228C9.65167 0.495565 9.55582 0.516792 9.46668 0.555728C4.20724 0.841832 0.00476807 5.17146 0.00476807 10.501C0.00476807 10.5644 0.0080329 10.5745 0.0106274 10.6163C-0.0207456 10.8007 0.0179152 10.9902 0.119026 11.1475L5.11903 19.1475C5.16973 19.2341 5.23729 19.3096 5.31769 19.3696C5.3981 19.4296 5.48973 19.4729 5.58715 19.4968C5.68458 19.5208 5.78582 19.5249 5.88488 19.5091C5.98394 19.4932 6.07881 19.4576 6.16388 19.4044C6.24895 19.3513 6.32248 19.2815 6.38013 19.1994C6.43778 19.1173 6.47837 19.0245 6.4995 18.9264C6.52063 18.8283 6.52187 18.727 6.50315 18.6285C6.48443 18.5299 6.44613 18.4361 6.39051 18.3526L2.51844 12.1573C2.78787 12.1845 3.04149 12.2501 3.31922 12.2501C4.11831 12.2501 4.90871 12.0772 5.65028 11.8087L8.04285 18.9874C8.07401 19.0809 8.12327 19.1673 8.18784 19.2418C8.25241 19.3162 8.33101 19.3773 8.41916 19.4213C8.5073 19.4654 8.60327 19.4917 8.70158 19.4987C8.79989 19.5057 8.89861 19.4932 8.9921 19.4621C9.0856 19.4309 9.17204 19.3816 9.2465 19.3171C9.32095 19.2525 9.38195 19.1739 9.42602 19.0857C9.47009 18.9976 9.49636 18.9016 9.50334 18.8033C9.51032 18.705 9.49786 18.6063 9.46668 18.5128L7.33289 12.1114C9.01535 12.7627 10.9574 12.7718 12.6688 12.1358L10.5429 18.5128C10.5117 18.6063 10.4992 18.705 10.5062 18.8033C10.5132 18.9016 10.5394 18.9976 10.5835 19.0857C10.6276 19.1739 10.6886 19.2525 10.763 19.3171C10.8375 19.3816 10.9239 19.4309 11.0174 19.4621C11.1109 19.4932 11.2097 19.5057 11.308 19.4987C11.4063 19.4917 11.5022 19.4654 11.5904 19.4213C11.6785 19.3773 11.7571 19.3162 11.8217 19.2418C11.8863 19.1673 11.9355 19.0809 11.9667 18.9874L14.3661 11.7901C15.1027 12.0712 15.8932 12.2501 16.6991 12.2501C16.9731 12.2501 17.2246 12.1851 17.4911 12.1583L13.619 18.3526C13.5634 18.4361 13.5251 18.5299 13.5064 18.6285C13.4877 18.727 13.4889 18.8283 13.51 18.9264C13.5312 19.0245 13.5718 19.1173 13.6294 19.1994C13.6871 19.2815 13.7606 19.3513 13.8457 19.4044C13.9307 19.4576 14.0256 19.4932 14.1247 19.5091C14.2237 19.5249 14.325 19.5208 14.4224 19.4968C14.5198 19.4729 14.6114 19.4296 14.6918 19.3696C14.7723 19.3096 14.8398 19.2341 14.8905 19.1475L19.8905 11.1475C19.9916 10.9902 20.0303 10.8007 19.9989 10.6163C20.0015 10.5745 20.0048 10.5644 20.0048 10.501C20.0048 5.17212 15.8033 0.842811 10.5448 0.555728C10.4019 0.493629 10.2432 0.477586 10.0907 0.509829H10.0897C10.0607 0.50958 10.0339 0.50104 10.0048 0.50104C9.97434 0.50104 9.94626 0.509557 9.9159 0.509829C9.86103 0.498066 9.80502 0.492497 9.74891 0.493228ZM10.0048 2.07819C11.9901 3.83705 12.9078 6.79308 12.9764 10.3301C11.2766 11.2949 8.63932 11.2818 7.03504 10.3028C7.10796 6.77817 8.02468 3.83236 10.0048 2.07819ZM7.76453 2.33502C6.25263 4.42762 5.60316 7.21479 5.53895 10.2491C4.95454 10.5402 4.13387 10.7501 3.31922 10.7501C2.51662 10.7501 1.86336 10.5328 1.52235 10.3272C1.60095 6.48383 4.21456 3.30516 7.76453 2.33502ZM12.245 2.33502C15.795 3.30516 18.4086 6.48383 18.4872 10.3272C18.1461 10.5328 17.4928 10.7501 16.6991 10.7501C15.8601 10.7501 15.0143 10.5271 14.4696 10.2247C14.4024 7.19993 13.7528 4.4219 12.245 2.33502Z" fill="white"/>
</svg>
