<svg width="826" height="502" viewBox="0 0 826 502" fill="none" xmlns="http://www.w3.org/2000/svg">
<g opacity="0.4">
<line y1="90.5" x2="776" y2="90.5" stroke="#2D2D2D" stroke-dasharray="10 10"/>
<line y1="159.5" x2="776" y2="159.5" stroke="#2D2D2D" stroke-dasharray="10 10"/>
<line y1="228.5" x2="776" y2="228.5" stroke="#2D2D2D" stroke-dasharray="10 10"/>
<line y1="296.5" x2="776" y2="296.5" stroke="#2D2D2D" stroke-dasharray="10 10"/>
<line y1="365.5" x2="776" y2="365.5" stroke="#2D2D2D" stroke-dasharray="10 10"/>
<line y1="432.5" x2="776" y2="432.5" stroke="#2D2D2D" stroke-dasharray="10 10"/>
<line x1="61" y1="501.5" x2="761.729" y2="501.5" stroke="#2D2D2D" stroke-dasharray="10 10"/>
<line x1="606.5" y1="5.64721e-08" x2="606.5" y2="463" stroke="#2D2D2D" stroke-dasharray="10 10"/>
<line x1="685.5" y1="-2.18557e-08" x2="685.5" y2="463" stroke="#2D2D2D" stroke-dasharray="10 10"/>
<line x1="752.5" y1="-2.18557e-08" x2="752.5" y2="463" stroke="#2D2D2D" stroke-dasharray="10 10"/>
<line x1="528.5" y1="5.64721e-08" x2="528.5" y2="463" stroke="#2D2D2D" stroke-dasharray="10 10"/>
<line x1="451.5" y1="5.64721e-08" x2="451.5" y2="463" stroke="#2D2D2D" stroke-dasharray="10 10"/>
<line x1="373.5" y1="5.64721e-08" x2="373.5" y2="463" stroke="#2D2D2D" stroke-dasharray="10 10"/>
<line x1="295.5" y1="5.64721e-08" x2="295.5" y2="463" stroke="#2D2D2D" stroke-dasharray="10 10"/>
<line x1="217.5" y1="5.64721e-08" x2="217.5" y2="463" stroke="#2D2D2D" stroke-dasharray="10 10"/>
<line x1="139.5" y1="5.56429e-08" x2="139.5" y2="463" stroke="#2D2D2D" stroke-dasharray="10 10"/>
<line x1="61.5" y1="5.56429e-08" x2="61.5" y2="463" stroke="#2D2D2D" stroke-dasharray="10 10"/>
</g>
</svg>
