<svg width="141" height="52" viewBox="0 0 141 52" fill="none" xmlns="http://www.w3.org/2000/svg">
<g opacity="0.7">
<rect x="0.5" y="0.5" width="140" height="51" rx="4.5" fill="black" stroke="#1B1B1B"/>
<g opacity="0.6">
<path d="M36.3327 26C36.3327 30.6008 32.6002 34.3333 27.9993 34.3333C23.3985 34.3333 19.666 30.6008 19.666 26C19.666 21.3992 23.3985 17.6667 27.9993 17.6667C32.6002 17.6667 36.3327 21.3992 36.3327 26Z" fill="white"/>
<path d="M34.109 30.3417L27.309 42.65C18.4257 42.2917 11.334 34.9667 11.334 26C11.334 16.8 18.8007 9.33332 28.0007 9.33332V18.5C23.859 18.5 20.5007 21.8583 20.5007 26C20.5007 30.1417 23.859 33.5 28.0007 33.5C30.5257 33.5 32.7507 32.2583 34.109 30.3417Z" fill="url(#paint0_linear_5686_23121)"/>
<path d="M44.6674 26C44.6674 35.2083 37.2091 42.6667 28.0008 42.6667H27.3008L34.1091 30.3417C34.9841 29.1167 35.5008 27.6167 35.5008 26C35.5008 21.8583 32.1424 18.5 28.0008 18.5V9.33332C34.5091 9.33332 40.1258 13.0667 42.8758 18.5C44.0091 20.7583 44.6674 23.3 44.6674 26Z" fill="url(#paint1_linear_5686_23121)"/>
<path d="M42.8659 18.5H27.9992C23.8576 18.5 20.4992 21.8583 20.4992 26C20.4992 27.2417 20.7992 28.4083 21.3409 29.4417H21.3326L13.9659 17.05H13.9492C16.8992 12.4083 22.0909 9.33332 27.9992 9.33332C34.4992 9.33332 40.1242 13.0667 42.8659 18.5Z" fill="url(#paint2_linear_5686_23121)"/>
<path d="M33.8327 26C33.8327 29.2225 31.2218 31.8333 27.9993 31.8333C24.7768 31.8333 22.166 29.2225 22.166 26C22.166 22.7775 24.7768 20.1667 27.9993 20.1667C31.2218 20.1667 33.8327 22.7775 33.8327 26Z" fill="url(#paint3_linear_5686_23121)"/>
</g>
<path d="M60.343 22.63C59.6843 22.63 59.069 22.513 58.497 22.279C57.925 22.0363 57.4223 21.7027 56.989 21.278C56.5557 20.8533 56.2177 20.3593 55.975 19.796C55.741 19.224 55.624 18.6087 55.624 17.95C55.624 17.3 55.741 16.6933 55.975 16.13C56.2177 15.5667 56.5513 15.077 56.976 14.661C57.4093 14.2363 57.912 13.907 58.484 13.673C59.056 13.439 59.6713 13.322 60.33 13.322C60.7893 13.322 61.2357 13.387 61.669 13.517C62.111 13.647 62.5097 13.829 62.865 14.063C63.2203 14.297 63.5107 14.5657 63.736 14.869L62.826 15.818C62.566 15.5667 62.2973 15.3587 62.02 15.194C61.7513 15.0293 61.474 14.9037 61.188 14.817C60.902 14.7303 60.616 14.687 60.33 14.687C59.862 14.687 59.4287 14.7693 59.03 14.934C58.64 15.0987 58.2933 15.3283 57.99 15.623C57.6953 15.9177 57.4657 16.2643 57.301 16.663C57.1363 17.053 57.054 17.482 57.054 17.95C57.054 18.4007 57.1407 18.8297 57.314 19.237C57.4873 19.6357 57.7257 19.9867 58.029 20.29C58.341 20.5933 58.6963 20.8317 59.095 21.005C59.5023 21.1783 59.9313 21.265 60.382 21.265C60.72 21.265 61.0407 21.2173 61.344 21.122C61.6473 21.018 61.916 20.875 62.15 20.693C62.384 20.511 62.566 20.303 62.696 20.069C62.826 19.8263 62.891 19.5707 62.891 19.302V19.042L63.086 19.224H60.304V17.833H64.334C64.3513 17.9283 64.3643 18.0237 64.373 18.119C64.3817 18.2057 64.386 18.2923 64.386 18.379C64.3947 18.457 64.399 18.535 64.399 18.613C64.399 19.211 64.295 19.757 64.087 20.251C63.879 20.7363 63.5887 21.1567 63.216 21.512C62.852 21.8673 62.423 22.1447 61.929 22.344C61.4437 22.5347 60.915 22.63 60.343 22.63ZM69.0741 22.63C68.3721 22.63 67.7481 22.4827 67.2021 22.188C66.6648 21.8847 66.2401 21.473 65.9281 20.953C65.6248 20.433 65.4731 19.835 65.4731 19.159C65.4731 18.6217 65.5598 18.132 65.7331 17.69C65.9065 17.248 66.1448 16.8667 66.4481 16.546C66.7601 16.2167 67.1285 15.9653 67.5531 15.792C67.9865 15.61 68.4545 15.519 68.9571 15.519C69.3991 15.519 69.8108 15.6057 70.1921 15.779C70.5735 15.9437 70.9028 16.1733 71.1801 16.468C71.4661 16.7627 71.6828 17.1137 71.8301 17.521C71.9861 17.9197 72.0598 18.3573 72.0511 18.834L72.0381 19.406H66.4611L66.1621 18.34H70.8811L70.6861 18.561V18.249C70.6601 17.963 70.5648 17.7073 70.4001 17.482C70.2355 17.2567 70.0275 17.079 69.7761 16.949C69.5248 16.819 69.2518 16.754 68.9571 16.754C68.4891 16.754 68.0948 16.845 67.7741 17.027C67.4535 17.2003 67.2108 17.4603 67.0461 17.807C66.8815 18.145 66.7991 18.5653 66.7991 19.068C66.7991 19.5447 66.8988 19.9607 67.0981 20.316C67.2975 20.6627 67.5791 20.9313 67.9431 21.122C68.3071 21.3127 68.7275 21.408 69.2041 21.408C69.5421 21.408 69.8541 21.3517 70.1401 21.239C70.4348 21.1263 70.7511 20.9227 71.0891 20.628L71.7651 21.577C71.5571 21.785 71.3015 21.967 70.9981 22.123C70.7035 22.279 70.3871 22.4047 70.0491 22.5C69.7198 22.5867 69.3948 22.63 69.0741 22.63ZM74.3513 22.5V13.933H75.6903V22.5H74.3513ZM72.9343 16.975V15.675H77.2763V16.975H72.9343ZM86.1691 22.63C85.5365 22.63 84.9558 22.5173 84.4271 22.292C83.8985 22.0667 83.4391 21.746 83.0491 21.33C82.6591 20.9053 82.3558 20.407 82.1391 19.835C81.9311 19.263 81.8271 18.6347 81.8271 17.95C81.8271 17.3 81.9398 16.6977 82.1651 16.143C82.3991 15.5797 82.7198 15.0857 83.1271 14.661C83.5345 14.2363 84.0068 13.907 84.5441 13.673C85.0815 13.439 85.6621 13.322 86.2861 13.322C86.7281 13.322 87.1571 13.3913 87.5731 13.53C87.9978 13.66 88.3791 13.8463 88.7171 14.089C89.0638 14.323 89.3455 14.5917 89.5621 14.895L88.6261 15.87C88.3748 15.6187 88.1191 15.4107 87.8591 15.246C87.6078 15.0727 87.3478 14.9427 87.0791 14.856C86.8191 14.7693 86.5548 14.726 86.2861 14.726C85.8615 14.726 85.4628 14.8083 85.0901 14.973C84.7261 15.129 84.4055 15.35 84.1281 15.636C83.8595 15.922 83.6471 16.2643 83.4911 16.663C83.3351 17.053 83.2571 17.482 83.2571 17.95C83.2571 18.444 83.3308 18.8947 83.4781 19.302C83.6341 19.7007 83.8508 20.043 84.1281 20.329C84.4055 20.615 84.7348 20.836 85.1161 20.992C85.5061 21.1393 85.9351 21.213 86.4031 21.213C86.6891 21.213 86.9708 21.174 87.2481 21.096C87.5255 21.018 87.7855 20.9053 88.0281 20.758C88.2708 20.6107 88.4918 20.4373 88.6911 20.238L89.3931 21.382C89.1938 21.616 88.9208 21.8283 88.5741 22.019C88.2361 22.2097 87.8548 22.3613 87.4301 22.474C87.0141 22.578 86.5938 22.63 86.1691 22.63ZM90.9624 22.5V12.88H92.3014V17.079L92.0674 17.235C92.154 16.9317 92.323 16.6543 92.5744 16.403C92.8257 16.143 93.1247 15.935 93.4714 15.779C93.818 15.6143 94.1734 15.532 94.5374 15.532C95.0574 15.532 95.4907 15.636 95.8374 15.844C96.184 16.0433 96.444 16.351 96.6174 16.767C96.7907 17.183 96.8774 17.7073 96.8774 18.34V22.5H95.5384V18.431C95.5384 18.041 95.4864 17.7203 95.3824 17.469C95.2784 17.209 95.118 17.0227 94.9014 16.91C94.6847 16.7887 94.416 16.7367 94.0954 16.754C93.8354 16.754 93.597 16.7973 93.3804 16.884C93.1637 16.962 92.973 17.0747 92.8084 17.222C92.6524 17.3693 92.5267 17.5427 92.4314 17.742C92.3447 17.9327 92.3014 18.1407 92.3014 18.366V22.5H91.6384C91.5257 22.5 91.413 22.5 91.3004 22.5C91.1877 22.5 91.075 22.5 90.9624 22.5ZM98.6938 22.5V15.675H100.046V17.82L99.9158 17.3C100.011 16.9707 100.171 16.6717 100.397 16.403C100.631 16.1343 100.895 15.922 101.19 15.766C101.493 15.61 101.805 15.532 102.126 15.532C102.273 15.532 102.412 15.545 102.542 15.571C102.68 15.597 102.789 15.6273 102.867 15.662L102.516 17.118C102.412 17.0747 102.295 17.04 102.165 17.014C102.043 16.9793 101.922 16.962 101.801 16.962C101.567 16.962 101.341 17.0097 101.125 17.105C100.917 17.1917 100.73 17.3173 100.566 17.482C100.41 17.638 100.284 17.8243 100.189 18.041C100.093 18.249 100.046 18.4787 100.046 18.73V22.5H98.6938ZM106.713 22.63C106.046 22.63 105.448 22.4783 104.919 22.175C104.399 21.863 103.987 21.4427 103.684 20.914C103.381 20.3767 103.229 19.7657 103.229 19.081C103.229 18.3963 103.381 17.7897 103.684 17.261C103.987 16.7237 104.399 16.3033 104.919 16C105.448 15.688 106.046 15.532 106.713 15.532C107.372 15.532 107.961 15.688 108.481 16C109.01 16.3033 109.426 16.7237 109.729 17.261C110.032 17.7897 110.184 18.3963 110.184 19.081C110.184 19.7657 110.032 20.3767 109.729 20.914C109.426 21.4427 109.01 21.863 108.481 22.175C107.961 22.4783 107.372 22.63 106.713 22.63ZM106.713 21.408C107.12 21.408 107.484 21.3083 107.805 21.109C108.126 20.901 108.377 20.6237 108.559 20.277C108.741 19.9217 108.828 19.523 108.819 19.081C108.828 18.6303 108.741 18.2317 108.559 17.885C108.377 17.5297 108.126 17.2523 107.805 17.053C107.484 16.8537 107.12 16.754 106.713 16.754C106.306 16.754 105.937 16.858 105.608 17.066C105.287 17.2653 105.036 17.5427 104.854 17.898C104.672 18.2447 104.585 18.639 104.594 19.081C104.585 19.523 104.672 19.9217 104.854 20.277C105.036 20.6237 105.287 20.901 105.608 21.109C105.937 21.3083 106.306 21.408 106.713 21.408ZM111.617 22.5V15.675H112.969V17.131L112.722 17.287C112.791 17.0617 112.9 16.845 113.047 16.637C113.203 16.429 113.389 16.247 113.606 16.091C113.831 15.9263 114.07 15.7963 114.321 15.701C114.581 15.6057 114.845 15.558 115.114 15.558C115.504 15.558 115.846 15.623 116.141 15.753C116.436 15.883 116.678 16.078 116.869 16.338C117.06 16.598 117.198 16.923 117.285 17.313L117.077 17.261L117.168 17.04C117.263 16.8407 117.393 16.6543 117.558 16.481C117.731 16.299 117.926 16.1387 118.143 16C118.36 15.8613 118.589 15.753 118.832 15.675C119.075 15.597 119.313 15.558 119.547 15.558C120.058 15.558 120.479 15.662 120.808 15.87C121.146 16.078 121.397 16.3943 121.562 16.819C121.735 17.2437 121.822 17.7723 121.822 18.405V22.5H120.47V18.483C120.47 18.093 120.418 17.7767 120.314 17.534C120.219 17.2827 120.071 17.0963 119.872 16.975C119.673 16.8537 119.417 16.793 119.105 16.793C118.862 16.793 118.633 16.8363 118.416 16.923C118.208 17.001 118.026 17.1137 117.87 17.261C117.714 17.4083 117.593 17.5817 117.506 17.781C117.419 17.9717 117.376 18.184 117.376 18.418V22.5H116.024V18.457C116.024 18.1017 115.972 17.8027 115.868 17.56C115.764 17.3087 115.612 17.118 115.413 16.988C115.214 16.858 114.971 16.793 114.685 16.793C114.442 16.793 114.217 16.8363 114.009 16.923C113.801 17.001 113.619 17.1137 113.463 17.261C113.307 17.3997 113.186 17.5687 113.099 17.768C113.012 17.9587 112.969 18.1667 112.969 18.392V22.5H111.617ZM126.8 22.63C126.098 22.63 125.474 22.4827 124.928 22.188C124.39 21.8847 123.966 21.473 123.654 20.953C123.35 20.433 123.199 19.835 123.199 19.159C123.199 18.6217 123.285 18.132 123.459 17.69C123.632 17.248 123.87 16.8667 124.174 16.546C124.486 16.2167 124.854 15.9653 125.279 15.792C125.712 15.61 126.18 15.519 126.683 15.519C127.125 15.519 127.536 15.6057 127.918 15.779C128.299 15.9437 128.628 16.1733 128.906 16.468C129.192 16.7627 129.408 17.1137 129.556 17.521C129.712 17.9197 129.785 18.3573 129.777 18.834L129.764 19.406H124.187L123.888 18.34H128.607L128.412 18.561V18.249C128.386 17.963 128.29 17.7073 128.126 17.482C127.961 17.2567 127.753 17.079 127.502 16.949C127.25 16.819 126.977 16.754 126.683 16.754C126.215 16.754 125.82 16.845 125.5 17.027C125.179 17.2003 124.936 17.4603 124.772 17.807C124.607 18.145 124.525 18.5653 124.525 19.068C124.525 19.5447 124.624 19.9607 124.824 20.316C125.023 20.6627 125.305 20.9313 125.669 21.122C126.033 21.3127 126.453 21.408 126.93 21.408C127.268 21.408 127.58 21.3517 127.866 21.239C128.16 21.1263 128.477 20.9227 128.815 20.628L129.491 21.577C129.283 21.785 129.027 21.967 128.724 22.123C128.429 22.279 128.113 22.4047 127.775 22.5C127.445 22.5867 127.12 22.63 126.8 22.63ZM56.274 39.5V30.4H62.007V31.752H57.678V38.148H62.007V39.5H56.274ZM56.911 35.509V34.157H61.292V35.509H56.911ZM68.4584 39.5L66.2484 36.627L66.0534 36.38L63.1804 32.675H64.8704L67.0414 35.509L67.2624 35.795L70.0964 39.5H68.4584ZM63.1934 39.5L65.8844 35.99L66.6774 36.939L64.7794 39.5H63.1934ZM67.3404 36.198L66.5994 35.262L68.2764 32.675H69.8624L67.3404 36.198ZM72.0662 39.5V30.933H73.4052V39.5H72.0662ZM70.6492 33.975V32.675H74.9912V33.975H70.6492ZM79.3319 39.63C78.6299 39.63 78.0059 39.4827 77.4599 39.188C76.9226 38.8847 76.4979 38.473 76.1859 37.953C75.8826 37.433 75.7309 36.835 75.7309 36.159C75.7309 35.6217 75.8176 35.132 75.9909 34.69C76.1643 34.248 76.4026 33.8667 76.7059 33.546C77.0179 33.2167 77.3863 32.9653 77.8109 32.792C78.2443 32.61 78.7123 32.519 79.2149 32.519C79.6569 32.519 80.0686 32.6057 80.4499 32.779C80.8313 32.9437 81.1606 33.1733 81.4379 33.468C81.7239 33.7627 81.9406 34.1137 82.0879 34.521C82.2439 34.9197 82.3176 35.3573 82.3089 35.834L82.2959 36.406H76.7189L76.4199 35.34H81.1389L80.9439 35.561V35.249C80.9179 34.963 80.8226 34.7073 80.6579 34.482C80.4933 34.2567 80.2853 34.079 80.0339 33.949C79.7826 33.819 79.5096 33.754 79.2149 33.754C78.7469 33.754 78.3526 33.845 78.0319 34.027C77.7113 34.2003 77.4686 34.4603 77.3039 34.807C77.1393 35.145 77.0569 35.5653 77.0569 36.068C77.0569 36.5447 77.1566 36.9607 77.3559 37.316C77.5553 37.6627 77.8369 37.9313 78.2009 38.122C78.5649 38.3127 78.9853 38.408 79.4619 38.408C79.7999 38.408 80.1119 38.3517 80.3979 38.239C80.6926 38.1263 81.0089 37.9227 81.3469 37.628L82.0229 38.577C81.8149 38.785 81.5593 38.967 81.2559 39.123C80.9613 39.279 80.6449 39.4047 80.3069 39.5C79.9776 39.5867 79.6526 39.63 79.3319 39.63ZM83.7641 39.5V32.675H85.1031V34.079L84.8691 34.235C84.9558 33.9317 85.1248 33.6543 85.3761 33.403C85.6275 33.143 85.9265 32.935 86.2731 32.779C86.6198 32.6143 86.9751 32.532 87.3391 32.532C87.8591 32.532 88.2925 32.636 88.6391 32.844C88.9858 33.0433 89.2458 33.351 89.4191 33.767C89.5925 34.183 89.6791 34.7073 89.6791 35.34V39.5H88.3401V35.431C88.3401 35.041 88.2881 34.7203 88.1841 34.469C88.0801 34.209 87.9198 34.0227 87.7031 33.91C87.4865 33.7887 87.2178 33.7367 86.8971 33.754C86.6371 33.754 86.3988 33.7973 86.1821 33.884C85.9655 33.962 85.7748 34.0747 85.6101 34.222C85.4541 34.3693 85.3285 34.5427 85.2331 34.742C85.1465 34.9327 85.1031 35.1407 85.1031 35.366V39.5H84.4401C84.3275 39.5 84.2148 39.5 84.1021 39.5C83.9895 39.5 83.8768 39.5 83.7641 39.5ZM93.7706 39.63C93.1986 39.63 92.6829 39.5303 92.2236 39.331C91.7642 39.1317 91.3829 38.837 91.0796 38.447L91.9896 37.667C92.2496 37.9703 92.5312 38.1913 92.8346 38.33C93.1466 38.46 93.4976 38.525 93.8876 38.525C94.0436 38.525 94.1866 38.5077 94.3166 38.473C94.4552 38.4297 94.5722 38.369 94.6676 38.291C94.7716 38.213 94.8496 38.122 94.9016 38.018C94.9536 37.9053 94.9796 37.784 94.9796 37.654C94.9796 37.4287 94.8972 37.2467 94.7326 37.108C94.6459 37.0473 94.5072 36.9823 94.3166 36.913C94.1346 36.835 93.8962 36.757 93.6016 36.679C93.0989 36.549 92.6872 36.4017 92.3666 36.237C92.0459 36.0723 91.7989 35.886 91.6256 35.678C91.4956 35.5133 91.4002 35.3357 91.3396 35.145C91.2789 34.9457 91.2486 34.729 91.2486 34.495C91.2486 34.209 91.3092 33.949 91.4306 33.715C91.5606 33.4723 91.7339 33.2643 91.9506 33.091C92.1759 32.909 92.4359 32.7703 92.7306 32.675C93.0339 32.5797 93.3546 32.532 93.6926 32.532C94.0132 32.532 94.3296 32.5753 94.6416 32.662C94.9622 32.7487 95.2569 32.8743 95.5256 33.039C95.7942 33.2037 96.0196 33.3987 96.2016 33.624L95.4346 34.469C95.2699 34.3043 95.0879 34.1613 94.8886 34.04C94.6979 33.91 94.5029 33.8103 94.3036 33.741C94.1042 33.6717 93.9222 33.637 93.7576 33.637C93.5756 33.637 93.4109 33.6543 93.2636 33.689C93.1162 33.7237 92.9906 33.7757 92.8866 33.845C92.7912 33.9143 92.7176 34.001 92.6656 34.105C92.6136 34.209 92.5876 34.326 92.5876 34.456C92.5962 34.5687 92.6222 34.677 92.6656 34.781C92.7176 34.8763 92.7869 34.9587 92.8736 35.028C92.9689 35.0973 93.1119 35.171 93.3026 35.249C93.4932 35.327 93.7359 35.4007 94.0306 35.47C94.4639 35.5827 94.8192 35.7083 95.0966 35.847C95.3826 35.977 95.6079 36.1287 95.7726 36.302C95.9459 36.4667 96.0672 36.6573 96.1366 36.874C96.2059 37.0907 96.2406 37.3333 96.2406 37.602C96.2406 37.992 96.1279 38.343 95.9026 38.655C95.6859 38.9583 95.3912 39.1967 95.0186 39.37C94.6459 39.5433 94.2299 39.63 93.7706 39.63ZM97.9373 39.5V32.675H99.2763V39.5H97.9373ZM98.5873 31.167C98.3013 31.167 98.0803 31.0933 97.9243 30.946C97.7683 30.7987 97.6903 30.5907 97.6903 30.322C97.6903 30.0707 97.7683 29.867 97.9243 29.711C98.0889 29.555 98.3099 29.477 98.5873 29.477C98.8733 29.477 99.0943 29.5507 99.2503 29.698C99.4063 29.8453 99.4843 30.0533 99.4843 30.322C99.4843 30.5733 99.4019 30.777 99.2373 30.933C99.0813 31.089 98.8646 31.167 98.5873 31.167ZM104.402 39.63C103.735 39.63 103.137 39.4783 102.608 39.175C102.088 38.863 101.677 38.4427 101.373 37.914C101.07 37.3767 100.918 36.7657 100.918 36.081C100.918 35.3963 101.07 34.7897 101.373 34.261C101.677 33.7237 102.088 33.3033 102.608 33C103.137 32.688 103.735 32.532 104.402 32.532C105.061 32.532 105.65 32.688 106.17 33C106.699 33.3033 107.115 33.7237 107.418 34.261C107.722 34.7897 107.873 35.3963 107.873 36.081C107.873 36.7657 107.722 37.3767 107.418 37.914C107.115 38.4427 106.699 38.863 106.17 39.175C105.65 39.4783 105.061 39.63 104.402 39.63ZM104.402 38.408C104.81 38.408 105.174 38.3083 105.494 38.109C105.815 37.901 106.066 37.6237 106.248 37.277C106.43 36.9217 106.517 36.523 106.508 36.081C106.517 35.6303 106.43 35.2317 106.248 34.885C106.066 34.5297 105.815 34.2523 105.494 34.053C105.174 33.8537 104.81 33.754 104.402 33.754C103.995 33.754 103.627 33.858 103.297 34.066C102.977 34.2653 102.725 34.5427 102.543 34.898C102.361 35.2447 102.275 35.639 102.283 36.081C102.275 36.523 102.361 36.9217 102.543 37.277C102.725 37.6237 102.977 37.901 103.297 38.109C103.627 38.3083 103.995 38.408 104.402 38.408ZM109.332 39.5V32.675H110.671V34.079L110.437 34.235C110.524 33.9317 110.693 33.6543 110.944 33.403C111.196 33.143 111.495 32.935 111.841 32.779C112.188 32.6143 112.543 32.532 112.907 32.532C113.427 32.532 113.861 32.636 114.207 32.844C114.554 33.0433 114.814 33.351 114.987 33.767C115.161 34.183 115.247 34.7073 115.247 35.34V39.5H113.908V35.431C113.908 35.041 113.856 34.7203 113.752 34.469C113.648 34.209 113.488 34.0227 113.271 33.91C113.055 33.7887 112.786 33.7367 112.465 33.754C112.205 33.754 111.967 33.7973 111.75 33.884C111.534 33.962 111.343 34.0747 111.178 34.222C111.022 34.3693 110.897 34.5427 110.801 34.742C110.715 34.9327 110.671 35.1407 110.671 35.366V39.5H110.008C109.896 39.5 109.783 39.5 109.67 39.5C109.558 39.5 109.445 39.5 109.332 39.5Z" fill="white"/>
</g>
<defs>
<linearGradient id="paint0_linear_5686_23121" x1="12.8248" y1="19.0367" x2="34.104" y2="30.3508" gradientUnits="userSpaceOnUse">
<stop stop-color="#4CAF50"/>
<stop offset="0.489" stop-color="#4AAF50"/>
<stop offset="0.665" stop-color="#43AD50"/>
<stop offset="0.79" stop-color="#38AA50"/>
<stop offset="0.892" stop-color="#27A550"/>
<stop offset="0.978" stop-color="#11A050"/>
<stop offset="1" stop-color="#0A9E50"/>
</linearGradient>
<linearGradient id="paint1_linear_5686_23121" x1="35.9841" y1="42.6667" x2="35.9841" y2="18.6692" gradientUnits="userSpaceOnUse">
<stop stop-color="#FFD747"/>
<stop offset="0.482" stop-color="#FFD645"/>
<stop offset="0.655" stop-color="#FED43E"/>
<stop offset="0.779" stop-color="#FCCF33"/>
<stop offset="0.879" stop-color="#FAC922"/>
<stop offset="0.964" stop-color="#F7C10C"/>
<stop offset="1" stop-color="#F5BC00"/>
</linearGradient>
<linearGradient id="paint2_linear_5686_23121" x1="38.1059" y1="10.7525" x2="17.6442" y2="23.5383" gradientUnits="userSpaceOnUse">
<stop stop-color="#F7572F"/>
<stop offset="0.523" stop-color="#F7552D"/>
<stop offset="0.712" stop-color="#F75026"/>
<stop offset="0.846" stop-color="#F7461B"/>
<stop offset="0.954" stop-color="#F7390A"/>
<stop offset="1" stop-color="#F73100"/>
</linearGradient>
<linearGradient id="paint3_linear_5686_23121" x1="23.8743" y1="21.875" x2="32.1243" y2="30.125" gradientUnits="userSpaceOnUse">
<stop stop-color="#2AA4F4"/>
<stop offset="1" stop-color="#007AD9"/>
</linearGradient>
</defs>
</svg>
