<svg width="40" height="40" viewBox="0 0 40 40" fill="none" xmlns="http://www.w3.org/2000/svg">
<g opacity="0.6">
<path d="M5 24.1667V32.5C5 34.3408 6.4925 35.8333 8.33333 35.8333H31.6667C33.5075 35.8333 35 34.3408 35 32.5V24.1667H5Z" fill="#78909C"/>
<path d="M35 24.1667C35 26.0075 33.5075 27.5 31.6667 27.5H8.33333C6.4925 27.5 5 26.0075 5 24.1667L7.5 9.16667C7.6825 7.42167 8.9925 5.83333 10.8333 5.83333H29.1667C31.0075 5.83333 32.24 7.29167 32.5 9.16667L35 24.1667Z" fill="#455A64"/>
<path d="M29.1667 30C28.7246 30 28.3007 30.1756 27.9882 30.4882C27.6756 30.8007 27.5 31.2246 27.5 31.6667C27.5 32.1087 27.6756 32.5326 27.9882 32.8452C28.3007 33.1577 28.7246 33.3333 29.1667 33.3333C29.6087 33.3333 30.0326 33.1577 30.3452 32.8452C30.6577 32.5326 30.8333 32.1087 30.8333 31.6667C30.8333 31.2246 30.6577 30.8007 30.3452 30.4882C30.0326 30.1756 29.6087 30 29.1667 30Z" fill="#64DD17"/>
<path d="M20.0015 22.7016L26.6673 16.035H13.334L20.0015 22.7016Z" fill="#00E5FF"/>
<path d="M17.5 3.33333H22.4983V16.6658H17.5V3.33333Z" fill="#00E5FF"/>
</g>
</svg>
