<svg width="141" height="52" viewBox="0 0 141 52" fill="none" xmlns="http://www.w3.org/2000/svg">
<g opacity="0.7">
<rect width="141" height="52" rx="8" fill="#1B1B1B"/>
<rect x="0.5" y="0.5" width="140" height="51" rx="4.5" fill="black" stroke="#1B1B1B"/>
<g opacity="0.6">
<path d="M13 30.1667V38.5C13 40.3408 14.4925 41.8333 16.3333 41.8333H39.6667C41.5075 41.8333 43 40.3408 43 38.5V30.1667H13Z" fill="#78909C"/>
<path d="M43 30.1667C43 32.0075 41.5075 33.5 39.6667 33.5H16.3333C14.4925 33.5 13 32.0075 13 30.1667L15.5 15.1667C15.6825 13.4217 16.9925 11.8333 18.8333 11.8333H37.1667C39.0075 11.8333 40.24 13.2917 40.5 15.1667L43 30.1667Z" fill="#455A64"/>
<path d="M37.1667 36C36.7246 36 36.3007 36.1756 35.9882 36.4882C35.6756 36.8007 35.5 37.2246 35.5 37.6667C35.5 38.1087 35.6756 38.5326 35.9882 38.8452C36.3007 39.1577 36.7246 39.3333 37.1667 39.3333C37.6087 39.3333 38.0326 39.1577 38.3452 38.8452C38.6577 38.5326 38.8333 38.1087 38.8333 37.6667C38.8333 37.2246 38.6577 36.8007 38.3452 36.4882C38.0326 36.1756 37.6087 36 37.1667 36Z" fill="#64DD17"/>
<path d="M28.0015 28.7016L34.6673 22.035H21.334L28.0015 28.7016Z" fill="#00E5FF"/>
<path d="M25.5 9.33333H30.4983V22.6658H25.5V9.33333Z" fill="#00E5FF"/>
</g>
<path d="M56.274 22.5V13.4H59.836C60.486 13.4 61.071 13.5083 61.591 13.725C62.1197 13.9417 62.5703 14.2537 62.943 14.661C63.3157 15.0683 63.6017 15.5493 63.801 16.104C64.0003 16.6587 64.1 17.274 64.1 17.95C64.1 18.626 64.0003 19.2457 63.801 19.809C63.6017 20.3637 63.3157 20.8447 62.943 21.252C62.579 21.6507 62.1327 21.9583 61.604 22.175C61.0753 22.3917 60.486 22.5 59.836 22.5H56.274ZM57.678 21.291L57.639 21.148H59.771C60.2303 21.148 60.6377 21.0743 60.993 20.927C61.357 20.7797 61.6603 20.5717 61.903 20.303C62.1543 20.0257 62.345 19.6877 62.475 19.289C62.605 18.8903 62.67 18.444 62.67 17.95C62.67 17.456 62.605 17.014 62.475 16.624C62.345 16.2253 62.1543 15.8873 61.903 15.61C61.6517 15.3327 61.3483 15.1203 60.993 14.973C60.6377 14.8257 60.2303 14.752 59.771 14.752H57.6L57.678 14.635V21.291ZM68.7286 22.63C68.0613 22.63 67.4633 22.4783 66.9346 22.175C66.4146 21.863 66.0029 21.4427 65.6996 20.914C65.3963 20.3767 65.2446 19.7657 65.2446 19.081C65.2446 18.3963 65.3963 17.7897 65.6996 17.261C66.0029 16.7237 66.4146 16.3033 66.9346 16C67.4633 15.688 68.0613 15.532 68.7286 15.532C69.3873 15.532 69.9766 15.688 70.4966 16C71.0253 16.3033 71.4413 16.7237 71.7446 17.261C72.0479 17.7897 72.1996 18.3963 72.1996 19.081C72.1996 19.7657 72.0479 20.3767 71.7446 20.914C71.4413 21.4427 71.0253 21.863 70.4966 22.175C69.9766 22.4783 69.3873 22.63 68.7286 22.63ZM68.7286 21.408C69.1359 21.408 69.4999 21.3083 69.8206 21.109C70.1413 20.901 70.3926 20.6237 70.5746 20.277C70.7566 19.9217 70.8433 19.523 70.8346 19.081C70.8433 18.6303 70.7566 18.2317 70.5746 17.885C70.3926 17.5297 70.1413 17.2523 69.8206 17.053C69.4999 16.8537 69.1359 16.754 68.7286 16.754C68.3213 16.754 67.9529 16.858 67.6236 17.066C67.3029 17.2653 67.0516 17.5427 66.8696 17.898C66.6876 18.2447 66.6009 18.639 66.6096 19.081C66.6009 19.523 66.6876 19.9217 66.8696 20.277C67.0516 20.6237 67.3029 20.901 67.6236 21.109C67.9529 21.3083 68.3213 21.408 68.7286 21.408ZM75.0818 22.5L72.7548 15.675L74.1068 15.662L75.7708 20.771L75.4718 20.745L77.2788 16.754H78.0848L79.9048 20.758L79.5538 20.784L81.2308 15.675H82.5828L80.2818 22.5H79.3588L77.4608 18.158L77.7598 18.197L75.9918 22.5H75.0818ZM83.8022 22.5V15.675H85.1412V17.079L84.9072 17.235C84.9939 16.9317 85.1629 16.6543 85.4142 16.403C85.6655 16.143 85.9645 15.935 86.3112 15.779C86.6579 15.6143 87.0132 15.532 87.3772 15.532C87.8972 15.532 88.3305 15.636 88.6772 15.844C89.0239 16.0433 89.2839 16.351 89.4572 16.767C89.6305 17.183 89.7172 17.7073 89.7172 18.34V22.5H88.3782V18.431C88.3782 18.041 88.3262 17.7203 88.2222 17.469C88.1182 17.209 87.9579 17.0227 87.7412 16.91C87.5245 16.7887 87.2559 16.7367 86.9352 16.754C86.6752 16.754 86.4369 16.7973 86.2202 16.884C86.0035 16.962 85.8129 17.0747 85.6482 17.222C85.4922 17.3693 85.3665 17.5427 85.2712 17.742C85.1845 17.9327 85.1412 18.1407 85.1412 18.366V22.5H84.4782C84.3655 22.5 84.2529 22.5 84.1402 22.5C84.0275 22.5 83.9149 22.5 83.8022 22.5ZM91.5597 22.5V12.88H92.8987V22.5H91.5597ZM97.7374 22.63C97.0701 22.63 96.4721 22.4783 95.9434 22.175C95.4234 21.863 95.0117 21.4427 94.7084 20.914C94.4051 20.3767 94.2534 19.7657 94.2534 19.081C94.2534 18.3963 94.4051 17.7897 94.7084 17.261C95.0117 16.7237 95.4234 16.3033 95.9434 16C96.4721 15.688 97.0701 15.532 97.7374 15.532C98.3961 15.532 98.9854 15.688 99.5054 16C100.034 16.3033 100.45 16.7237 100.753 17.261C101.057 17.7897 101.208 18.3963 101.208 19.081C101.208 19.7657 101.057 20.3767 100.753 20.914C100.45 21.4427 100.034 21.863 99.5054 22.175C98.9854 22.4783 98.3961 22.63 97.7374 22.63ZM97.7374 21.408C98.1447 21.408 98.5087 21.3083 98.8294 21.109C99.1501 20.901 99.4014 20.6237 99.5834 20.277C99.7654 19.9217 99.8521 19.523 99.8434 19.081C99.8521 18.6303 99.7654 18.2317 99.5834 17.885C99.4014 17.5297 99.1501 17.2523 98.8294 17.053C98.5087 16.8537 98.1447 16.754 97.7374 16.754C97.3301 16.754 96.9617 16.858 96.6324 17.066C96.3117 17.2653 96.0604 17.5427 95.8784 17.898C95.6964 18.2447 95.6097 18.639 95.6184 19.081C95.6097 19.523 95.6964 19.9217 95.8784 20.277C96.0604 20.6237 96.3117 20.901 96.6324 21.109C96.9617 21.3083 97.3301 21.408 97.7374 21.408ZM105.293 22.63C104.73 22.63 104.214 22.474 103.746 22.162C103.287 21.85 102.919 21.4253 102.641 20.888C102.364 20.3507 102.225 19.744 102.225 19.068C102.225 18.3833 102.364 17.7767 102.641 17.248C102.927 16.7107 103.309 16.2903 103.785 15.987C104.271 15.6837 104.812 15.532 105.41 15.532C105.766 15.532 106.091 15.584 106.385 15.688C106.68 15.792 106.936 15.9393 107.152 16.13C107.378 16.312 107.56 16.5243 107.698 16.767C107.846 17.0097 107.937 17.2697 107.971 17.547L107.672 17.443V15.675H109.024V22.5H107.672V20.875L107.984 20.784C107.932 21.018 107.824 21.2477 107.659 21.473C107.503 21.6897 107.3 21.8847 107.048 22.058C106.806 22.2313 106.533 22.37 106.229 22.474C105.935 22.578 105.623 22.63 105.293 22.63ZM105.644 21.395C106.052 21.395 106.411 21.2953 106.723 21.096C107.035 20.8967 107.278 20.6237 107.451 20.277C107.633 19.9217 107.724 19.5187 107.724 19.068C107.724 18.626 107.633 18.2317 107.451 17.885C107.278 17.5383 107.035 17.2653 106.723 17.066C106.411 16.8667 106.052 16.767 105.644 16.767C105.246 16.767 104.89 16.8667 104.578 17.066C104.275 17.2653 104.032 17.5383 103.85 17.885C103.677 18.2317 103.59 18.626 103.59 19.068C103.59 19.5187 103.677 19.9217 103.85 20.277C104.032 20.6237 104.275 20.8967 104.578 21.096C104.89 21.2953 105.246 21.395 105.644 21.395ZM113.741 22.63C113.117 22.63 112.558 22.4783 112.064 22.175C111.579 21.863 111.193 21.4427 110.907 20.914C110.621 20.3767 110.478 19.7657 110.478 19.081C110.478 18.3963 110.617 17.7897 110.894 17.261C111.18 16.7237 111.566 16.3033 112.051 16C112.536 15.688 113.087 15.532 113.702 15.532C114.04 15.532 114.365 15.5883 114.677 15.701C114.998 15.805 115.284 15.9523 115.535 16.143C115.786 16.325 115.981 16.5287 116.12 16.754C116.267 16.9707 116.341 17.1917 116.341 17.417L115.951 17.443V12.88H117.29V22.5H115.951V20.875H116.211C116.211 21.083 116.142 21.291 116.003 21.499C115.864 21.6983 115.678 21.8847 115.444 22.058C115.219 22.2313 114.954 22.37 114.651 22.474C114.356 22.578 114.053 22.63 113.741 22.63ZM113.923 21.473C114.33 21.473 114.69 21.369 115.002 21.161C115.314 20.953 115.557 20.6713 115.73 20.316C115.912 19.952 116.003 19.5403 116.003 19.081C116.003 18.6217 115.912 18.2143 115.73 17.859C115.557 17.495 115.314 17.209 115.002 17.001C114.69 16.793 114.33 16.689 113.923 16.689C113.516 16.689 113.156 16.793 112.844 17.001C112.532 17.209 112.285 17.495 112.103 17.859C111.93 18.2143 111.843 18.6217 111.843 19.081C111.843 19.5403 111.93 19.952 112.103 20.316C112.285 20.6713 112.532 20.953 112.844 21.161C113.156 21.369 113.516 21.473 113.923 21.473ZM56.677 39.5V31.908C56.677 31.518 56.7637 31.1713 56.937 30.868C57.1103 30.5647 57.3487 30.3263 57.652 30.153C57.9553 29.9797 58.3063 29.893 58.705 29.893C58.9823 29.893 59.2423 29.945 59.485 30.049C59.7277 30.153 59.9227 30.2917 60.07 30.465L59.615 31.492C59.5023 31.388 59.3767 31.3057 59.238 31.245C59.108 31.1757 58.9823 31.141 58.861 31.141C58.679 31.141 58.523 31.1713 58.393 31.232C58.2717 31.284 58.1807 31.3707 58.12 31.492C58.0593 31.6047 58.029 31.7433 58.029 31.908V39.5H57.353C57.2403 39.5 57.1277 39.5 57.015 39.5C56.9023 39.5 56.7897 39.5 56.677 39.5ZM55.585 34.027V32.792H59.641V34.027H55.585ZM63.8536 39.63C63.1863 39.63 62.5883 39.4783 62.0596 39.175C61.5396 38.863 61.1279 38.4427 60.8246 37.914C60.5213 37.3767 60.3696 36.7657 60.3696 36.081C60.3696 35.3963 60.5213 34.7897 60.8246 34.261C61.1279 33.7237 61.5396 33.3033 62.0596 33C62.5883 32.688 63.1863 32.532 63.8536 32.532C64.5123 32.532 65.1016 32.688 65.6216 33C66.1503 33.3033 66.5663 33.7237 66.8696 34.261C67.1729 34.7897 67.3246 35.3963 67.3246 36.081C67.3246 36.7657 67.1729 37.3767 66.8696 37.914C66.5663 38.4427 66.1503 38.863 65.6216 39.175C65.1016 39.4783 64.5123 39.63 63.8536 39.63ZM63.8536 38.408C64.2609 38.408 64.6249 38.3083 64.9456 38.109C65.2663 37.901 65.5176 37.6237 65.6996 37.277C65.8816 36.9217 65.9683 36.523 65.9596 36.081C65.9683 35.6303 65.8816 35.2317 65.6996 34.885C65.5176 34.5297 65.2663 34.2523 64.9456 34.053C64.6249 33.8537 64.2609 33.754 63.8536 33.754C63.4463 33.754 63.0779 33.858 62.7486 34.066C62.4279 34.2653 62.1766 34.5427 61.9946 34.898C61.8126 35.2447 61.7259 35.639 61.7346 36.081C61.7259 36.523 61.8126 36.9217 61.9946 37.277C62.1766 37.6237 62.4279 37.901 62.7486 38.109C63.0779 38.3083 63.4463 38.408 63.8536 38.408ZM68.7837 39.5V32.675H70.1357V34.82L70.0057 34.3C70.101 33.9707 70.2613 33.6717 70.4867 33.403C70.7207 33.1343 70.985 32.922 71.2797 32.766C71.583 32.61 71.895 32.532 72.2157 32.532C72.363 32.532 72.5017 32.545 72.6317 32.571C72.7703 32.597 72.8787 32.6273 72.9567 32.662L72.6057 34.118C72.5017 34.0747 72.3847 34.04 72.2547 34.014C72.1333 33.9793 72.012 33.962 71.8907 33.962C71.6567 33.962 71.4313 34.0097 71.2147 34.105C71.0067 34.1917 70.8203 34.3173 70.6557 34.482C70.4997 34.638 70.374 34.8243 70.2787 35.041C70.1833 35.249 70.1357 35.4787 70.1357 35.73V39.5H68.7837ZM78.0084 39.5V30.4H79.3864L82.7014 35.795L82.0384 35.782L85.3924 30.4H86.6924V39.5H85.2884V35.769C85.2884 34.989 85.3057 34.287 85.3404 33.663C85.3837 33.039 85.453 32.4193 85.5484 31.804L85.7304 32.285L82.7534 36.887H81.8954L79.0094 32.337L79.1524 31.804C79.2477 32.3847 79.3127 32.9827 79.3474 33.598C79.3907 34.2047 79.4124 34.9283 79.4124 35.769V39.5H78.0084ZM91.5317 39.63C90.9684 39.63 90.4527 39.474 89.9847 39.162C89.5254 38.85 89.1571 38.4253 88.8797 37.888C88.6024 37.3507 88.4637 36.744 88.4637 36.068C88.4637 35.3833 88.6024 34.7767 88.8797 34.248C89.1657 33.7107 89.5471 33.2903 90.0237 32.987C90.5091 32.6837 91.0507 32.532 91.6487 32.532C92.0041 32.532 92.3291 32.584 92.6237 32.688C92.9184 32.792 93.1741 32.9393 93.3907 33.13C93.6161 33.312 93.7981 33.5243 93.9367 33.767C94.0841 34.0097 94.1751 34.2697 94.2097 34.547L93.9107 34.443V32.675H95.2627V39.5H93.9107V37.875L94.2227 37.784C94.1707 38.018 94.0624 38.2477 93.8977 38.473C93.7417 38.6897 93.5381 38.8847 93.2867 39.058C93.0441 39.2313 92.7711 39.37 92.4677 39.474C92.1731 39.578 91.8611 39.63 91.5317 39.63ZM91.8827 38.395C92.2901 38.395 92.6497 38.2953 92.9617 38.096C93.2737 37.8967 93.5164 37.6237 93.6897 37.277C93.8717 36.9217 93.9627 36.5187 93.9627 36.068C93.9627 35.626 93.8717 35.2317 93.6897 34.885C93.5164 34.5383 93.2737 34.2653 92.9617 34.066C92.6497 33.8667 92.2901 33.767 91.8827 33.767C91.4841 33.767 91.1287 33.8667 90.8167 34.066C90.5134 34.2653 90.2707 34.5383 90.0887 34.885C89.9154 35.2317 89.8287 35.626 89.8287 36.068C89.8287 36.5187 89.9154 36.9217 90.0887 37.277C90.2707 37.6237 90.5134 37.8967 90.8167 38.096C91.1287 38.2953 91.4841 38.395 91.8827 38.395ZM100.031 39.63C99.3986 39.63 98.831 39.474 98.3283 39.162C97.8343 38.85 97.44 38.4253 97.1453 37.888C96.8593 37.3507 96.7163 36.7483 96.7163 36.081C96.7163 35.4137 96.8593 34.8113 97.1453 34.274C97.44 33.7367 97.8343 33.312 98.3283 33C98.831 32.688 99.3986 32.532 100.031 32.532C100.638 32.532 101.188 32.6577 101.682 32.909C102.185 33.1517 102.566 33.4853 102.826 33.91L102.085 34.82C101.947 34.6207 101.769 34.4387 101.552 34.274C101.336 34.1093 101.106 33.9793 100.863 33.884C100.621 33.7887 100.387 33.741 100.161 33.741C99.7453 33.741 99.3726 33.845 99.0433 34.053C98.7226 34.2523 98.467 34.5297 98.2763 34.885C98.0856 35.2403 97.9903 35.639 97.9903 36.081C97.9903 36.523 98.09 36.9217 98.2893 37.277C98.4886 37.6237 98.753 37.901 99.0823 38.109C99.4116 38.317 99.7756 38.421 100.174 38.421C100.408 38.421 100.634 38.382 100.85 38.304C101.076 38.226 101.292 38.109 101.5 37.953C101.708 37.797 101.903 37.6063 102.085 37.381L102.826 38.291C102.549 38.681 102.15 39.0017 101.63 39.253C101.119 39.5043 100.586 39.63 100.031 39.63ZM103.387 41.216L108.743 30.4H110.03L104.687 41.216H103.387ZM111.664 39.5V30.4H115.369C115.863 30.4 116.309 30.5257 116.708 30.777C117.115 31.0197 117.44 31.3533 117.683 31.778C117.925 32.2027 118.047 32.675 118.047 33.195C118.047 33.715 117.925 34.1873 117.683 34.612C117.44 35.0367 117.115 35.379 116.708 35.639C116.309 35.8903 115.863 36.016 115.369 36.016H113.068V39.5H111.664ZM113.068 34.664H115.343C115.577 34.664 115.789 34.599 115.98 34.469C116.17 34.3303 116.322 34.1527 116.435 33.936C116.556 33.7107 116.617 33.4637 116.617 33.195C116.617 32.9263 116.556 32.6837 116.435 32.467C116.322 32.2503 116.17 32.077 115.98 31.947C115.789 31.817 115.577 31.752 115.343 31.752H113.068V34.664ZM123.595 39.63C122.962 39.63 122.382 39.5173 121.853 39.292C121.324 39.0667 120.865 38.746 120.475 38.33C120.085 37.9053 119.782 37.407 119.565 36.835C119.357 36.263 119.253 35.6347 119.253 34.95C119.253 34.3 119.366 33.6977 119.591 33.143C119.825 32.5797 120.146 32.0857 120.553 31.661C120.96 31.2363 121.433 30.907 121.97 30.673C122.507 30.439 123.088 30.322 123.712 30.322C124.154 30.322 124.583 30.3913 124.999 30.53C125.424 30.66 125.805 30.8463 126.143 31.089C126.49 31.323 126.771 31.5917 126.988 31.895L126.052 32.87C125.801 32.6187 125.545 32.4107 125.285 32.246C125.034 32.0727 124.774 31.9427 124.505 31.856C124.245 31.7693 123.981 31.726 123.712 31.726C123.287 31.726 122.889 31.8083 122.516 31.973C122.152 32.129 121.831 32.35 121.554 32.636C121.285 32.922 121.073 33.2643 120.917 33.663C120.761 34.053 120.683 34.482 120.683 34.95C120.683 35.444 120.757 35.8947 120.904 36.302C121.06 36.7007 121.277 37.043 121.554 37.329C121.831 37.615 122.161 37.836 122.542 37.992C122.932 38.1393 123.361 38.213 123.829 38.213C124.115 38.213 124.397 38.174 124.674 38.096C124.951 38.018 125.211 37.9053 125.454 37.758C125.697 37.6107 125.918 37.4373 126.117 37.238L126.819 38.382C126.62 38.616 126.347 38.8283 126 39.019C125.662 39.2097 125.281 39.3613 124.856 39.474C124.44 39.578 124.02 39.63 123.595 39.63Z" fill="white"/>
</g>
</svg>
