<svg version="1.2" xmlns="http://www.w3.org/2000/svg" viewBox="0 0 1101 429" width="1101" height="429">
	<title>New Project</title>
	<defs>
		<radialGradient id="g1" cx="550" cy="232" r="191" gradientUnits="userSpaceOnUse">
			<stop offset="0" stop-color="#2d2d2d"/>
			<stop offset="1" stop-color="#2d2d2d" stop-opacity="0"/>
		</radialGradient>
		<linearGradient id="g2" x1="933.2" y1="29.6" x2="1088.7" y2="29.6" gradientUnits="userSpaceOnUse">
			<stop offset="0" stop-color="#35383e"/>
			<stop offset=".5" stop-color="#4b4f58"/>
			<stop offset="1" stop-color="#34363d"/>
		</linearGradient>
		<linearGradient id="g3" x1="-1.8" y1="29.6" x2="153.7" y2="29.6" gradientUnits="userSpaceOnUse">
			<stop offset="0" stop-color="#35383e"/>
			<stop offset=".5" stop-color="#4b4f58"/>
			<stop offset="1" stop-color="#34363d"/>
		</linearGradient>
	</defs>
	<style>
		.s0 { fill: #1b1b1b } 
		.s1 { fill: none;stroke: #2d2d2d;stroke-dasharray: 10 } 
		.s2 { fill: none;stroke: url(#g1);stroke-linecap: round;stroke-width: 6 } 
		.s3 { opacity: .2;fill: url(#g2) } 
		.s4 { opacity: .2;fill: url(#g3) } 
		.s5 { fill: #ffffff } 
	</style>
	<g id="Layer">
		<path id="Layer" class="s0" d="m0-101.6c0-8.3 6.7-15 15-15h1071c8.3 0 15 6.7 15 15v631.2c0 8.3-6.7 15-15 15h-1071c-8.3 0-15-6.7-15-15z"/>
	</g>
	<g id="Layer" style="opacity: .4">
		<path id="Layer" class="s1" d="m162 74.5h776"/>
		<path id="Layer" class="s1" d="m-1 74.5h776"/>
		<path id="Layer" class="s1" d="m325 74.5h776"/>
		<path id="Layer" class="s1" d="m162 143.5h776"/>
		<path id="Layer" class="s1" d="m0 143.5h776"/>
		<path id="Layer" class="s1" d="m324 143.5h776"/>
		<path id="Layer" class="s1" d="m162 212.5h776"/>
		<path id="Layer" class="s1" d="m-1 212.5h776"/>
		<path id="Layer" class="s1" d="m324 212.5h776"/>
		<path id="Layer" class="s1" d="m162 280.5h776"/>
		<path id="Layer " class="s1" d="m-1 280.5h776"/>
		<path id="Layer" class="s1" d="m324 280.5h776"/>
		<path id="Layer" class="s1" d="m162 349.5h776"/>
		<path id="Layer" class="s1" d="m-1 349.5h776"/>
		<path id="Layer" class="s1" d="m324 349.5h776"/>
		<path id="Layer" class="s1" d="m162 416.5h776"/>
		<path id="Layer" class="s1" d="m-4 416.5h776"/>
		<path id="Layer" class="s1" d="m325 416.5h776"/>
		<path id="Layer" class="s1" d="m768.5-16v463"/>
		<path id="Layer" class="s1" d="m847.5-16v463"/>
		<path id="Layer" class="s1" d="m914.5-16v463"/>
		<path id="Layer" class="s1" d="m989.5-16v463"/>
		<path id="Layer" class="s1" d="m1058.5-16v463"/>
		<path id="Layer" class="s1" d="m690.5-16v463"/>
		<path id="Layer" class="s1" d="m613.5-16v463"/>
		<path id="Layer" class="s1" d="m535.5-16v463"/>
		<path id="Layer" class="s1" d="m457.5-16v463"/>
		<path id="Layer" class="s1" d="m379.5-16v463"/>
		<path id="Layer" class="s1" d="m301.5-16v463"/>
		<path id="Layer" class="s1" d="m223.5-17v463"/>
		<path id="Layer" class="s1" d="m134.5-16v463"/>
		<path id="Layer" class="s1" d="m48.5-16v463"/>
	</g>
	<path id="Layer" class="s2" d="m902 104l-87.7 104.3c-3.1 3.6-8.2 4.6-12.4 2.4l-33.7-18.1c-2.5-1.4-5.3-1.6-8-0.7l-16 5.5c-2.1 0.7-4.4 0.7-6.4 0l-31.5-10.7c-5.3-1.8-10.9 1-12.7 6.3l-24.6 72.6c-1.6 4.6-6.1 7.4-10.9 6.7l-99.3-14.3c-2.4-0.3-4.8 0.2-6.9 1.5l-48.3 31.3c-3.8 2.5-8.8 2.1-12.1-0.9l-45.8-41.2c-3.9-3.5-9.9-3.4-13.6 0.3l-69.4 67.4c-1.1 1.1-2.4 1.8-3.8 2.3l-88.9 30.5c-1.6 0.5-3.3 0.7-4.9 0.4l-29.5-5.1c-2-0.3-4 0-5.9 0.8l-31.7 14.7"/>
	<path id="Layer" class="s3" d="m960 22c0-3.3 2.7-6 6-6h99c3.3 0 6 2.7 6 6v20c0 3.3-2.7 6-6 6h-99c-3.3 0-6-2.7-6-6z"/>
	<path id="Layer" class="s4" d="m25 22c0-3.3 2.7-6 6-6h99c3.3 0 6 2.7 6 6v20c0 3.3-2.7 6-6 6h-99c-3.3 0-6-2.7-6-6z"/>
	<path id="Layer" fill-rule="evenodd" class="s5" d="m311.4 224l-4.5-14h2.3l2.7 8.8q0.2 0.3 0.3 0.7 0.1 0.4 0.1 0.9 0.1 0.1 0.1 0.2 0-0.2 0.1-0.4 0.2-0.6 0.3-0.9 0.1-0.3 0.2-0.6l2.5-6.3h1.9l2.5 6.3q0.2 0.5 0.3 1 0.1 0.4 0.2 0.8 0.1-0.1 0.1-0.1 0-0.2 0-0.4 0.1-0.2 0.2-0.5 0.1-0.3 0.2-0.8l2.7-8.7h2.3l-4.5 14h-1.5l-3.5-8.5-3.5 8.5zm0.9-3.4q-0.1 0.5-0.3 1.2h0.6q-0.1-0.2-0.2-0.6 0-0.3-0.1-0.6zm8.1-0.1q0 0.2-0.1 0.4 0 0.3-0.1 0.9l0.5-0.2q-0.1-0.5-0.3-1 0 0 0-0.1zm-4.1-5l0.1-0.2-0.2-0.1zm15.9 8.7q-1.7 0-2.9-0.6-1.3-0.7-2-1.9-0.7-1.2-0.7-2.8 0-1.2 0.4-2.3 0.4-1 1.1-1.7 0.7-0.8 1.7-1.2 1-0.4 2.2-0.4 1 0 1.9 0.4 0.9 0.4 1.5 1.1 0.7 0.6 1 1.6 0.4 0.9 0.3 2v0.9h-8q0.1 0.8 0.4 1.4 0.5 0.8 1.3 1.2 0.9 0.5 2 0.5 0.7 0 1.4-0.3 0.7-0.3 1.5-0.9l1 1.4q-0.5 0.5-1.2 0.9-0.7 0.3-1.4 0.5-0.8 0.2-1.5 0.2zm-3.5-4.9q0-0.3 0-0.5 0-0.6 0.1-1.2h-1.1l0.4 1.7zm6-1.7v0.4l0.3-0.4zm0-0.1q-0.1-0.7-0.4-1.2-0.4-0.5-1-0.8-0.6-0.3-1.3-0.3-1 0-1.8 0.4-0.7 0.4-1.1 1.2-0.2 0.4-0.3 0.8h5.9zm3.6-2.3l0.5-5.1h2.4l-1.7 5.1zm4.8 8.9v-10.5h2.1v1.9q0.2-0.4 0.6-0.8 0.5-0.6 1.2-1 0.7-0.3 1.4-0.3 0.4 0 0.7 0 0.3 0.1 0.5 0.2l-0.6 2.2q-0.2-0.1-0.5-0.2-0.3 0-0.6 0-0.5 0-1 0.2-0.5 0.2-0.9 0.6-0.3 0.3-0.6 0.8-0.2 0.5-0.2 1.1v5.8zm2.1-8.6q-0.1 0.3-0.2 0.6l0.2 0.8zm10.4 8.7q-1.6 0-2.8-0.7-1.3-0.7-2-1.9-0.7-1.2-0.7-2.7 0-1.3 0.4-2.3 0.4-1 1.1-1.7 0.7-0.8 1.7-1.2 1-0.4 2.2-0.4 1 0 1.9 0.4 0.8 0.4 1.5 1 0.6 0.7 1 1.7 0.3 0.9 0.3 2v0.9h-8q0.1 0.7 0.4 1.4 0.5 0.8 1.3 1.2 0.8 0.4 1.9 0.4 0.8 0 1.5-0.2 0.7-0.3 1.4-1l1.1 1.5q-0.5 0.5-1.2 0.8-0.7 0.4-1.5 0.6-0.7 0.2-1.5 0.2zm-3.4-4.9q-0.1-0.3-0.1-0.6 0-0.6 0.1-1.1h-1l0.4 1.7zm6-1.7v0.4l0.3-0.4zm0-0.1q-0.1-0.7-0.5-1.2-0.3-0.5-0.9-0.8-0.6-0.3-1.3-0.3-1.1 0-1.8 0.4-0.7 0.4-1.1 1.2-0.2 0.4-0.3 0.8h5.9zm14.6 6.8q-1.5 0-2.7-0.7-1.2-0.8-1.9-2-0.7-1.2-0.7-2.8 0-1.6 0.7-2.8 0.7-1.2 1.9-1.9 1.2-0.8 2.7-0.8 1.6 0 2.8 0.8 1.2 0.7 1.9 1.9 0.7 1.2 0.7 2.8 0 1.6-0.7 2.8-0.7 1.2-1.9 2-1.2 0.7-2.8 0.7zm0-1.9q1 0 1.7-0.5 0.8-0.5 1.2-1.3 0.4-0.8 0.4-1.8 0-1-0.4-1.8-0.4-0.9-1.2-1.3-0.7-0.5-1.7-0.5-0.9 0-1.7 0.5-0.7 0.5-1.1 1.3-0.4 0.8-0.4 1.8 0 1 0.4 1.8 0.4 0.8 1.1 1.3 0.8 0.5 1.7 0.5zm7.6 6.1v-14.9h2.1v1.5q0.1-0.3 0.4-0.5 0.5-0.5 1.3-0.9 0.8-0.3 1.7-0.3 1.4 0 2.5 0.7 1.1 0.7 1.8 1.9 0.6 1.2 0.6 2.8 0 1.6-0.6 2.8-0.7 1.2-1.8 1.9-1.1 0.7-2.4 0.7-1 0-1.8-0.3-0.9-0.4-1.5-1-0.1-0.1-0.2-0.2v5.8zm2.1-13.4q-0.3 0.3-0.3 0.7l0.3 0.2zm0 7.6v-1.3l-0.5 0.3q0.1 0.5 0.5 1zm3.1-0.4q0.9 0 1.6-0.4 0.8-0.5 1.2-1.3 0.4-0.8 0.4-1.8 0-1-0.4-1.8-0.4-0.8-1.1-1.3-0.8-0.4-1.7-0.4-0.9 0-1.7 0.4-0.7 0.5-1.1 1.3-0.4 0.8-0.4 1.8 0 1 0.4 1.8 0.4 0.8 1.1 1.3 0.8 0.4 1.7 0.4zm8.7-11.4h2.1v2.7h2.4v2h-2.4v8.5h-2.1v-8.5h-2.2v-2h2.2zm6.7 2.6h2.1v10.5h-2.1zm1-2.3q-0.6 0-1-0.3-0.3-0.4-0.3-1 0-0.6 0.3-0.9 0.4-0.4 1-0.4 0.7 0 1.1 0.4 0.3 0.3 0.3 0.9 0 0.6-0.4 1-0.3 0.3-1 0.3zm4.2 12.8v-10.5h2.1v1.7q0.1-0.1 0.1-0.2 0.4-0.5 0.9-0.8 0.5-0.4 1.1-0.6 0.6-0.2 1.2-0.2 0.9 0 1.6 0.3 0.7 0.3 1.1 0.9 0.3 0.4 0.5 1 0.2-0.5 0.6-0.8 0.4-0.4 0.9-0.8 0.5-0.3 1-0.5 0.6-0.1 1.1-0.1 1.2 0 2 0.4 0.7 0.5 1.1 1.5 0.4 1 0.4 2.4v6.3h-2.1v-6.1q0-0.9-0.2-1.5-0.2-0.6-0.7-0.9-0.4-0.2-1.2-0.2-0.5 0-1 0.2-0.5 0.1-0.9 0.5-0.3 0.3-0.5 0.8-0.2 0.4-0.2 1v6.2h-2.1v-6.2q0-0.8-0.2-1.4-0.3-0.5-0.7-0.8-0.5-0.3-1.2-0.3-0.5 0-1 0.2-0.5 0.1-0.8 0.5-0.4 0.3-0.6 0.8-0.2 0.4-0.2 0.9v6.3zm2.1-8.8q-0.3 0.4-0.4 0.8l0.4-0.2zm6.5 0.3q0 0.1-0.1 0.1l-0.1 0.4h0.3q0-0.2-0.1-0.5zm10.2-2h2.1v10.5h-2.1zm1-2.3q-0.7 0-1-0.3-0.4-0.4-0.4-1 0-0.6 0.4-0.9 0.4-0.4 1-0.4 0.7 0 1 0.3 0.4 0.4 0.4 1 0 0.6-0.4 0.9-0.4 0.4-1 0.4zm7.7 13q-1.3 0-2.4-0.4-1-0.5-1.7-1.4l1.4-1.2q0.6 0.7 1.3 1 0.7 0.3 1.6 0.3 0.4 0 0.7-0.1 0.3-0.1 0.5-0.2 0.2-0.2 0.4-0.5 0.1-0.2 0.1-0.5 0-0.5-0.4-0.9-0.2-0.1-0.6-0.3-0.5-0.1-1.1-0.3-1.2-0.3-1.9-0.7-0.8-0.4-1.2-0.9-0.3-0.3-0.4-0.8-0.2-0.4-0.2-1 0-0.6 0.3-1.2 0.3-0.5 0.8-0.9 0.5-0.5 1.2-0.7 0.7-0.2 1.5-0.2 0.7 0 1.5 0.2 0.7 0.2 1.3 0.6 0.6 0.4 1.1 0.9l-1.2 1.3q-0.4-0.4-0.9-0.7-0.4-0.3-0.9-0.4-0.4-0.2-0.8-0.2-0.4 0-0.8 0.1-0.3 0.1-0.5 0.2-0.3 0.2-0.4 0.4-0.1 0.3-0.1 0.6 0 0.2 0.1 0.5 0.1 0.2 0.3 0.3 0.3 0.2 0.7 0.4 0.4 0.2 1.1 0.3 1 0.3 1.7 0.6 0.6 0.3 1 0.7 0.4 0.4 0.6 0.9 0.1 0.5 0.1 1.1 0 0.9-0.5 1.6-0.5 0.7-1.4 1.1-0.8 0.4-1.9 0.4zm6.4-10.7h2.1v10.5h-2.1zm1-2.3q-0.6 0-1-0.3-0.3-0.4-0.3-1 0-0.6 0.3-0.9 0.4-0.4 1-0.4 0.7 0 1.1 0.3 0.3 0.4 0.3 1 0 0.6-0.4 0.9-0.3 0.4-1 0.4zm4.3 12.8v-10.5h2v1.7q0.2-0.3 0.4-0.6 0.6-0.6 1.4-0.9 0.8-0.4 1.7-0.4 1.2 0 2 0.5 0.8 0.4 1.2 1.4 0.4 1 0.4 2.4v6.4h-2.1v-6.2q0-0.9-0.2-1.5-0.3-0.6-0.8-0.9-0.5-0.3-1.2-0.2-0.6 0-1.1 0.2-0.5 0.2-0.9 0.5-0.4 0.3-0.6 0.8-0.2 0.4-0.2 1v6.3c-0.2 0-1.3 0-1.5 0q-0.3 0-0.5 0zm2-8.8q-0.2 0.3-0.3 0.7l0.3-0.2zm14.6 13.5q-1.2 0-2.3-0.4-1.1-0.3-1.8-0.9l0.8-1.6q0.4 0.3 0.9 0.5 0.6 0.3 1.2 0.4 0.6 0.1 1.2 0.1 1.1 0 1.8-0.3 0.7-0.4 1.1-1.1 0.4-0.7 0.4-1.7v-1.3q-0.2 0.3-0.4 0.6-0.6 0.5-1.4 0.9-0.8 0.4-1.7 0.4-1.5 0-2.7-0.7-1.1-0.8-1.8-2-0.7-1.2-0.7-2.8 0-1.6 0.7-2.8 0.7-1.2 1.8-1.9 1.2-0.8 2.7-0.8 0.6 0 1.1 0.2 0.6 0.1 1.1 0.4 0.4 0.3 0.8 0.6 0.3 0.2 0.5 0.5v-1.4h2.1v9.8q0 1.3-0.4 2.2-0.4 1-1.1 1.7-0.7 0.7-1.7 1-1 0.4-2.2 0.4zm3.3-6.3q0.2-0.3 0.2-0.6l-0.2-0.2zm0-7.4v1.1l0.4-0.2q0-0.3-0.3-0.7 0-0.1-0.1-0.2zm-3.3 7.4q1 0 1.8-0.5 0.7-0.4 1.2-1.2 0.4-0.8 0.4-1.9 0-1-0.5-1.8-0.4-0.8-1.1-1.3-0.8-0.4-1.8-0.4-0.9 0-1.7 0.4-0.7 0.5-1.2 1.3-0.4 0.8-0.4 1.8 0 1.1 0.4 1.9 0.5 0.8 1.2 1.2 0.8 0.5 1.7 0.5zm18.5 6.3q-1.1 0-2.2-0.4-1.1-0.3-1.8-0.9l0.8-1.6q0.4 0.3 0.9 0.6 0.6 0.2 1.2 0.3 0.6 0.2 1.1 0.2 1.1 0 1.9-0.4 0.7-0.4 1.1-1.1 0.4-0.7 0.4-1.7v-1.3q-0.2 0.3-0.5 0.6-0.5 0.6-1.3 0.9-0.8 0.4-1.7 0.4-1.5 0-2.7-0.7-1.1-0.7-1.8-1.9-0.7-1.3-0.7-2.9 0-1.5 0.7-2.8 0.6-1.2 1.8-1.9 1.2-0.7 2.6-0.7 0.6 0 1.2 0.1 0.6 0.2 1 0.5 0.5 0.2 0.9 0.5 0.3 0.3 0.5 0.5v-1.4h2v9.9q0 1.2-0.3 2.2-0.4 1-1.1 1.6-0.7 0.7-1.7 1-1 0.4-2.3 0.4zm3.4-6.3q0.2-0.3 0.2-0.6l-0.2-0.1zm0-7.4v1l0.4-0.2q0-0.3-0.3-0.6 0-0.1-0.1-0.2zm-3.3 7.3q1 0 1.8-0.4 0.7-0.5 1.1-1.3 0.5-0.8 0.5-1.8 0-1.1-0.5-1.9-0.4-0.8-1.2-1.2-0.7-0.5-1.7-0.5-0.9 0-1.7 0.5-0.7 0.4-1.2 1.3-0.4 0.8-0.4 1.8 0 1 0.4 1.8 0.5 0.8 1.2 1.3 0.8 0.4 1.7 0.4zm8.2 1.7v-10.5h2.1v2q0.2-0.4 0.6-0.8 0.5-0.7 1.2-1 0.7-0.4 1.4-0.4 0.4 0 0.7 0.1 0.3 0 0.5 0.1l-0.6 2.3q-0.2-0.1-0.5-0.2-0.3-0.1-0.6-0.1-0.5 0-1 0.2-0.5 0.2-0.9 0.6-0.3 0.4-0.6 0.9-0.2 0.5-0.2 1v5.8zm2.1-8.5q-0.1 0.3-0.2 0.5l0.2 0.8zm9.6 8.8q-1.3 0-2.4-0.7-1.1-0.8-1.7-2-0.6-1.2-0.6-2.8 0-1.6 0.6-2.8 0.7-1.2 1.8-1.9 1.1-0.7 2.5-0.7 0.8 0 1.5 0.2 0.6 0.2 1.1 0.7 0.5 0.4 0.8 0.9v-1.6h2.1v10.5h-2.1v-1.6q0 0 0 0-0.3 0.5-0.9 0.9-0.6 0.4-1.3 0.6-0.7 0.3-1.4 0.3zm3.6-9.1v1.1l0.5 0.2q-0.1-0.7-0.4-1.2 0-0.1-0.1-0.1zm0 7.3q0.4-0.5 0.5-1.1l-0.5 0.2zm-3.1-0.1q1 0 1.7-0.5 0.7-0.4 1.1-1.2 0.4-0.9 0.4-1.9 0-1-0.4-1.8-0.4-0.8-1.1-1.3-0.7-0.4-1.7-0.4-0.9 0-1.6 0.4-0.7 0.5-1.1 1.3-0.4 0.8-0.4 1.8 0 1 0.4 1.9 0.4 0.8 1.1 1.2 0.7 0.5 1.6 0.5zm8.1 6.1v-14.9h2.1v1.5q0.1-0.2 0.3-0.4 0.6-0.6 1.4-0.9 0.8-0.4 1.7-0.4 1.4 0 2.5 0.7 1.1 0.7 1.7 1.9 0.7 1.2 0.7 2.8 0 1.6-0.7 2.8-0.6 1.2-1.7 2-1.1 0.7-2.5 0.7-0.9 0-1.7-0.4-0.9-0.4-1.5-1-0.1-0.1-0.2-0.2v5.8zm2.1-13.4q-0.3 0.3-0.4 0.7l0.4 0.2zm0 7.6v-1.2l-0.6 0.2q0.1 0.5 0.6 1zm3.1-0.3q0.9 0 1.6-0.5 0.7-0.5 1.2-1.3 0.4-0.8 0.4-1.8 0-1-0.4-1.8-0.4-0.8-1.2-1.2-0.7-0.5-1.6-0.5-1 0-1.7 0.5-0.7 0.4-1.1 1.2-0.4 0.8-0.4 1.8 0 1 0.4 1.8 0.4 0.8 1.1 1.3 0.7 0.5 1.7 0.5zm7.4 1.7v-14.8h2v5.9q0.2-0.3 0.5-0.5 0.5-0.6 1.3-1 0.8-0.3 1.7-0.3 1.2 0 2 0.4 0.8 0.5 1.2 1.5 0.4 0.9 0.4 2.4v6.4h-2.1v-6.3q0-0.9-0.2-1.5-0.3-0.6-0.8-0.8-0.5-0.3-1.2-0.3-0.6 0-1.1 0.2-0.5 0.2-0.9 0.6-0.3 0.3-0.6 0.8-0.2 0.4-0.2 0.9v6.4c-0.1 0-1.3 0-1.5 0q-0.3 0-0.5 0zm2-8.9q-0.2 0.4-0.3 0.8l0.3-0.3zm13.4 9.1q-1.3 0-2.4-0.4-1.1-0.5-1.8-1.4l1.4-1.2q0.6 0.7 1.3 1 0.8 0.3 1.7 0.3 0.3 0 0.6-0.1 0.3-0.1 0.6-0.2 0.2-0.2 0.3-0.5 0.1-0.2 0.1-0.5 0-0.5-0.3-0.9-0.2-0.1-0.7-0.3-0.4-0.1-1.1-0.3-1.1-0.3-1.9-0.7-0.7-0.4-1.1-0.9-0.3-0.3-0.5-0.8-0.1-0.4-0.1-1 0-0.6 0.3-1.2 0.3-0.5 0.8-0.9 0.5-0.5 1.2-0.7 0.7-0.2 1.5-0.2 0.7 0 1.4 0.2 0.8 0.2 1.4 0.6 0.6 0.4 1 0.9l-1.2 1.3q-0.3-0.4-0.8-0.7-0.4-0.3-0.9-0.4-0.5-0.2-0.8-0.2-0.5 0-0.8 0.1-0.3 0.1-0.6 0.2-0.2 0.2-0.3 0.4-0.1 0.3-0.1 0.6 0 0.2 0.1 0.5 0.1 0.2 0.3 0.3 0.2 0.2 0.7 0.4 0.4 0.2 1.1 0.3 1 0.3 1.6 0.6 0.7 0.3 1.1 0.7 0.4 0.4 0.5 0.9 0.2 0.5 0.2 1.1 0 0.9-0.5 1.6-0.5 0.7-1.4 1.1-0.9 0.4-1.9 0.4zm6.4 3.4l-0.8-0.9q0.7-0.4 1.2-0.9 0.4-0.6 0.4-0.9 0-0.2-0.1-0.4-0.1-0.2-0.4-0.6-0.4-0.3-0.5-0.6-0.2-0.3-0.2-0.6 0-0.4 0.4-0.7 0.3-0.3 0.9-0.3 0.5 0 0.9 0.3 0.4 0.3 0.6 0.8 0.2 0.5 0.2 1.1 0 0.6-0.2 1.2-0.2 0.6-0.5 1-0.4 0.5-0.9 0.9-0.4 0.4-1 0.6zm10.6 0.8v-14.9h2.1v1.5q0.1-0.2 0.3-0.4 0.6-0.6 1.4-0.9 0.8-0.4 1.7-0.4 1.4 0 2.5 0.7 1.1 0.7 1.7 2 0.7 1.2 0.7 2.8 0 1.5-0.7 2.8-0.6 1.2-1.7 1.9-1.1 0.7-2.5 0.7-0.9 0-1.7-0.4-0.9-0.3-1.5-0.9-0.1-0.1-0.2-0.3v5.8zm2.1-13.4q-0.3 0.4-0.4 0.7l0.4 0.2zm0 7.6v-1.2l-0.6 0.3q0.1 0.5 0.6 0.9zm3.1-0.3q0.9 0 1.6-0.5 0.7-0.4 1.2-1.2 0.4-0.8 0.4-1.8 0-1.1-0.4-1.8-0.4-0.8-1.2-1.3-0.7-0.5-1.6-0.5-1 0-1.7 0.5-0.7 0.4-1.1 1.2-0.4 0.8-0.4 1.9 0 1 0.4 1.8 0.4 0.8 1.1 1.2 0.7 0.5 1.7 0.5zm7.4-13.1h2.1v14.8h-2.1zm9.7 15q-1.6 0-2.9-0.7-1.2-0.7-1.9-1.9-0.7-1.2-0.7-2.7 0-1.3 0.4-2.3 0.4-1 1.1-1.7 0.7-0.8 1.7-1.2 1-0.4 2.1-0.4 1.1 0 1.9 0.4 0.9 0.4 1.6 1 0.6 0.7 1 1.7 0.3 0.9 0.3 2v0.9h-8.1q0.1 0.7 0.5 1.4 0.4 0.8 1.3 1.2 0.8 0.4 1.9 0.4 0.8 0 1.5-0.2 0.6-0.3 1.4-1l1.1 1.5q-0.5 0.5-1.2 0.8-0.7 0.4-1.5 0.6-0.7 0.2-1.5 0.2zm-3.5-4.9q0-0.3 0-0.6 0-0.6 0.1-1.1h-1.1l0.5 1.7zm5.9-1.7v0.4l0.3-0.4zm0-0.1q0-0.7-0.4-1.2-0.4-0.5-1-0.8-0.5-0.3-1.2-0.3-1.1 0-1.8 0.4-0.8 0.4-1.2 1.2-0.1 0.4-0.2 0.8h5.8zm8.4 6.8q-1.3 0-2.4-0.8-1-0.7-1.7-1.9-0.6-1.3-0.6-2.8 0-1.6 0.6-2.8 0.7-1.3 1.8-2 1.1-0.7 2.5-0.7 0.8 0 1.5 0.3 0.7 0.2 1.2 0.7 0.5 0.4 0.8 0.9v-1.6h2.1v10.5h-2.1v-1.6q0 0 0 0-0.4 0.5-1 0.9-0.5 0.4-1.2 0.6-0.7 0.3-1.5 0.3zm3.7-9.1v1.1l0.4 0.1q0-0.6-0.4-1.2 0 0 0 0zm0 7.3q0.3-0.6 0.5-1.1l-0.5 0.2zm-3.1-0.1q0.9 0 1.6-0.5 0.7-0.5 1.1-1.3 0.5-0.8 0.5-1.8 0-1-0.5-1.8-0.4-0.8-1.1-1.3-0.7-0.5-1.6-0.5-1 0-1.7 0.5-0.7 0.5-1.1 1.3-0.4 0.8-0.4 1.8 0 1 0.4 1.8 0.4 0.8 1.1 1.3 0.7 0.5 1.7 0.5zm11.5 1.9q-1.3 0-2.3-0.5-1.1-0.5-1.8-1.4l1.4-1.2q0.6 0.7 1.3 1.1 0.7 0.3 1.6 0.3 0.4 0 0.7-0.1 0.3-0.1 0.5-0.3 0.3-0.2 0.4-0.4 0.1-0.3 0.1-0.6 0-0.5-0.4-0.8-0.2-0.2-0.6-0.3-0.4-0.2-1.1-0.4-1.2-0.3-1.9-0.7-0.8-0.3-1.2-0.8-0.3-0.4-0.4-0.8-0.1-0.5-0.1-1 0-0.7 0.2-1.2 0.3-0.6 0.8-1 0.6-0.4 1.2-0.6 0.7-0.3 1.5-0.3 0.8 0 1.5 0.2 0.7 0.2 1.3 0.6 0.7 0.4 1.1 0.9l-1.2 1.3q-0.4-0.4-0.8-0.6-0.5-0.3-0.9-0.5-0.5-0.2-0.9-0.2-0.4 0-0.7 0.1-0.4 0.1-0.6 0.3-0.2 0.1-0.4 0.4-0.1 0.2-0.1 0.5 0 0.3 0.1 0.5 0.2 0.2 0.4 0.4 0.2 0.1 0.6 0.3 0.5 0.2 1.1 0.4 1 0.2 1.7 0.5 0.6 0.3 1 0.7 0.4 0.4 0.6 0.9 0.1 0.5 0.1 1.1 0 0.9-0.5 1.7-0.5 0.7-1.3 1.1-0.9 0.4-2 0.4zm11 0q-1.6 0-2.9-0.7-1.2-0.7-1.9-1.9-0.7-1.2-0.7-2.8 0-1.2 0.4-2.2 0.4-1.1 1.1-1.8 0.7-0.8 1.7-1.2 1-0.4 2.1-0.4 1 0 1.9 0.4 0.9 0.4 1.5 1.1 0.7 0.7 1 1.6 0.4 0.9 0.4 2v0.9h-8.1q0.1 0.8 0.5 1.4 0.4 0.8 1.3 1.2 0.8 0.5 1.9 0.5 0.8 0 1.4-0.3 0.7-0.2 1.5-0.9l1 1.4q-0.4 0.5-1.1 0.9-0.7 0.3-1.5 0.6-0.8 0.2-1.5 0.2zm-3.5-5q0-0.2 0-0.5 0-0.6 0.1-1.1h-1.1l0.5 1.6zm5.9-1.6v0.3l0.3-0.3zm0-0.2q0-0.6-0.4-1.2-0.4-0.5-1-0.8-0.5-0.3-1.2-0.3-1.1 0-1.8 0.4-0.8 0.4-1.2 1.2-0.1 0.4-0.2 0.9h5.8zm14.4 6.7q-1.4 0-2.6-0.7-1.1-0.7-1.8-2-0.7-1.2-0.7-2.8 0-1.5 0.7-2.7 0.7-1.3 1.8-2 1.2-0.7 2.6-0.7 1.4 0 2.6 0.6 1.1 0.5 1.7 1.5l-1.1 1.4q-0.3-0.5-0.8-0.8-0.5-0.4-1.1-0.6-0.5-0.3-1.1-0.3-0.9 0-1.7 0.5-0.7 0.5-1.2 1.3-0.4 0.8-0.4 1.8 0 1.1 0.5 1.9 0.4 0.8 1.2 1.3 0.7 0.4 1.7 0.4 0.5 0 1-0.1 0.5-0.2 1-0.6 0.5-0.3 0.9-0.9l1.1 1.4q-0.6 0.9-1.8 1.5-1.2 0.6-2.5 0.6zm6.3-0.2v-14.8h2v5.9q0.2-0.2 0.5-0.5 0.6-0.6 1.3-0.9 0.9-0.4 1.7-0.4 1.2 0 2 0.5 0.8 0.4 1.2 1.4 0.4 0.9 0.4 2.4v6.4h-2.1v-6.3q0-0.9-0.2-1.4-0.2-0.6-0.8-0.9-0.4-0.3-1.2-0.2-0.6 0-1.1 0.2-0.5 0.1-0.9 0.5-0.3 0.3-0.6 0.8-0.2 0.4-0.2 0.9v6.4c-0.1 0-1.3 0-1.5 0q-0.2 0-0.5 0zm2-8.9q-0.2 0.4-0.3 0.8l0.3-0.2zm14.8 9q-1.6 0-2.9-0.6-1.2-0.7-2-1.9-0.7-1.2-0.7-2.8 0-1.2 0.4-2.3 0.4-1 1.1-1.7 0.8-0.8 1.7-1.2 1-0.4 2.2-0.4 1 0 1.9 0.4 0.9 0.4 1.5 1.1 0.7 0.6 1 1.6 0.4 0.9 0.4 2l-0.1 0.9h-8q0.1 0.8 0.4 1.4 0.5 0.8 1.3 1.2 0.9 0.5 2 0.5 0.8 0 1.4-0.3 0.7-0.3 1.5-0.9l1 1.4q-0.5 0.5-1.2 0.9-0.6 0.3-1.4 0.5-0.8 0.2-1.5 0.2zm-3.5-4.9q0-0.3 0-0.5 0-0.7 0.1-1.2h-1.1l0.5 1.7zm5.9-1.7v0.4l0.3-0.4zm0-0.1q0-0.7-0.4-1.2-0.4-0.5-1-0.8-0.6-0.3-1.2-0.3-1.1 0-1.9 0.4-0.7 0.4-1.1 1.2-0.2 0.4-0.3 0.8h5.9zm8.8 6.8q-1.4 0-2.6-0.7-1.1-0.8-1.8-2-0.7-1.2-0.7-2.8 0-1.5 0.7-2.8 0.7-1.2 1.8-1.9 1.2-0.7 2.6-0.7 1.4 0 2.6 0.5 1.1 0.6 1.7 1.6l-1.1 1.4q-0.3-0.5-0.8-0.9-0.5-0.3-1.1-0.6-0.6-0.2-1.1-0.2-0.9 0-1.7 0.5-0.7 0.5-1.2 1.3-0.4 0.8-0.4 1.8 0 1 0.4 1.9 0.5 0.8 1.3 1.2 0.7 0.5 1.6 0.5 0.6 0 1.1-0.2 0.5-0.1 1-0.5 0.5-0.4 0.9-0.9l1.1 1.4q-0.6 0.9-1.8 1.5-1.2 0.6-2.5 0.6zm13.1-10.7h2.7l-4.9 4.6 5.1 5.9h-2.7l-3.8-4.5-1.2 1v3.5h-2v-14.8h2v9zm15.7 10.7q-0.7 0-1.3-0.2-0.7-0.3-1.3-0.6-0.5-0.4-0.8-0.8v1.3h-2.1v-14.7h2.1v5.8q0-0.1 0.1-0.2 0.3-0.4 0.8-0.8 0.6-0.3 1.2-0.5 0.6-0.2 1.3-0.2 1.4 0 2.5 0.7 1.1 0.7 1.7 1.9 0.7 1.2 0.7 2.8 0 1.6-0.7 2.8-0.6 1.3-1.7 2-1.1 0.7-2.5 0.7zm-3.4-1.6v-1.2l-0.6 0.2q0.2 0.5 0.5 1 0 0 0.1 0zm0-7.6q-0.3 0.3-0.4 0.7l0.4 0.2zm3.1 7.3q0.9 0 1.6-0.5 0.7-0.4 1.2-1.2 0.4-0.9 0.4-1.9 0-1-0.4-1.8-0.4-0.8-1.2-1.3-0.7-0.5-1.6-0.5-1 0-1.7 0.5-0.7 0.5-1.1 1.3-0.4 0.8-0.4 1.8 0 1 0.4 1.9 0.4 0.8 1.1 1.2 0.7 0.5 1.7 0.5zm11.4 1.9q-1.3 0-2.4-0.7-1-0.8-1.7-2-0.6-1.2-0.6-2.8 0-1.6 0.6-2.8 0.7-1.2 1.8-1.9 1.1-0.7 2.5-0.7 0.8 0 1.5 0.2 0.7 0.2 1.2 0.7 0.5 0.4 0.8 0.9v-1.6h2.1v10.5h-2.1v-1.6q0 0 0 0-0.4 0.5-1 0.9-0.5 0.4-1.2 0.6-0.7 0.3-1.5 0.3zm3.7-9.1v1.1l0.4 0.2q0-0.7-0.4-1.2 0-0.1 0-0.1zm0 7.3q0.4-0.5 0.5-1.1l-0.5 0.2zm-3.1-0.1q0.9 0 1.6-0.5 0.7-0.4 1.1-1.2 0.5-0.9 0.5-1.9 0-1-0.5-1.8-0.4-0.8-1.1-1.3-0.7-0.4-1.6-0.4-1 0-1.7 0.4-0.7 0.5-1.1 1.3-0.4 0.8-0.4 1.8 0 1 0.4 1.9 0.4 0.8 1.1 1.2 0.7 0.5 1.7 0.5zm12.5 1.9q-1.5 0-2.6-0.7-1.2-0.8-1.8-2-0.7-1.2-0.7-2.8 0-1.5 0.7-2.8 0.6-1.2 1.8-1.9 1.1-0.7 2.6-0.7 1.4 0 2.5 0.5 1.2 0.6 1.8 1.6l-1.1 1.4q-0.4-0.5-0.9-0.9-0.5-0.3-1-0.6-0.6-0.2-1.1-0.2-1 0-1.7 0.5-0.8 0.5-1.2 1.3-0.4 0.8-0.4 1.8 0 1 0.4 1.9 0.5 0.8 1.2 1.2 0.8 0.5 1.7 0.5 0.6 0 1.1-0.2 0.5-0.1 1-0.5 0.4-0.4 0.9-0.9l1.1 1.4q-0.6 0.9-1.8 1.5-1.2 0.6-2.5 0.6zm13-10.7h2.8l-4.9 4.6 5.1 5.9h-2.7l-3.8-4.5-1.2 1v3.5h-2.1v-14.8h2.1v9zm10.2-4.3h2.1v14.8h-2.1zm8.8 15q-1.3 0-2.3-0.7-1.1-0.7-1.7-2-0.7-1.2-0.7-2.8 0-1.6 0.7-2.8 0.6-1.2 1.7-1.9 1.1-0.7 2.5-0.7 0.8 0 1.5 0.2 0.7 0.3 1.2 0.7 0.5 0.4 0.8 0.9v-1.6h2.1v10.5h-2.1v-1.6q0 0 0 0-0.4 0.5-1 0.9-0.5 0.4-1.2 0.7-0.7 0.2-1.5 0.2zm3.7-9.1v1.1l0.5 0.2q-0.1-0.7-0.5-1.2 0-0.1 0-0.1zm0 7.3q0.4-0.5 0.5-1l-0.5 0.1zm-3.1-0.1q0.9 0 1.6-0.5 0.8-0.4 1.2-1.2 0.4-0.8 0.4-1.9 0-1-0.4-1.8-0.4-0.8-1.2-1.3-0.7-0.4-1.6-0.4-0.9 0-1.7 0.4-0.7 0.5-1.1 1.3-0.4 0.8-0.4 1.8 0 1.1 0.4 1.9 0.4 0.8 1.1 1.2 0.8 0.5 1.7 0.5zm9.4-11.5h2v2.7h2.5v2h-2.5v8.5h-2v-8.5h-2.2v-2h2.2zm11.1 13.4q-1.6 0-2.8-0.7-1.3-0.7-2-1.9-0.7-1.2-0.7-2.8 0-1.2 0.4-2.2 0.4-1 1.1-1.8 0.7-0.7 1.7-1.1 1-0.5 2.2-0.5 1 0 1.9 0.4 0.8 0.4 1.5 1.1 0.6 0.7 1 1.6 0.3 0.9 0.3 2v0.9h-8q0.1 0.8 0.4 1.4 0.5 0.8 1.3 1.3 0.8 0.4 1.9 0.4 0.8 0 1.5-0.3 0.7-0.2 1.4-0.9l1.1 1.5q-0.5 0.4-1.2 0.8-0.7 0.4-1.5 0.6-0.7 0.2-1.5 0.2zm-3.4-5q-0.1-0.2-0.1-0.5 0-0.6 0.1-1.1h-1l0.4 1.6zm6-1.6v0.3l0.3-0.3zm0-0.2q-0.1-0.6-0.5-1.1-0.3-0.6-0.9-0.9-0.6-0.3-1.3-0.3-1.1 0-1.8 0.5-0.7 0.4-1.1 1.2-0.2 0.3-0.3 0.8h5.9zm4.3 6.5v-10.5h2.1v2q0.2-0.5 0.5-0.9 0.6-0.6 1.3-0.9 0.7-0.4 1.4-0.4 0.3 0 0.6 0.1 0.4 0 0.5 0.1l-0.5 2.2q-0.2-0.1-0.5-0.1-0.3-0.1-0.6-0.1-0.5 0-1 0.2-0.5 0.2-0.9 0.6-0.4 0.4-0.6 0.9-0.2 0.4-0.2 1v5.8zm2.1-8.5q-0.1 0.2-0.2 0.5l0.2 0.8zm4.5 8.8q-0.6 0-1-0.4-0.4-0.4-0.4-1.1 0-0.7 0.4-1.1 0.4-0.4 1-0.4 0.7 0 1 0.4 0.4 0.4 0.4 1.1 0 0.6-0.4 1.1-0.4 0.4-1 0.4zm4.6 0q-0.7 0-1.1-0.4-0.3-0.4-0.3-1.1 0-0.7 0.4-1.1 0.3-0.4 1-0.4 0.6 0 1 0.4 0.3 0.4 0.3 1.1 0 0.6-0.3 1.1-0.4 0.4-1 0.4zm4.5 0q-0.6 0-1-0.4-0.4-0.4-0.4-1.1 0-0.7 0.4-1.1 0.4-0.4 1-0.4 0.7 0 1 0.4 0.4 0.4 0.4 1.1 0 0.6-0.4 1.1-0.4 0.4-1 0.4z"/>
</svg>