<svg width="24" height="23" viewBox="0 0 24 23" fill="none" xmlns="http://www.w3.org/2000/svg">
<path fill-rule="evenodd" clip-rule="evenodd" d="M10.6755 1.6024C10.0639 1.76684 9.4091 2.17554 8.92741 2.52604C8.6793 2.70658 8.46139 2.88334 8.29819 3.02642C8.24604 3.07213 8.19809 3.11563 8.15562 3.15572C7.96427 3.08142 7.76784 3.02039 7.57298 2.98383C6.80477 2.83969 5.99332 2.86165 5.18979 3.07769C2.3236 3.8483 0.624798 6.79651 1.39541 9.6627C2.16602 12.5289 5.11423 14.2277 7.98042 13.4571C8.58677 13.294 9.25333 12.8917 9.74254 12.5512C9.99445 12.3758 10.2152 12.2056 10.3778 12.0708C10.4338 12.0243 10.4849 11.9805 10.529 11.9408C11.4538 12.2186 12.4651 12.2509 13.4662 11.9818C16.3324 11.2112 18.0312 8.26296 17.2606 5.39678C16.4899 2.53059 13.5417 0.831788 10.6755 1.6024ZM9.41652 11.4648C9.34711 11.4254 9.27858 11.3844 9.21098 11.3419L7.82673 10.5426C7.63685 10.6406 7.43249 10.7062 7.25375 10.7543C5.88026 11.1236 4.46747 10.3095 4.09819 8.93602C3.72891 7.56254 4.54298 6.14975 5.91647 5.78047C6.24026 5.69341 6.56751 5.67206 6.88313 5.7089C7.19677 5.74551 7.47368 5.86606 7.69499 5.98438C7.83822 6.06096 7.99367 6.15782 8.11673 6.2345L8.11683 6.23456C8.16904 6.26709 8.21541 6.29599 8.25254 6.31815L10.5643 7.66018C10.5182 7.52698 10.4746 7.38619 10.4348 7.23829C10.279 6.65874 10.2441 6.1309 10.2477 5.74829C10.2486 5.65219 10.2519 5.56471 10.2564 5.48727L8.74306 4.65049L8.73509 4.64609L8.73513 4.64602C8.26428 4.37513 7.78614 4.11375 7.37543 4.03669C6.76176 3.92154 6.11298 3.93875 5.46793 4.11218C3.17307 4.72919 1.8129 7.08971 2.4299 9.38456C3.0469 11.6794 5.40743 13.0396 7.70228 12.4226C8.12064 12.3101 8.66082 11.9989 9.13053 11.672C9.2329 11.6007 9.32905 11.5307 9.41652 11.4648ZM7.30016 9.60806C7.3052 9.53314 7.30922 9.44117 7.30971 9.33538C7.31119 9.01682 7.28056 8.58203 7.15469 8.11386C7.025 7.63149 6.86523 7.27871 6.72894 7.04057C6.66066 6.92127 6.59902 6.83204 6.5511 6.77042C6.54925 6.76803 6.54743 6.7657 6.54564 6.76343C6.4298 6.7666 6.3122 6.78334 6.1946 6.81496C5.39245 7.03063 4.91701 7.85573 5.13268 8.65788C5.34835 9.46004 6.17346 9.93548 6.97561 9.71981C7.11683 9.68184 7.22339 9.64358 7.30016 9.60806ZM8.07417 7.45326C8.11451 7.57395 8.15307 7.70141 8.18919 7.83573C8.34596 8.41883 8.38273 8.95288 8.38093 9.34035C8.38045 9.44433 8.37718 9.5384 8.37261 9.62077L9.75555 10.4194L9.76465 10.4247L9.77354 10.4303C10.7549 11.0496 11.9802 11.272 13.188 10.9473C15.4829 10.3303 16.8431 7.96977 16.2261 5.67491C15.6091 3.38006 13.2485 2.01989 10.9537 2.63689C10.5399 2.74815 10.0162 3.05862 9.55769 3.39223C9.42338 3.48996 9.29983 3.58587 9.19245 3.67332C9.21732 3.68758 9.24164 3.70156 9.26537 3.71522L10.7893 4.55782C10.978 4.44972 11.1832 4.36405 11.4022 4.30517C12.7757 3.93589 14.1885 4.74996 14.5578 6.12345C14.9271 7.49694 14.113 8.90973 12.7395 9.27901C12.4461 9.3579 12.1498 9.38283 11.8619 9.3594C11.8525 9.3601 11.8462 9.36027 11.8435 9.36035L11.8424 9.36038C11.7964 9.36226 11.7586 9.35752 11.7511 9.35657L11.7511 9.35657L11.7503 9.35647C11.7365 9.35477 11.7247 9.35285 11.7172 9.35158C11.7019 9.34897 11.6867 9.34594 11.675 9.34353C11.6509 9.33858 11.6078 9.32902 11.5735 9.3214L11.5295 9.31172C11.4276 9.28982 11.3062 9.2563 11.2155 9.22329L11.2792 9.04811L11.2155 9.22329C11.0724 9.1712 10.8859 9.08221 10.7991 9.03493L10.7927 9.03144L10.7864 9.02778L8.07417 7.45326ZM12.0552 8.29653C12.1887 8.29783 12.325 8.28117 12.4614 8.24452C13.2635 8.02885 13.7389 7.20374 13.5233 6.40159C13.3076 5.59944 12.4825 5.124 11.6804 5.33967C11.5549 5.37341 11.4378 5.42182 11.3304 5.48244C11.3247 5.55712 11.3199 5.65023 11.3189 5.75827C11.316 6.06981 11.3447 6.49684 11.4693 6.96016C11.5968 7.43421 11.7706 7.81474 11.9175 8.07444C11.9692 8.16599 12.0163 8.24021 12.0552 8.29653Z" fill="white"/>
<path d="M17.5585 11.9134V19.1372M15.7525 17.4408L16.2817 17.8375C16.9866 18.3667 18.1298 18.3667 18.8353 17.8375C19.5408 17.3084 19.5408 16.4512 18.8353 15.922C18.4832 15.6571 18.0208 15.5253 17.5585 15.5253C17.1221 15.5253 16.6856 15.3929 16.3527 15.1286C15.6869 14.5994 15.6869 13.7422 16.3527 13.2131C17.0185 12.6839 18.0985 12.6839 18.7643 13.2131L19.0141 13.4117M22.9764 15.5253C22.9764 16.2368 22.8362 16.9413 22.564 17.5986C22.2917 18.256 21.8926 18.8532 21.3895 19.3563C20.8864 19.8594 20.2892 20.2585 19.6318 20.5308C18.9745 20.803 18.27 20.9432 17.5585 20.9432C16.847 20.9432 16.1425 20.803 15.4852 20.5308C14.8278 20.2585 14.2306 19.8594 13.7275 19.3563C13.2244 18.8532 12.8253 18.256 12.553 17.5986C12.2808 16.9413 12.1406 16.2368 12.1406 15.5253C12.1406 14.0884 12.7114 12.7103 13.7275 11.6943C14.7435 10.6782 16.1216 10.1074 17.5585 10.1074C18.9954 10.1074 20.3735 10.6782 21.3895 11.6943C22.4056 12.7103 22.9764 14.0884 22.9764 15.5253Z" stroke="white" stroke-width="1.07123" stroke-linecap="round" stroke-linejoin="round"/>
<path d="M3.67458 15.3097C2.84658 15.7106 2.76354 16.8572 3.52425 17.3735L9.98879 21.7612C10.7491 22.2772 11.784 21.7767 11.8513 20.8595L12.4219 13.0636C12.4888 12.1461 11.5369 11.5 10.7089 11.9009L3.67458 15.3097Z" stroke="white" stroke-width="1.07123" stroke-linecap="round" stroke-linejoin="round"/>
</svg>
