<svg width="710" height="262" viewBox="0 0 710 262" fill="none" xmlns="http://www.w3.org/2000/svg">
<path d="M3 259L34.7161 244.308C36.555 243.456 38.6093 243.183 40.6068 243.525L70.0735 248.57C71.723 248.852 73.4169 248.716 75.0002 248.174L163.927 217.726C165.323 217.248 166.597 216.467 167.656 215.438L237.059 148.012C240.832 144.346 246.8 144.23 250.712 147.747L296.48 188.882C299.841 191.902 304.809 192.294 308.601 189.838L356.932 158.538C358.961 157.224 361.398 156.69 363.791 157.034L463.089 171.316C467.858 172.002 472.438 169.19 473.984 164.626L498.584 91.9786C500.356 86.7448 506.037 83.9405 511.27 85.7166L542.756 96.4042C544.849 97.1147 547.118 97.1117 549.209 96.3957L565.222 90.913C567.854 90.012 570.742 90.2477 573.192 91.5635L606.893 109.658C611.062 111.897 616.229 110.906 619.276 107.285L707 3" stroke="url(#paint0_radial_12401_78082)" stroke-width="6" stroke-linecap="round"/>
<defs>
<radialGradient id="paint0_radial_12401_78082" cx="0" cy="0" r="1" gradientUnits="userSpaceOnUse" gradientTransform="translate(355 131) rotate(90) scale(191 525.25)">
<stop stop-color="#2D2D2D"/>
<stop offset="1" stop-color="#2D2D2D" stop-opacity="0"/>
</radialGradient>
</defs>
</svg>
