<svg width="16" height="17" viewBox="0 0 16 17" fill="none" xmlns="http://www.w3.org/2000/svg">
<g clip-path="url(#clip0_5275_24298)">
<mask id="path-1-inside-1_5275_24298" fill="white">
<path d="M7 6.5V7.5H8V6.5H7ZM7 8.5V11.5H8V8.5H7Z"/>
</mask>
<path d="M7 6.5V7.5H8V6.5H7ZM7 8.5V11.5H8V8.5H7Z" fill="white"/>
<path d="M7 6.5V5.5H6V6.5H7ZM7 7.5H6V8.5H7V7.5ZM8 7.5V8.5H9V7.5H8ZM8 6.5H9V5.5H8V6.5ZM7 8.5V7.5H6V8.5H7ZM7 11.5H6V12.5H7V11.5ZM8 11.5V12.5H9V11.5H8ZM8 8.5H9V7.5H8V8.5ZM6 6.5V7.5H8V6.5H6ZM7 8.5H8V6.5H7V8.5ZM9 7.5V6.5H7V7.5H9ZM8 5.5H7V7.5H8V5.5ZM6 8.5V11.5H8V8.5H6ZM7 12.5H8V10.5H7V12.5ZM9 11.5V8.5H7V11.5H9ZM8 7.5H7V9.5H8V7.5Z" fill="#919191" mask="url(#path-1-inside-1_5275_24298)"/>
<circle cx="7.5" cy="9" r="5" stroke="#919191"/>
</g>
<defs>
<clipPath id="clip0_5275_24298">
<rect width="16" height="16" fill="white" transform="translate(0 0.5)"/>
</clipPath>
</defs>
</svg>
