<svg width="181" height="52" viewBox="0 0 181 52" fill="none" xmlns="http://www.w3.org/2000/svg">
<g opacity="0.7">
<rect width="181" height="52" rx="8" fill="#1B1B1B"/>
<rect x="1.50586" y="0.5" width="178.994" height="51" rx="4.5" fill="black" stroke="#1B1B1B"/>
<path d="M40.1695 25.7191C40.1308 21.5292 43.6881 19.4908 43.8508 19.3959C41.8361 16.532 38.7135 16.1407 37.6161 16.1095C34.9935 15.8404 32.4495 17.6396 31.1135 17.6396C29.7508 17.6396 27.6935 16.1355 25.4761 16.1797C22.6228 16.2226 19.9535 17.8333 18.4895 20.3345C15.4681 25.4344 17.7215 32.9289 20.6161 37.0512C22.0641 39.0701 23.7561 41.3243 25.9708 41.245C28.1375 41.1579 28.9468 39.8982 31.5615 39.8982C34.1521 39.8982 34.9121 41.245 37.1708 41.1943C39.4961 41.1579 40.9601 39.1663 42.3575 37.1292C44.0308 34.8152 44.7028 32.5363 44.7295 32.4193C44.6748 32.4011 40.2135 30.741 40.1695 25.7191Z" fill="white"/>
<path d="M35.9028 13.3977C37.0681 11.9768 37.8655 10.0437 37.6441 8.08202C35.9575 8.15482 33.8481 9.21952 32.6335 10.6092C31.5588 11.8338 30.5988 13.841 30.8468 15.7286C32.7415 15.8664 34.6868 14.7965 35.9028 13.3977Z" fill="white"/>
<path d="M71.5269 40.9552H68.4989L66.8402 35.8735H61.0749L59.4949 40.9552H56.5469L62.2589 23.6548H65.7869L71.5269 40.9552ZM66.3402 33.7415L64.8402 29.224C64.6815 28.7625 64.3842 27.6757 63.9455 25.9649H63.8922C63.7175 26.7007 63.4362 27.7875 63.0495 29.224L61.5762 33.7415H66.3402Z" fill="white"/>
<path d="M86.2159 34.5645C86.2159 36.6861 85.6279 38.3631 84.4519 39.5942C83.3985 40.6901 82.0905 41.2374 80.5292 41.2374C78.8439 41.2374 77.6332 40.6472 76.8959 39.4668H76.8425V46.0383H73.9999V32.5872C73.9999 31.2534 73.9639 29.8845 73.8945 28.4805H76.3945L76.5532 30.4578H76.6065C77.5545 28.968 78.9932 28.2244 80.9239 28.2244C82.4332 28.2244 83.6932 28.8055 84.7012 29.969C85.7119 31.1338 86.2159 32.6652 86.2159 34.5645ZM83.3199 34.6659C83.3199 33.4517 83.0399 32.4507 82.4772 31.6629C81.8625 30.8413 81.0372 30.4305 80.0025 30.4305C79.3012 30.4305 78.6639 30.6593 78.0945 31.1104C77.5239 31.5654 77.1505 32.1595 76.9759 32.8953C76.8879 33.2385 76.8439 33.5193 76.8439 33.7403V35.8203C76.8439 36.7277 77.1292 37.4934 77.6999 38.1187C78.2705 38.744 79.0119 39.056 79.9239 39.056C80.9945 39.056 81.8279 38.653 82.4239 37.8496C83.0212 37.0449 83.3199 35.9841 83.3199 34.6659Z" fill="white"/>
<path d="M100.931 34.5645C100.931 36.6861 100.343 38.3631 99.166 39.5942C98.114 40.6901 96.806 41.2374 95.2447 41.2374C93.5593 41.2374 92.3487 40.6472 91.6127 39.4668H91.5593V46.0383H88.7167V32.5872C88.7167 31.2534 88.6807 29.8845 88.6113 28.4805H91.1113L91.27 30.4578H91.3233C92.27 28.968 93.7087 28.2244 95.6407 28.2244C97.1487 28.2244 98.4087 28.8055 99.4193 29.969C100.426 31.1338 100.931 32.6652 100.931 34.5645ZM98.0353 34.6659C98.0353 33.4517 97.754 32.4507 97.1913 31.6629C96.5767 30.8413 95.754 30.4305 94.718 30.4305C94.0153 30.4305 93.3793 30.6593 92.8087 31.1104C92.238 31.5654 91.866 32.1595 91.6913 32.8953C91.6047 33.2385 91.5593 33.5193 91.5593 33.7403V35.8203C91.5593 36.7277 91.8447 37.4934 92.4127 38.1187C92.9833 38.7427 93.7247 39.056 94.6393 39.056C95.71 39.056 96.5433 38.653 97.1393 37.8496C97.7367 37.0449 98.0353 35.9841 98.0353 34.6659Z" fill="white"/>
<path d="M117.385 36.1037C117.385 37.5753 116.861 38.7726 115.809 39.6969C114.653 40.707 113.044 41.2114 110.976 41.2114C109.066 41.2114 107.536 40.8526 106.377 40.1337L107.036 37.8236C108.284 38.5594 109.653 38.9286 111.145 38.9286C112.216 38.9286 113.049 38.692 113.648 38.2214C114.244 37.7508 114.541 37.119 114.541 36.3312C114.541 35.6292 114.296 35.0377 113.804 34.558C113.314 34.0783 112.497 33.6324 111.356 33.2203C108.249 32.0906 106.697 30.4357 106.697 28.2595C106.697 26.8373 107.241 25.6712 108.33 24.7638C109.416 23.8551 110.864 23.4014 112.674 23.4014C114.289 23.4014 115.63 23.6757 116.701 24.223L115.99 26.4824C114.99 25.952 113.86 25.6868 112.594 25.6868C111.594 25.6868 110.813 25.9273 110.253 26.4057C109.78 26.8334 109.542 27.3547 109.542 27.9722C109.542 28.656 109.813 29.2215 110.357 29.6661C110.83 30.0769 111.69 30.5215 112.938 31.0012C114.465 31.6005 115.586 32.3012 116.308 33.1046C117.026 33.9054 117.385 34.9077 117.385 36.1037Z" fill="white"/>
<path d="M126.784 30.5604H123.651V36.6172C123.651 38.1577 124.203 38.9273 125.31 38.9273C125.818 38.9273 126.239 38.8843 126.572 38.7985L126.651 40.9033C126.091 41.1074 125.354 41.2101 124.44 41.2101C123.318 41.2101 122.44 40.876 121.807 40.2091C121.176 39.5409 120.859 38.4203 120.859 36.846V30.5579H118.992V28.4779H120.859V26.1938L123.651 25.3722V28.4779H126.784V30.5604Z" fill="white"/>
<path d="M140.921 34.6152C140.921 36.5327 140.358 38.107 139.235 39.3381C138.058 40.6056 136.495 41.2374 134.547 41.2374C132.67 41.2374 131.175 40.6303 130.061 39.4161C128.946 38.2019 128.389 36.6692 128.389 34.8219C128.389 32.8888 128.962 31.3054 130.113 30.0743C131.261 28.8419 132.81 28.2257 134.758 28.2257C136.635 28.2257 138.146 28.8328 139.286 30.0483C140.377 31.2274 140.921 32.7497 140.921 34.6152ZM137.971 34.7049C137.971 33.5544 137.719 32.5677 137.209 31.7448C136.613 30.749 135.761 30.2524 134.657 30.2524C133.514 30.2524 132.646 30.7503 132.05 31.7448C131.539 32.569 131.287 33.5713 131.287 34.7569C131.287 35.9074 131.539 36.8941 132.05 37.7157C132.665 38.7115 133.523 39.2081 134.631 39.2081C135.717 39.2081 136.569 38.7011 137.183 37.6897C137.707 36.8512 137.971 35.8541 137.971 34.7049Z" fill="white"/>
<path d="M150.162 30.918C149.88 30.8673 149.58 30.8413 149.266 30.8413C148.266 30.8413 147.492 31.2092 146.948 31.9463C146.475 32.5963 146.238 33.4179 146.238 34.4098V40.9553H143.396L143.423 32.4091C143.423 30.9713 143.387 29.6622 143.316 28.4818H145.792L145.896 30.8686H145.975C146.275 30.0483 146.748 29.3879 147.396 28.8926C148.03 28.4467 148.714 28.2244 149.451 28.2244C149.714 28.2244 149.951 28.2426 150.162 28.2751V30.918Z" fill="white"/>
<path d="M162.875 34.1277C162.875 34.6243 162.841 35.0429 162.771 35.3848H154.243C154.276 36.6172 154.688 37.5597 155.48 38.2097C156.199 38.7908 157.128 39.082 158.269 39.082C159.532 39.082 160.684 38.8857 161.72 38.4918L162.165 40.4158C160.955 40.9306 159.525 41.1867 157.876 41.1867C155.892 41.1867 154.335 40.6173 153.201 39.4798C152.071 38.3423 151.504 36.8148 151.504 34.8986C151.504 33.0175 152.031 31.451 153.085 30.2017C154.189 28.8679 155.681 28.201 157.559 28.201C159.403 28.201 160.799 28.8679 161.747 30.2017C162.497 31.2612 162.875 32.5716 162.875 34.1277ZM160.164 33.4088C160.183 32.5872 159.997 31.8774 159.612 31.2781C159.12 30.5072 158.364 30.1224 157.347 30.1224C156.417 30.1224 155.661 30.4981 155.084 31.2521C154.611 31.8514 154.329 32.5703 154.243 33.4075H160.164V33.4088Z" fill="white"/>
<path d="M65.3997 13.0119C65.3997 14.542 64.9291 15.6938 63.989 16.4673C63.1184 17.181 61.881 17.5385 60.2784 17.5385C59.4837 17.5385 58.8037 17.5047 58.2344 17.4371V9.07676C58.977 8.95976 59.777 8.89996 60.641 8.89996C62.1677 8.89996 63.3184 9.22366 64.0944 9.87106C64.9637 10.603 65.3997 11.6495 65.3997 13.0119ZM63.9264 13.0496C63.9264 12.0577 63.657 11.2972 63.1184 10.7668C62.5797 10.2377 61.793 9.97246 60.757 9.97246C60.317 9.97246 59.9424 10.0011 59.6317 10.0609V16.4166C59.8037 16.4426 60.1184 16.4543 60.5757 16.4543C61.645 16.4543 62.4704 16.1644 63.0517 15.5846C63.6331 15.0048 63.9264 14.1598 63.9264 13.0496Z" fill="white"/>
<path d="M73.2126 14.3483C73.2126 15.2908 72.9366 16.063 72.3846 16.6688C71.806 17.2915 71.0393 17.6022 70.082 17.6022C69.1593 17.6022 68.4246 17.3045 67.8766 16.7065C67.33 16.1098 67.0566 15.3571 67.0566 14.4497C67.0566 13.5007 67.338 12.722 67.9033 12.1175C68.4686 11.513 69.2286 11.2101 70.186 11.2101C71.1086 11.2101 71.85 11.5078 72.4113 12.1045C72.9446 12.6843 73.2126 13.4331 73.2126 14.3483ZM71.7633 14.3925C71.7633 13.827 71.638 13.3421 71.3886 12.9378C71.0953 12.449 70.678 12.2046 70.1353 12.2046C69.574 12.2046 69.1473 12.449 68.854 12.9378C68.6033 13.3421 68.4793 13.8348 68.4793 14.4172C68.4793 14.9827 68.6046 15.4676 68.854 15.8719C69.1566 16.3607 69.578 16.6051 70.122 16.6051C70.6553 16.6051 71.074 16.3568 71.3753 15.8589C71.634 15.4468 71.7633 14.958 71.7633 14.3925Z" fill="white"/>
<path d="M83.6867 11.3349L81.7201 17.4631H80.4401L79.6254 14.802C79.4187 14.1377 79.2507 13.4773 79.1201 12.8221H79.0947C78.9734 13.4955 78.8054 14.1546 78.5894 14.802L77.7241 17.4631H76.4294L74.5801 11.3349H76.0161L76.7267 14.2482C76.8987 14.9372 77.0401 15.5937 77.1534 16.2151H77.1787C77.2827 15.7029 77.4547 15.0503 77.6974 14.2612L78.5894 11.3362H79.7281L80.5827 14.1988C80.7894 14.8969 80.9574 15.569 81.0867 16.2164H81.1254C81.2201 15.5859 81.3627 14.9138 81.5521 14.1988L82.3147 11.3362H83.6867V11.3349Z" fill="white"/>
<path d="M90.9312 17.4631H89.5339V13.9531C89.5339 12.8715 89.1125 12.3307 88.2672 12.3307C87.8525 12.3307 87.5179 12.4789 87.2579 12.7766C87.0005 13.0743 86.8699 13.4253 86.8699 13.827V17.4618H85.4725V13.086C85.4725 12.5478 85.4552 11.9641 85.4219 11.3323H86.6499L86.7152 12.2904H86.7539C86.9165 11.9927 87.1592 11.747 87.4779 11.5507C87.8565 11.3219 88.2805 11.2062 88.7445 11.2062C89.3312 11.2062 89.8192 11.3908 90.2072 11.7613C90.6899 12.215 90.9312 12.8923 90.9312 13.7919V17.4631Z" fill="white"/>
<path d="M94.7847 17.463H93.3887V8.52295H94.7847V17.463Z" fill="white"/>
<path d="M103.01 14.3483C103.01 15.2908 102.734 16.063 102.182 16.6688C101.603 17.2915 100.835 17.6022 99.8789 17.6022C98.9549 17.6022 98.2202 17.3045 97.6735 16.7065C97.1268 16.1098 96.8535 15.3571 96.8535 14.4497C96.8535 13.5007 97.1349 12.722 97.7002 12.1175C98.2655 11.513 99.0255 11.2101 99.9815 11.2101C100.906 11.2101 101.646 11.5078 102.208 12.1045C102.742 12.6843 103.01 13.4331 103.01 14.3483ZM101.559 14.3925C101.559 13.827 101.434 13.3421 101.184 12.9378C100.892 12.449 100.474 12.2046 99.9322 12.2046C99.3695 12.2046 98.9428 12.449 98.6508 12.9378C98.4002 13.3421 98.2762 13.8348 98.2762 14.4172C98.2762 14.9827 98.4015 15.4676 98.6508 15.8719C98.9535 16.3607 99.3749 16.6051 99.9189 16.6051C100.452 16.6051 100.87 16.3568 101.171 15.8589C101.431 15.4468 101.559 14.958 101.559 14.3925Z" fill="white"/>
<path d="M109.773 17.4631H108.519L108.415 16.7572H108.376C107.947 17.3201 107.335 17.6022 106.54 17.6022C105.947 17.6022 105.467 17.4163 105.105 17.0471C104.777 16.7117 104.613 16.2944 104.613 15.7991C104.613 15.0503 104.933 14.4796 105.577 14.0844C106.22 13.6892 107.124 13.4955 108.288 13.5046V13.3902C108.288 12.5829 107.853 12.1799 106.983 12.1799C106.363 12.1799 105.816 12.332 105.344 12.6336L105.06 11.7392C105.644 11.3869 106.365 11.2101 107.216 11.2101C108.859 11.2101 109.683 12.0551 109.683 13.7451V16.0019C109.683 16.6142 109.713 17.1017 109.773 17.4631ZM108.323 15.3571V14.412C106.781 14.386 106.011 14.7981 106.011 15.647C106.011 15.9668 106.099 16.206 106.279 16.3659C106.459 16.5258 106.688 16.6051 106.961 16.6051C107.268 16.6051 107.555 16.5102 107.816 16.3217C108.079 16.1319 108.24 15.8914 108.3 15.5963C108.315 15.53 108.323 15.4494 108.323 15.3571Z" fill="white"/>
<path d="M117.713 17.463H116.473L116.408 16.4789H116.369C115.973 17.2277 115.298 17.6021 114.35 17.6021C113.593 17.6021 112.962 17.3123 112.462 16.7324C111.962 16.1526 111.713 15.3999 111.713 14.4756C111.713 13.4837 111.984 12.6803 112.528 12.0667C113.054 11.4947 113.7 11.2087 114.468 11.2087C115.312 11.2087 115.902 11.4856 116.238 12.0407H116.265V8.52295H117.664V15.812C117.664 16.4087 117.68 16.9586 117.713 17.463ZM116.265 14.8786V13.8568C116.265 13.68 116.252 13.537 116.226 13.4278C116.148 13.1002 115.978 12.8246 115.721 12.6023C115.461 12.38 115.148 12.2682 114.786 12.2682C114.265 12.2682 113.857 12.4697 113.557 12.874C113.26 13.2783 113.109 13.7944 113.109 14.4249C113.109 15.0307 113.252 15.5221 113.538 15.9004C113.841 16.3034 114.249 16.5049 114.76 16.5049C115.218 16.5049 115.585 16.3372 115.864 16.0005C116.133 15.6898 116.265 15.3154 116.265 14.8786Z" fill="white"/>
<path d="M129.664 14.3483C129.664 15.2908 129.388 16.063 128.836 16.6688C128.257 17.2915 127.492 17.6022 126.533 17.6022C125.612 17.6022 124.877 17.3045 124.328 16.7065C123.781 16.1098 123.508 15.3571 123.508 14.4497C123.508 13.5007 123.789 12.722 124.354 12.1175C124.92 11.513 125.68 11.2101 126.638 11.2101C127.56 11.2101 128.302 11.5078 128.862 12.1045C129.396 12.6843 129.664 13.4331 129.664 14.3483ZM128.216 14.3925C128.216 13.827 128.09 13.3421 127.841 12.9378C127.546 12.449 127.13 12.2046 126.586 12.2046C126.026 12.2046 125.6 12.449 125.305 12.9378C125.054 13.3421 124.93 13.8348 124.93 14.4172C124.93 14.9827 125.056 15.4676 125.305 15.8719C125.608 16.3607 126.029 16.6051 126.573 16.6051C127.106 16.6051 127.526 16.3568 127.828 15.8589C128.085 15.4468 128.216 14.958 128.216 14.3925Z" fill="white"/>
<path d="M137.178 17.4631H135.782V13.9531C135.782 12.8715 135.361 12.3307 134.514 12.3307C134.099 12.3307 133.765 12.4789 133.506 12.7766C133.247 13.0743 133.118 13.4253 133.118 13.827V17.4618H131.719V13.086C131.719 12.5478 131.703 11.9641 131.67 11.3323H132.897L132.962 12.2904H133.001C133.165 11.9927 133.407 11.747 133.725 11.5507C134.105 11.3219 134.527 11.2062 134.993 11.2062C135.578 11.2062 136.066 11.3908 136.454 11.7613C136.938 12.215 137.178 12.8923 137.178 13.7919V17.4631Z" fill="white"/>
<path d="M146.582 12.3554H145.043V15.3324C145.043 16.089 145.317 16.4673 145.858 16.4673C146.109 16.4673 146.317 16.4465 146.481 16.4036L146.517 17.4371C146.241 17.5385 145.878 17.5892 145.431 17.5892C144.879 17.5892 144.45 17.4254 144.139 17.0978C143.827 16.7702 143.673 16.219 143.673 15.4455V12.3554H142.754V11.3349H143.673V10.2117L145.042 9.80866V11.3336H146.581V12.3554H146.582Z" fill="white"/>
<path d="M153.978 17.463H152.58V13.979C152.58 12.8805 152.158 12.3306 151.314 12.3306C150.666 12.3306 150.224 12.6491 149.981 13.2861C149.94 13.42 149.916 13.5838 149.916 13.7762V17.4618H148.52V8.52295H149.916V12.2162H149.942C150.382 11.5441 151.013 11.2087 151.83 11.2087C152.409 11.2087 152.888 11.3933 153.268 11.7638C153.741 12.2253 153.978 12.9117 153.978 13.8191V17.463Z" fill="white"/>
<path d="M161.609 14.109C161.609 14.3534 161.591 14.5588 161.557 14.7265H157.367C157.385 15.3323 157.585 15.7938 157.973 16.1136C158.328 16.3996 158.785 16.5426 159.345 16.5426C159.965 16.5426 160.531 16.4464 161.04 16.2527L161.259 17.1991C160.663 17.4513 159.961 17.5774 159.149 17.5774C158.176 17.5774 157.409 17.2979 156.855 16.7389C156.297 16.1799 156.021 15.4298 156.021 14.4886C156.021 13.5643 156.279 12.7947 156.797 12.1811C157.339 11.5259 158.071 11.1983 158.995 11.1983C159.899 11.1983 160.585 11.5259 161.049 12.1811C161.424 12.7011 161.609 13.3446 161.609 14.109ZM160.276 13.7567C160.287 13.3524 160.195 13.004 160.005 12.7102C159.763 12.3319 159.393 12.1421 158.893 12.1421C158.437 12.1421 158.065 12.3267 157.781 12.6972C157.549 12.9923 157.412 13.3446 157.367 13.7567H160.276Z" fill="white"/>
</g>
</svg>
