<svg width="35" height="22" viewBox="0 0 35 22" fill="none" xmlns="http://www.w3.org/2000/svg">
<mask id="mask0_12366_24632" style="mask-type:alpha" maskUnits="userSpaceOnUse" x="12" y="0" width="23" height="22">
<path fill-rule="evenodd" clip-rule="evenodd" d="M34.9852 11C34.9852 17.0751 30.0603 22 23.9852 22C20.7876 22 17.9087 20.6357 15.8988 18.4574L12.7812 15.3338C12.7812 15.3338 13.6291 13.4749 13.6291 11C13.6291 8.52506 12.7812 6.65795 12.7812 6.65795H13.8754C15.5594 2.74203 19.4521 0 23.9852 0C30.0603 0 34.9852 4.92486 34.9852 11ZM28.6222 11C28.6222 13.561 26.5462 15.637 23.9852 15.637C21.4242 15.637 19.3481 13.561 19.3481 11C19.3481 8.43902 21.4242 6.36294 23.9852 6.36294C26.5462 6.36294 28.6222 8.43902 28.6222 11Z" fill="url(#paint0_linear_12366_24632)"/>
</mask>
<g mask="url(#mask0_12366_24632)">
<path fill-rule="evenodd" clip-rule="evenodd" d="M34.9852 11C34.9852 17.0751 30.0603 22 23.9852 22C20.7876 22 17.9087 20.6357 15.8988 18.4574L12.7812 15.3338C12.7812 15.3338 13.6291 13.4749 13.6291 11C13.6291 8.52506 12.7812 6.65795 12.7812 6.65795H13.8754C15.5594 2.74203 19.4521 0 23.9852 0C30.0603 0 34.9852 4.92486 34.9852 11ZM28.6222 11C28.6222 13.561 26.5462 15.637 23.9852 15.637C21.4242 15.637 19.3481 13.561 19.3481 11C19.3481 8.43902 21.4242 6.36294 23.9852 6.36294C26.5462 6.36294 28.6222 8.43902 28.6222 11Z" fill="url(#paint1_linear_12366_24632)"/>
<path opacity="0.4" d="M12.7812 10.8626V6.68848L12.7863 6.69048C13.5558 6.99681 14.1689 7.65486 14.6982 8.22307C14.8071 8.33989 14.9124 8.45291 15.0148 8.5583L20.7112 14.2916C20.7464 14.3252 20.7955 14.3697 20.8529 14.4198C17.7184 12.2613 15.9796 11.3827 12.7812 10.8626Z" fill="#1E2337"/>
</g>
<path d="M10.9378 0C4.89701 0 0 4.92486 0 11C0 17.0751 4.89701 22 10.9378 22C13.3365 22 15.5549 21.2234 17.358 19.9066L12.6423 15.3099C12.115 15.521 11.5399 15.6371 10.9378 15.6371C8.39129 15.6371 6.32695 13.561 6.32695 11C6.32695 8.43902 8.39129 6.36295 10.9378 6.36295C11.5399 6.36295 12.115 6.47901 12.6423 6.6901C13.5647 7.05939 14.2611 7.93995 14.8581 8.5579L20.5223 14.2912C20.6493 14.4129 20.9575 14.6777 21.1806 14.8351C21.3047 14.9226 21.5005 15.0397 21.6718 15.1281C21.8492 15.2197 22 15.2811 22 15.2811C22 15.2811 21.1569 13.4682 21.1569 11.0131C21.1569 8.5579 22 6.74508 22 6.74508L18.4513 3.19083C17.6132 2.34902 16.7407 1.59769 15.671 1.08047C14.2387 0.387979 12.6333 0 10.9378 0Z" fill="url(#paint2_linear_12366_24632)"/>
<defs>
<linearGradient id="paint0_linear_12366_24632" x1="30.8663" y1="3.05278" x2="17.7335" y2="20.3573" gradientUnits="userSpaceOnUse">
<stop stop-color="#FF52BC"/>
<stop offset="0.516172" stop-color="#C83E93"/>
<stop offset="1" stop-color="#861F5E"/>
</linearGradient>
<linearGradient id="paint1_linear_12366_24632" x1="30.8663" y1="3.05278" x2="17.7335" y2="20.3573" gradientUnits="userSpaceOnUse">
<stop stop-color="#FF52BC"/>
<stop offset="0.516172" stop-color="#C83E93"/>
<stop offset="1" stop-color="#861F5E"/>
</linearGradient>
<linearGradient id="paint2_linear_12366_24632" x1="17.5171" y1="19.7169" x2="2.86538" y2="5.72504" gradientUnits="userSpaceOnUse">
<stop stop-color="#00FFFF"/>
<stop offset="1" stop-color="#01CDFD"/>
</linearGradient>
</defs>
</svg>
