<svg width="20" height="22" viewBox="0 0 20 22" fill="none" xmlns="http://www.w3.org/2000/svg">
<path d="M16.4522 3.55316C16.2872 3.55725 16.1304 3.62975 16.016 3.75482L9.99961 10.0721L3.98317 3.75482C3.92491 3.69183 3.85521 3.64175 3.77819 3.60755C3.70117 3.57335 3.61839 3.55573 3.53477 3.55573C3.41038 3.55576 3.28883 3.59475 3.18568 3.66773C3.08252 3.7407 3.00244 3.84433 2.95569 3.96535C2.90894 4.08638 2.89764 4.2193 2.92323 4.34711C2.94883 4.47491 3.01016 4.5918 3.09938 4.6828L9.11582 11.0001L3.09938 17.3173C3.0394 17.3778 2.99151 17.4502 2.95852 17.5304C2.92553 17.6105 2.9081 17.6968 2.90726 17.7841C2.90641 17.8714 2.92217 17.958 2.9536 18.0388C2.98503 18.1197 3.0315 18.1931 3.0903 18.2548C3.1491 18.3166 3.21904 18.3654 3.29603 18.3984C3.37301 18.4314 3.45549 18.4479 3.53864 18.447C3.62179 18.4461 3.70394 18.4278 3.78027 18.3932C3.8566 18.3586 3.92558 18.3083 3.98317 18.2453L9.99961 11.928L16.016 18.2453C16.0736 18.3083 16.1426 18.3586 16.2189 18.3932C16.2953 18.4278 16.3774 18.4461 16.4606 18.447C16.5437 18.4479 16.6262 18.4314 16.7032 18.3984C16.7802 18.3654 16.8501 18.3166 16.9089 18.2548C16.9677 18.1931 17.0142 18.1197 17.0456 18.0388C17.077 17.958 17.0928 17.8714 17.092 17.7841C17.0911 17.6968 17.0737 17.6105 17.0407 17.5304C17.0077 17.4502 16.9598 17.3778 16.8998 17.3173L10.8834 11.0001L16.8998 4.6828C16.9907 4.59121 17.0531 4.47291 17.0789 4.34343C17.1046 4.21395 17.0925 4.07932 17.0441 3.95719C16.9957 3.83506 16.9133 3.73114 16.8077 3.65904C16.7021 3.58694 16.5782 3.55004 16.4522 3.55316Z" fill="#1B1B1B" stroke="#1B1B1B" stroke-width="0.5"/>
</svg>
