<svg width="80" height="80" viewBox="0 0 80 80" fill="none" xmlns="http://www.w3.org/2000/svg">
<circle cx="40" cy="40" r="40" fill="#131313"/>
<g clip-path="url(#clip0_7238_32957)">
<path d="M39.6 62.5C38.9 62.5 38.1 62.5 37.3 62.4L37.5 60.9C38.2 61 38.9 61 39.6 61C51.3 61 60.8 51.5 60.8 39.8C60.8 28.1 51.3 18.6 39.6 18.6C38.9 18.6 38.2 18.6 37.5 18.7L37.3 17.2C38.1 17 38.8 17 39.6 17C52.1 17 62.4 27.2 62.4 39.8C62.3 52.3 52.1 62.5 39.6 62.5ZM31.8 61.1C30.4 60.6 29 59.9 27.7 59.1L28.5 57.8C29.7 58.5 31 59.2 32.3 59.6L31.8 61.1ZM23.3 55.7C22.3 54.6 21.3 53.4 20.4 52.1L21.7 51.3C22.5 52.5 23.4 53.7 24.3 54.6L23.3 55.7ZM28.3 40.5L29.3 39.4L37.5 46.7L48.9 29.6L50.1 30.4L37.7 48.9L28.3 40.5ZM18 47C17.5 45.5 17.2 44 17 42.5L18.5 42.3C18.7 43.7 19 45.1 19.5 46.4L18 47ZM17 37C17.2 35.5 17.5 34 18 32.5L19.4 33C18.9 34.4 18.6 35.8 18.4 37.1L17 37ZM20.5 27.4C21.4 26.1 22.3 24.8 23.3 23.8L24.4 24.9C23.4 25.9 22.6 27 21.8 28.2L20.5 27.4ZM27.7 20.4C29 19.6 30.4 18.9 31.8 18.4L32.3 19.8C31 20.3 29.7 20.9 28.5 21.6L27.7 20.4Z" fill="#32FE9A"/>
</g>
<defs>
<clipPath id="clip0_7238_32957">
<rect width="45.3" height="45.5" fill="white" transform="translate(17 17)"/>
</clipPath>
</defs>
</svg>
