<svg width="22" height="18" viewBox="0 0 22 18" fill="none" xmlns="http://www.w3.org/2000/svg">
<path d="M2.99632 0.244572C2.58232 0.244572 2.24632 0.580072 2.24632 0.994572V1.32856C1.32982 1.57756 0.63109 2.40657 0.63109 3.36957C0.63109 4.54107 1.58409 5.49457 2.75609 5.49457H3.37132C3.71582 5.49457 3.99632 5.77507 3.99632 6.11957C3.99632 6.46407 3.71535 6.74457 3.37035 6.74457H2.51488C2.10488 6.74457 1.94375 6.46463 1.91625 6.40863C1.73125 6.03813 1.28091 5.88967 0.909411 6.07367C0.538911 6.25917 0.38945 6.70951 0.57445 7.08051C0.82995 7.59051 1.39635 8.12754 2.24535 8.22504V8.49457C2.24535 8.90907 2.58135 9.24457 2.99535 9.24457C3.40935 9.24457 3.74535 8.90907 3.74535 8.49457V8.20649C4.73835 8.02849 5.49535 7.16307 5.49535 6.11957C5.49535 4.94807 4.54235 3.99457 3.37035 3.99457H2.75511C2.41061 3.99457 2.13011 3.71407 2.13011 3.36957C2.13011 3.03657 2.44447 2.74457 2.80297 2.74457H3.22679C3.60579 2.74457 3.73745 2.90601 3.82445 3.08051C4.00995 3.45151 4.46029 3.60047 4.83129 3.41547C5.20179 3.22997 5.35222 2.77963 5.16722 2.40863C4.86972 1.81413 4.37382 1.43521 3.74632 1.30121V0.994572C3.74632 0.580072 3.41032 0.244572 2.99632 0.244572ZM10.9963 0.244572C10.5823 0.244572 10.2463 0.580072 10.2463 0.994572V1.32856C9.32982 1.57756 8.63109 2.40657 8.63109 3.36957C8.63109 4.54107 9.58409 5.49457 10.7561 5.49457H11.3713C11.7158 5.49457 11.9963 5.77507 11.9963 6.11957C11.9963 6.46407 11.7153 6.74457 11.3703 6.74457H10.5149C10.1049 6.74457 9.94375 6.46463 9.91625 6.40863C9.73125 6.03813 9.28091 5.88967 8.90941 6.07367C8.53891 6.25917 8.38945 6.70951 8.57445 7.08051C8.82995 7.59051 9.39635 8.12754 10.2453 8.22504V8.49457C10.2453 8.90907 10.5813 9.24457 10.9953 9.24457C11.4093 9.24457 11.7453 8.90907 11.7453 8.49457V8.20649C12.7383 8.02849 13.4953 7.16307 13.4953 6.11957C13.4953 4.94807 12.5423 3.99457 11.3703 3.99457H10.7551C10.4106 3.99457 10.1301 3.71407 10.1301 3.36957C10.1301 3.03657 10.4445 2.74457 10.803 2.74457H11.2268C11.6058 2.74457 11.7374 2.90601 11.8244 3.08051C12.0099 3.45151 12.4603 3.60047 12.8313 3.41547C13.2018 3.22997 13.3522 2.77963 13.1672 2.40863C12.8697 1.81413 12.3738 1.43521 11.7463 1.30121V0.994572C11.7463 0.580072 11.4103 0.244572 10.9963 0.244572ZM18.9963 0.244572C18.5823 0.244572 18.2463 0.580072 18.2463 0.994572V1.32856C17.3298 1.57756 16.6311 2.40657 16.6311 3.36957C16.6311 4.54107 17.5841 5.49457 18.7561 5.49457H19.3713C19.7158 5.49457 19.9963 5.77507 19.9963 6.11957C19.9963 6.46407 19.7153 6.74457 19.3703 6.74457H18.5149C18.1049 6.74457 17.9437 6.46463 17.9162 6.40863C17.7312 6.03813 17.2809 5.88967 16.9094 6.07367C16.5389 6.25917 16.3894 6.70951 16.5744 7.08051C16.83 7.59051 17.3963 8.12754 18.2453 8.22504V8.49457C18.2453 8.90907 18.5813 9.24457 18.9953 9.24457C19.4093 9.24457 19.7453 8.90907 19.7453 8.49457V8.20649C20.7383 8.02849 21.4953 7.16307 21.4953 6.11957C21.4953 4.94807 20.5423 3.99457 19.3703 3.99457H18.7551C18.4106 3.99457 18.1301 3.71407 18.1301 3.36957C18.1301 3.03657 18.4445 2.74457 18.803 2.74457H19.2268C19.6058 2.74457 19.7374 2.90601 19.8244 3.08051C20.0099 3.45151 20.4603 3.60047 20.8313 3.41547C21.2018 3.22997 21.3522 2.77963 21.1672 2.40863C20.8697 1.81413 20.3738 1.43521 19.7463 1.30121V0.994572C19.7463 0.580072 19.4103 0.244572 18.9963 0.244572ZM18.2375 11.2368C18.0883 11.2368 17.9424 11.2814 17.8186 11.3648C17.6948 11.4482 17.5987 11.5666 17.5426 11.7049C17.4865 11.8432 17.473 11.9951 17.5037 12.1412C17.5344 12.2873 17.608 12.4208 17.7151 12.5248L18.9348 13.7446H13.6389C13.5331 13.3393 13.3486 12.9508 13.0559 12.6215C12.5851 12.0919 11.8495 11.7446 10.9953 11.7446C10.1412 11.7446 9.40559 12.0919 8.9348 12.6215C8.64208 12.9508 8.45762 13.3393 8.35179 13.7446H5.8889C5.78308 13.3393 5.59862 12.9508 5.30589 12.6215C4.83511 12.0919 4.09951 11.7446 3.24535 11.7446C2.39118 11.7446 1.65559 12.0919 1.1848 12.6215C0.714014 13.1512 0.495348 13.8279 0.495348 14.4946C0.495348 15.1612 0.714014 15.838 1.1848 16.3676C1.65559 16.8973 2.39118 17.2446 3.24535 17.2446C4.09951 17.2446 4.83511 16.8973 5.30589 16.3676C5.59862 16.0383 5.78308 15.6498 5.8889 15.2446H8.35179C8.45762 15.6498 8.64208 16.0383 8.9348 16.3676C9.40559 16.8973 10.1412 17.2446 10.9953 17.2446C11.8495 17.2446 12.5851 16.8973 13.0559 16.3676C13.3486 16.0383 13.5331 15.6498 13.6389 15.2446H18.9348L17.7151 16.4643C17.6431 16.5334 17.5856 16.6162 17.546 16.7078C17.5065 16.7994 17.4855 16.898 17.4845 16.9977C17.4835 17.0975 17.5024 17.1965 17.5401 17.2889C17.5779 17.3813 17.6336 17.4652 17.7042 17.5357C17.7747 17.6063 17.8587 17.6621 17.951 17.6998C18.0434 17.7375 18.1424 17.7564 18.2422 17.7554C18.342 17.7544 18.4405 17.7335 18.5321 17.6939C18.6237 17.6543 18.7065 17.5968 18.7756 17.5248L21.2112 15.0893C21.3028 15.019 21.377 14.9285 21.4279 14.8248C21.4789 14.7212 21.5052 14.6072 21.5048 14.4917C21.5044 14.3762 21.4774 14.2623 21.4257 14.159C21.3741 14.0556 21.2994 13.9656 21.2073 13.8959L18.7756 11.4643C18.7057 11.3923 18.6221 11.3351 18.5296 11.296C18.4372 11.2569 18.3379 11.2368 18.2375 11.2368ZM3.24535 13.2446C3.72451 13.2446 3.98892 13.3973 4.1848 13.6176C4.36578 13.8212 4.47355 14.1133 4.48949 14.4194C4.48399 14.47 4.48367 14.521 4.48851 14.5717C4.47219 14.877 4.36538 15.1684 4.1848 15.3715C3.98892 15.5919 3.72451 15.7446 3.24535 15.7446C2.76618 15.7446 2.50177 15.5919 2.30589 15.3715C2.11002 15.1512 1.99535 14.8279 1.99535 14.4946C1.99535 14.1612 2.11002 13.838 2.30589 13.6176C2.50177 13.3973 2.76618 13.2446 3.24535 13.2446ZM10.9953 13.2446C11.4745 13.2446 11.7389 13.3973 11.9348 13.6176C12.1158 13.8212 12.2236 14.1133 12.2395 14.4194C12.234 14.47 12.2337 14.521 12.2385 14.5717C12.2222 14.877 12.1154 15.1684 11.9348 15.3715C11.7389 15.5919 11.4745 15.7446 10.9953 15.7446C10.5162 15.7446 10.2518 15.5919 10.0559 15.3715C9.87491 15.1679 9.76714 14.8758 9.75121 14.5698C9.7567 14.5192 9.75703 14.4681 9.75218 14.4174C9.76851 14.1121 9.87531 13.8208 10.0559 13.6176C10.2518 13.3973 10.5162 13.2446 10.9953 13.2446Z" fill="#1B1B1B"/>
</svg>
