<svg width="25" height="24" viewBox="0 0 25 24" fill="none" xmlns="http://www.w3.org/2000/svg">
<path d="M6.25 3C4.74011 3 3.5 4.24011 3.5 5.75V18.25C3.5 19.7599 4.74011 21 6.25 21H18.75C20.2599 21 21.5 19.7599 21.5 18.25V5.75C21.5 4.24011 20.2599 3 18.75 3H6.25ZM6.25 4.5H18.75C19.4491 4.5 20 5.05089 20 5.75V18.25C20 18.9491 19.4491 19.5 18.75 19.5H6.25C5.55089 19.5 5 18.9491 5 18.25V5.75C5 5.05089 5.55089 4.5 6.25 4.5ZM11.75 5.5V8.5H6V10H11.75V14H6V15.5H11.75V18.5H13.25V15.5H19V14H13.25V10H19V8.5H13.25V5.5H11.75Z" fill="#1B1B1B"/>
</svg>
