<svg width="823" height="247" viewBox="0 0 823 247" fill="none" xmlns="http://www.w3.org/2000/svg">
<path opacity="0.3" d="M40.1626 222.223C35.0939 223.245 30.3731 223.135 26.0003 221.895C21.6158 220.596 17.9234 218.369 14.9231 215.215C11.9811 212.049 10.0403 208.136 9.10083 203.475L1.5086 165.809L16.54 162.779L23.9737 199.659C24.4199 201.873 25.3203 203.783 26.6748 205.389C28.0176 206.937 29.6394 208.066 31.5404 208.774C33.4296 209.424 35.4229 209.537 37.5203 209.114C39.7342 208.668 41.5862 207.779 43.0761 206.448C44.6125 205.047 45.729 203.367 46.4254 201.408C47.11 199.391 47.2292 197.275 46.783 195.061L39.3493 158.182L53.8563 155.258L61.4485 192.923C62.388 197.584 62.0857 201.95 60.5416 206.02C59.0558 210.078 56.5434 213.556 53.0044 216.452C49.4537 219.289 45.1731 221.213 40.1626 222.223ZM75.2451 214.606L65.8913 168.201L79.1749 165.523L81.5143 174.874L78.9292 176.486C79.1473 174.259 79.9017 172.137 81.1924 170.119C82.5297 168.03 84.2579 166.227 86.3769 164.708C88.496 163.19 90.8373 162.172 93.4008 161.656C96.8964 160.951 99.9854 161.086 102.668 162.061C105.338 162.978 107.573 164.74 109.372 167.349C111.159 169.899 112.464 173.213 113.286 177.291L119.028 205.781L104.958 208.617L99.4447 181.263C99.0689 179.399 98.4955 177.908 97.7246 176.79C96.9536 175.672 95.9559 174.933 94.7315 174.574C93.5536 174.144 92.184 174.117 90.6227 174.493C89.3992 174.739 88.3043 175.172 87.3378 175.791C86.3595 176.352 85.568 177.088 84.9633 177.998C84.3468 178.85 83.8995 179.789 83.6213 180.815C83.4014 181.829 83.403 182.89 83.6261 183.997L89.2278 211.788L82.3238 213.179C80.6925 213.508 79.2943 213.79 78.129 214.025C76.9638 214.26 76.0025 214.453 75.2451 214.606ZM144.108 201.726C140.088 202.536 136.3 202.239 132.743 200.834C129.232 199.359 126.21 196.997 123.675 193.749C121.129 190.443 119.387 186.459 118.447 181.798C117.508 177.137 117.577 172.819 118.655 168.842C119.721 164.808 121.616 161.425 124.339 158.693C127.063 155.962 130.464 154.185 134.542 153.363C136.639 152.94 138.714 152.855 140.766 153.109C142.817 153.362 144.741 153.884 146.538 154.673C148.334 155.463 149.874 156.487 151.158 157.744C152.43 158.942 153.306 160.281 153.787 161.761L150.624 163.217L144.6 133.329L158.67 130.493L171.705 195.163L158.684 197.787L155.766 187.372L158.65 187.245C158.769 188.737 158.468 190.252 157.748 191.792C157.086 193.32 156.103 194.761 154.8 196.115C153.485 197.411 151.895 198.549 150.032 199.531C148.239 200.56 146.264 201.291 144.108 201.726ZM145.349 189.38C147.504 188.946 149.263 188.046 150.625 186.68C151.986 185.314 152.887 183.617 153.327 181.588C153.825 179.548 153.822 177.275 153.317 174.77C152.8 172.206 151.917 170.08 150.667 168.392C149.475 166.692 147.988 165.476 146.203 164.745C144.419 164.013 142.449 163.864 140.293 164.299C138.137 164.733 136.379 165.634 135.017 166.999C133.714 168.353 132.813 170.051 132.315 172.091C131.817 174.132 131.826 176.434 132.343 178.997C132.848 181.502 133.725 183.599 134.975 185.287C136.224 186.976 137.712 188.191 139.438 188.935C141.223 189.666 143.193 189.815 145.349 189.38ZM201.446 190.077C196.319 191.111 191.656 190.99 187.458 189.714C183.248 188.38 179.737 186.147 176.923 183.016C174.097 179.827 172.221 175.931 171.293 171.328C170.577 167.774 170.502 164.394 171.068 161.188C171.634 157.982 172.749 155.089 174.412 152.511C176.063 149.874 178.198 147.685 180.818 145.945C183.485 144.134 186.537 142.882 189.974 142.189C193.237 141.532 196.326 141.515 199.24 142.141C202.214 142.754 204.902 143.909 207.306 145.608C209.709 147.306 211.723 149.476 213.347 152.12C214.971 154.763 216.066 157.786 216.63 161.189L217.301 164.964L180.334 172.416L176.738 164.956L204.354 159.389L203.203 161.349L202.851 159.601C202.441 158.168 201.716 156.98 200.678 156.038C199.685 155.025 198.484 154.328 197.073 153.945C195.662 153.563 194.141 153.536 192.509 153.865C190.237 154.323 188.379 155.182 186.936 156.443C185.539 157.634 184.609 159.186 184.146 161.098C183.671 162.952 183.686 165.132 184.19 167.637C184.707 170.2 185.684 172.338 187.12 174.049C188.603 175.69 190.469 176.83 192.72 177.467C195.029 178.093 197.61 178.119 200.465 177.543C202.446 177.144 204.135 176.5 205.533 175.612C206.988 174.713 208.478 173.382 210.002 171.619L218.424 179.562C216.935 181.499 215.271 183.168 213.431 184.569C211.592 185.971 209.641 187.122 207.579 188.023C205.588 188.97 203.543 189.655 201.446 190.077ZM225.996 184.219L216.642 137.814L229.926 135.137L233.585 150.132L230.382 147.777C230.576 145.131 231.26 142.659 232.434 140.361C233.666 138.051 235.242 136.096 237.163 134.497C239.084 132.897 241.268 131.85 243.715 131.357C244.763 131.146 245.742 131.039 246.651 131.038C247.619 131.025 248.505 131.058 249.309 131.139L248.582 147.382C247.859 147.104 246.92 146.959 245.766 146.949C244.659 146.869 243.523 146.947 242.357 147.182C241.076 147.44 239.928 147.914 238.915 148.603C237.89 149.234 237.082 150.034 236.489 151.002C235.896 151.97 235.478 153.055 235.235 154.256C235.05 155.445 235.099 156.739 235.38 158.137L240.066 181.383L225.996 184.219ZM286.505 172.023L274.175 110.848L299.78 105.687C304.266 104.783 308.527 104.712 312.561 105.476C316.583 106.18 320.21 107.632 323.442 109.83C326.732 112.016 329.481 114.827 331.689 118.262C333.898 121.697 335.454 125.658 336.358 130.144C337.262 134.63 337.368 138.914 336.675 142.994C335.97 147.016 334.524 150.673 332.338 153.963C330.198 157.183 327.416 159.926 323.993 162.193C320.558 164.401 316.597 165.957 312.111 166.861L286.505 172.023ZM299.319 158.891L296.71 156.324L309.032 153.841C311.479 153.347 313.581 152.499 315.34 151.296C317.086 150.035 318.477 148.511 319.511 146.727C320.604 144.93 321.312 142.877 321.635 140.569C321.958 138.261 321.855 135.796 321.327 133.174C320.798 130.552 319.938 128.24 318.746 126.237C317.554 124.234 316.106 122.616 314.403 121.383C312.758 120.138 310.891 119.302 308.804 118.874C306.706 118.387 304.433 118.391 301.986 118.884L289.401 121.421L291.11 118.166L299.319 158.891ZM370.443 156.013C365.316 157.046 360.654 156.925 356.456 155.649C352.246 154.315 348.734 152.083 345.92 148.952C343.095 145.762 341.218 141.866 340.29 137.263C339.574 133.71 339.499 130.329 340.065 127.123C340.632 123.917 341.746 121.025 343.409 118.446C345.06 115.81 347.196 113.621 349.816 111.88C352.482 110.07 355.534 108.818 358.972 108.125C362.234 107.467 365.323 107.451 368.238 108.076C371.211 108.689 373.899 109.845 376.303 111.543C378.707 113.241 380.721 115.412 382.345 118.055C383.969 120.699 385.063 123.722 385.628 127.125L386.298 130.9L349.331 138.351L345.736 130.891L373.352 125.325L372.201 127.285L371.848 125.537C371.438 124.104 370.714 122.916 369.675 121.973C368.683 120.961 367.481 120.263 366.07 119.881C364.659 119.498 363.138 119.471 361.507 119.8C359.235 120.258 357.377 121.118 355.933 122.379C354.536 123.57 353.606 125.121 353.143 127.034C352.668 128.888 352.683 131.067 353.188 133.572C353.705 136.136 354.681 138.273 356.117 139.985C357.6 141.626 359.467 142.765 361.717 143.403C364.026 144.029 366.608 144.054 369.463 143.479C371.443 143.079 373.133 142.436 374.53 141.548C375.986 140.648 377.475 139.317 379 137.555L387.421 145.497C385.932 147.434 384.268 149.104 382.429 150.505C380.589 151.907 378.638 153.058 376.577 153.958C374.585 154.905 372.54 155.59 370.443 156.013ZM408.385 147.456L379.63 104.961L395.098 101.843L413.627 134.213L410.29 135.249L415.111 97.8094L430.405 94.7267L419.396 145.236L408.385 147.456ZM463.689 137.218C458.562 138.251 453.9 138.13 449.702 136.854C445.492 135.52 441.98 133.287 439.167 130.156C436.341 126.967 434.465 123.071 433.537 118.468C432.82 114.914 432.745 111.534 433.312 108.328C433.878 105.122 434.993 102.229 436.656 99.6509C438.307 97.0142 440.442 94.8255 443.062 93.0848C445.729 91.2742 448.781 90.0224 452.218 89.3295C455.481 88.6719 458.569 88.6556 461.484 89.2806C464.457 89.8939 467.146 91.0496 469.549 92.7477C471.953 94.4458 473.967 96.6166 475.591 99.26C477.215 101.903 478.31 104.926 478.874 108.329L479.544 112.105L442.578 119.556L438.982 112.096L466.598 106.529L465.447 108.489L465.095 106.741C464.685 105.308 463.96 104.12 462.921 103.178C461.929 102.165 460.727 101.468 459.317 101.085C457.906 100.703 456.385 100.676 454.753 101.005C452.481 101.463 450.623 102.322 449.18 103.583C447.783 104.774 446.853 106.326 446.389 108.238C445.914 110.092 445.929 112.272 446.434 114.777C446.951 117.34 447.927 119.478 449.364 121.189C450.846 122.83 452.713 123.97 454.964 124.607C457.272 125.233 459.854 125.259 462.709 124.683C464.69 124.284 466.379 123.64 467.776 122.752C469.232 121.853 470.722 120.522 472.246 118.759L480.668 126.702C479.179 128.639 477.514 130.308 475.675 131.71C473.835 133.111 471.885 134.262 469.823 135.163C467.831 136.11 465.787 136.795 463.689 137.218ZM488.327 131.342L475.292 66.672L489.274 63.8535L502.31 128.523L488.327 131.342ZM531.583 123.532C526.747 124.507 522.224 124.327 518.015 122.993C513.863 121.648 510.316 119.392 507.374 116.226C504.49 113.048 502.579 109.129 501.639 104.468C500.7 99.807 500.944 95.4532 502.371 91.4065C503.857 87.348 506.253 83.8943 509.559 81.0453C512.923 78.1846 517.023 76.2668 521.859 75.2921C526.695 74.3174 531.188 74.503 535.34 75.8488C539.549 77.1828 543.096 79.4387 545.98 82.6164C548.864 85.7941 550.775 89.7134 551.715 94.3743C552.654 99.0352 552.41 103.389 550.983 107.436C549.555 111.482 547.159 114.936 543.795 117.797C540.489 120.646 536.418 122.558 531.583 123.532ZM529.152 111.472C531.249 111.05 533.008 110.149 534.428 108.772C535.848 107.394 536.842 105.709 537.41 103.715C537.978 101.721 537.998 99.5643 537.47 97.2456C537.059 94.9034 536.205 92.9232 534.908 91.305C533.6 89.6285 532.025 88.4304 530.182 87.7105C528.34 86.9906 526.37 86.842 524.272 87.2648C522.175 87.6876 520.387 88.5936 518.909 89.9829C517.489 91.3604 516.501 93.0753 515.944 95.1275C515.376 97.1215 515.356 99.2779 515.884 101.597C516.296 103.939 517.15 105.919 518.446 107.537C519.742 109.155 521.312 110.324 523.154 111.044C525.055 111.752 527.054 111.895 529.152 111.472ZM565.05 135.884L551.821 70.2532L565.104 67.5757L567.725 77.8696L564.944 77.6115C564.965 75.6067 565.603 73.6592 566.859 71.7691C568.115 69.879 569.843 68.2271 572.044 66.8134C574.291 65.3297 576.755 64.3178 579.435 63.7776C583.397 62.979 587.133 63.3172 590.644 64.7922C594.142 66.209 597.13 68.5473 599.606 71.8072C602.128 74.997 603.865 78.9516 604.816 83.6707C605.756 88.3316 605.687 92.6502 604.609 96.6264C603.589 100.591 601.717 103.939 598.994 106.671C596.317 109.332 592.969 111.068 588.949 111.878C586.327 112.407 583.722 112.417 581.134 111.908C578.545 111.399 576.265 110.464 574.293 109.103C572.321 107.742 570.874 106.124 569.95 104.249L572.937 102.374L579.12 133.048L565.05 135.884ZM583.162 100.767C585.26 100.345 586.995 99.4795 588.369 98.172C589.73 96.8062 590.666 95.1322 591.176 93.1499C591.686 91.1677 591.688 88.924 591.183 86.4187C590.69 83.9717 589.824 81.9333 588.586 80.3033C587.337 78.6151 585.826 77.4344 584.053 76.761C582.327 76.0176 580.386 75.8632 578.23 76.2977C576.074 76.7322 574.31 77.6032 572.936 78.9108C571.563 80.2183 570.627 81.8923 570.129 83.9328C569.631 85.9733 569.629 88.2171 570.122 90.664C570.627 93.1693 571.498 95.2368 572.736 96.8668C573.974 98.4967 575.485 99.6775 577.27 100.409C579.043 101.083 581.007 101.202 583.162 100.767ZM614.324 105.945L604.971 59.5399L618.254 56.8623L620.382 65.1639L618.565 65.6212C618.958 63.9655 619.562 62.4493 620.376 61.0727C621.248 59.6844 622.278 58.4764 623.465 57.4489C624.699 56.3514 626.003 55.452 627.377 54.7505C628.81 54.0374 630.284 53.5281 631.798 53.2228C634.071 52.7648 636.209 52.6975 638.215 53.0208C640.22 53.3442 642.08 54.1514 643.796 55.4426C645.499 56.6756 647.023 58.5207 648.367 60.9781L646.147 61.2437L646.564 59.7045C647.04 58.1535 647.749 56.7072 648.691 55.3653C649.68 53.9535 650.826 52.7221 652.13 51.6711C653.422 50.5618 654.813 49.6448 656.304 48.9199C657.795 48.195 659.269 47.6857 660.725 47.3921C664.396 46.6523 667.601 46.764 670.342 47.7273C673.07 48.6323 675.334 50.3889 677.133 52.9971C678.99 55.5936 680.33 58.9309 681.152 63.0092L686.86 91.3242L672.789 94.1602L667.311 66.9814C666.935 65.117 666.362 63.626 665.591 62.5082C664.82 61.3904 663.851 60.6459 662.685 60.2746C661.566 59.8334 660.248 59.7654 658.734 60.0708C657.51 60.3174 656.415 60.7503 655.449 61.3695C654.54 61.977 653.778 62.7066 653.162 63.5584C652.603 64.3985 652.214 65.3257 651.994 66.3401C651.774 67.3545 651.782 68.4443 652.017 69.6095L657.583 97.2253L643.513 100.061L638.017 72.7952C637.665 71.0473 637.103 69.6145 636.332 68.4967C635.561 67.3789 634.587 66.6053 633.409 66.1758C632.231 65.7463 630.943 65.6725 629.545 65.9543C628.321 66.2009 627.226 66.6338 626.26 67.2531C625.352 67.8605 624.589 68.5902 623.973 69.442C623.415 70.282 623.025 71.2092 622.806 72.2236C622.586 73.238 622.587 74.2987 622.81 75.4057L628.394 103.109L614.324 105.945ZM716.392 86.2808C711.265 87.3143 706.602 87.1931 702.404 85.9173C698.195 84.5832 694.683 82.3506 691.869 79.2194C689.044 76.03 687.167 72.134 686.239 67.5313C685.523 63.9774 685.448 60.5973 686.014 57.3911C686.58 54.1849 687.695 51.2926 689.358 48.7142C691.009 46.0775 693.145 43.8888 695.765 42.1482C698.431 40.3375 701.483 39.0857 704.92 38.3928C708.183 37.7352 711.272 37.7189 714.187 38.3439C717.16 38.9572 719.848 40.1129 722.252 41.811C724.655 43.5091 726.669 45.6799 728.293 48.3233C729.918 50.9667 731.012 53.9898 731.577 57.3924L732.247 61.1679L695.28 68.6192L691.684 61.1591L719.3 55.5926L718.149 57.5525L717.797 55.8047C717.387 54.3716 716.662 53.1838 715.624 52.2413C714.631 51.2287 713.43 50.5312 712.019 50.1487C710.608 49.7662 709.087 49.7393 707.456 50.0681C705.183 50.5261 703.326 51.3856 701.882 52.6466C700.485 53.8376 699.555 55.3892 699.092 57.3015C698.617 59.1555 698.632 61.3351 699.137 63.8403C699.653 66.4038 700.63 68.5412 702.066 70.2524C703.549 71.8936 705.415 73.0331 707.666 73.6708C709.975 74.2967 712.557 74.3219 715.411 73.7465C717.392 73.3472 719.081 72.7036 720.479 71.8157C721.934 70.916 723.424 69.585 724.948 67.8227L733.37 75.765C731.881 77.7021 730.217 79.3714 728.377 80.7729C726.538 82.1744 724.587 83.3254 722.525 84.226C720.534 85.1731 718.489 85.8581 716.392 86.2808ZM740.942 80.4229L731.588 34.0178L744.872 31.3403L747.211 40.6905L744.626 42.3029C744.844 40.0763 745.599 37.9538 746.889 35.9354C748.227 33.847 749.955 32.0436 752.074 30.5252C754.193 29.0067 756.534 27.9891 759.098 27.4724C762.593 26.7678 765.682 26.903 768.365 27.8781C771.035 28.7948 773.27 30.5573 775.069 33.1655C776.856 35.7154 778.161 39.0295 778.983 43.1078L784.725 71.5976L770.655 74.4336L765.142 47.08C764.766 45.2156 764.192 43.7246 763.422 42.6068C762.651 41.489 761.653 40.7503 760.428 40.3909C759.251 39.9614 757.881 39.9343 756.32 40.3096C755.096 40.5562 754.001 40.9892 753.035 41.6084C752.056 42.1693 751.265 42.9048 750.66 43.8149C750.044 44.6667 749.596 45.6057 749.318 46.6318C749.098 47.6462 749.1 48.7068 749.323 49.8138L754.925 77.6044L748.021 78.996C746.389 79.3248 744.991 79.6067 743.826 79.8416C742.661 80.0764 741.699 80.2702 740.942 80.4229ZM795.891 69.3469L784.177 11.2314L798.16 8.41289L809.874 66.5285L795.891 69.3469ZM780.789 36.8326L778.322 24.5977L809.521 18.309L811.987 30.5439L780.789 36.8326Z" fill="white"/>
</svg>
