<svg width="90" height="18" viewBox="0 0 90 18" fill="none" xmlns="http://www.w3.org/2000/svg">
<path d="M3.26 14.02V2.66L4 4L1.08 5.42L0.5 2.76L4.4 0.799999H6.22V14.02H3.26ZM0.8 15V12.3H8.74V15H0.8ZM11.2398 15L10.5798 13.36L14.7198 8.78C14.9465 8.54 15.1865 8.26 15.4398 7.94C15.7065 7.62 15.9598 7.29333 16.1998 6.96C16.4532 6.61333 16.6532 6.28 16.7998 5.96C16.9465 5.62667 17.0198 5.32667 17.0198 5.06C17.0198 4.75333 16.9532 4.48667 16.8198 4.26C16.6865 4.02 16.4932 3.83333 16.2398 3.7C15.9865 3.56667 15.6732 3.5 15.2998 3.5C14.9532 3.5 14.6265 3.59333 14.3198 3.78C14.0132 3.95333 13.7265 4.21333 13.4598 4.56C13.1932 4.90667 12.9598 5.32667 12.7598 5.82L10.5198 4.56C10.7865 3.78667 11.1665 3.11333 11.6598 2.54C12.1532 1.96667 12.7398 1.52 13.4198 1.2C14.0998 0.879999 14.8265 0.719999 15.5998 0.719999C16.4132 0.733332 17.1465 0.906666 17.7998 1.24C18.4532 1.57333 18.9665 2.04 19.3398 2.64C19.7132 3.24 19.8998 3.93333 19.8998 4.72C19.8998 5.01333 19.8665 5.31333 19.7998 5.62C19.7465 5.92667 19.6465 6.24667 19.4998 6.58C19.3665 6.91333 19.1865 7.26667 18.9598 7.64C18.7465 8 18.4798 8.38667 18.1598 8.8C17.8532 9.2 17.4998 9.62 17.0998 10.06L13.9198 13.52L13.5198 12.3H20.4798V15H11.2398ZM28.8969 15L26.2769 11.26L25.4769 10.14L21.1969 4.42H24.6369L27.1969 8.04L28.0769 9.24L32.2969 15H28.8969ZM21.1569 15L25.3769 9.22L26.9369 11.08L24.4969 15H21.1569ZM27.9569 10.24L26.4369 8.38L28.6969 4.42H32.0369L27.9569 10.24Z" fill="url(#paint0_linear_10905_90018)"/>
<path d="M38.0134 17.42V9.181H39.5204L39.5644 10.49L39.2784 10.391C39.3298 10.1563 39.4544 9.94 39.6524 9.742C39.8578 9.544 40.1108 9.38267 40.4114 9.258C40.7121 9.13333 41.0274 9.071 41.3574 9.071C41.8634 9.071 42.3108 9.203 42.6994 9.467C43.0954 9.72367 43.4071 10.0793 43.6344 10.534C43.8691 10.9813 43.9864 11.4983 43.9864 12.085C43.9864 12.6643 43.8728 13.1813 43.6454 13.636C43.4181 14.0907 43.1064 14.45 42.7104 14.714C42.3144 14.9707 41.8634 15.099 41.3574 15.099C41.0201 15.099 40.6974 15.0367 40.3894 14.912C40.0888 14.78 39.8321 14.6077 39.6194 14.395C39.4068 14.1823 39.2748 13.955 39.2234 13.713L39.5864 13.559V17.42H38.0134ZM41.0054 13.757C41.2914 13.757 41.5444 13.6873 41.7644 13.548C41.9844 13.4087 42.1568 13.2143 42.2814 12.965C42.4061 12.7083 42.4684 12.415 42.4684 12.085C42.4684 11.755 42.4061 11.4653 42.2814 11.216C42.1568 10.9667 41.9844 10.7723 41.7644 10.633C41.5518 10.4937 41.2988 10.424 41.0054 10.424C40.7121 10.424 40.4554 10.4937 40.2354 10.633C40.0154 10.765 39.8431 10.9593 39.7184 11.216C39.5938 11.4653 39.5314 11.755 39.5314 12.085C39.5314 12.415 39.5938 12.7083 39.7184 12.965C39.8431 13.2143 40.0154 13.4087 40.2354 13.548C40.4554 13.6873 40.7121 13.757 41.0054 13.757ZM47.9287 15.11C47.2981 15.11 46.7481 14.9817 46.2787 14.725C45.8094 14.4683 45.4427 14.1163 45.1787 13.669C44.9147 13.2217 44.7827 12.7083 44.7827 12.129C44.7827 11.6817 44.8561 11.271 45.0027 10.897C45.1494 10.523 45.3547 10.2003 45.6187 9.929C45.8827 9.65033 46.1944 9.43767 46.5537 9.291C46.9204 9.137 47.3164 9.06 47.7417 9.06C48.1377 9.06 48.5044 9.13333 48.8417 9.28C49.1791 9.41933 49.4687 9.621 49.7107 9.885C49.9601 10.1417 50.1507 10.446 50.2827 10.798C50.4147 11.15 50.4734 11.535 50.4587 11.953L50.4477 12.437H45.7727L45.5197 11.48H49.1607L48.9847 11.678V11.436C48.9701 11.238 48.9041 11.0583 48.7867 10.897C48.6767 10.7357 48.5337 10.611 48.3577 10.523C48.1817 10.435 47.9837 10.391 47.7637 10.391C47.4411 10.391 47.1661 10.4533 46.9387 10.578C46.7187 10.7027 46.5501 10.886 46.4327 11.128C46.3154 11.37 46.2567 11.6633 46.2567 12.008C46.2567 12.36 46.3301 12.6643 46.4767 12.921C46.6307 13.1777 46.8434 13.3793 47.1147 13.526C47.3934 13.6653 47.7197 13.735 48.0937 13.735C48.3504 13.735 48.5851 13.6947 48.7977 13.614C49.0104 13.5333 49.2377 13.394 49.4797 13.196L50.2277 14.241C50.0151 14.4317 49.7804 14.593 49.5237 14.725C49.2671 14.8497 49.0031 14.945 48.7317 15.011C48.4604 15.077 48.1927 15.11 47.9287 15.11ZM51.613 15V9.181H53.12L53.175 11.051L52.911 10.666C52.999 10.3653 53.142 10.094 53.34 9.852C53.538 9.60267 53.769 9.40833 54.033 9.269C54.3044 9.12967 54.5867 9.06 54.88 9.06C55.0047 9.06 55.1257 9.071 55.243 9.093C55.3604 9.115 55.4594 9.14067 55.54 9.17L55.122 10.886C55.034 10.842 54.9277 10.8053 54.803 10.776C54.6784 10.7393 54.55 10.721 54.418 10.721C54.242 10.721 54.077 10.754 53.923 10.82C53.7764 10.8787 53.648 10.9667 53.538 11.084C53.428 11.194 53.34 11.326 53.274 11.48C53.2154 11.634 53.186 11.8027 53.186 11.986V15H51.613ZM60.0293 15V7.3H61.6793V13.515H65.1663V15H60.0293ZM69.8954 15.11C69.3307 15.11 68.81 15.011 68.3334 14.813C67.8567 14.615 67.4387 14.34 67.0794 13.988C66.7274 13.6287 66.456 13.207 66.2654 12.723C66.0747 12.2317 65.9794 11.7 65.9794 11.128C65.9794 10.5487 66.0747 10.0207 66.2654 9.544C66.456 9.06 66.7274 8.63833 67.0794 8.279C67.4387 7.91967 67.8567 7.641 68.3334 7.443C68.81 7.245 69.3307 7.146 69.8954 7.146C70.4674 7.146 70.988 7.245 71.4574 7.443C71.934 7.641 72.3484 7.91967 72.7004 8.279C73.0597 8.63833 73.3347 9.06 73.5254 9.544C73.716 10.028 73.8114 10.556 73.8114 11.128C73.8114 11.7 73.716 12.228 73.5254 12.712C73.3347 13.196 73.0597 13.6177 72.7004 13.977C72.3484 14.3363 71.934 14.615 71.4574 14.813C70.988 15.011 70.4674 15.11 69.8954 15.11ZM69.8954 13.548C70.218 13.548 70.515 13.4893 70.7864 13.372C71.065 13.2547 71.3034 13.086 71.5014 12.866C71.6994 12.646 71.8534 12.3893 71.9634 12.096C72.0807 11.8027 72.1394 11.48 72.1394 11.128C72.1394 10.776 72.0807 10.4533 71.9634 10.16C71.8534 9.86667 71.6994 9.61367 71.5014 9.401C71.3034 9.181 71.065 9.01233 70.7864 8.895C70.515 8.77033 70.218 8.708 69.8954 8.708C69.5727 8.708 69.2757 8.77033 69.0044 8.895C68.733 9.01233 68.4947 9.181 68.2894 9.401C68.084 9.61367 67.9264 9.86667 67.8164 10.16C67.7137 10.4533 67.6624 10.776 67.6624 11.128C67.6624 11.48 67.7137 11.8027 67.8164 12.096C67.9264 12.3893 68.084 12.646 68.2894 12.866C68.4947 13.086 68.733 13.2547 69.0044 13.372C69.2757 13.4893 69.5727 13.548 69.8954 13.548ZM78.7147 15.11C78.15 15.11 77.6294 15.011 77.1527 14.813C76.676 14.615 76.258 14.34 75.8987 13.988C75.5467 13.6287 75.2754 13.207 75.0847 12.723C74.894 12.2317 74.7987 11.7 74.7987 11.128C74.7987 10.5487 74.894 10.0207 75.0847 9.544C75.2754 9.06 75.5467 8.63833 75.8987 8.279C76.258 7.91967 76.676 7.641 77.1527 7.443C77.6294 7.245 78.15 7.146 78.7147 7.146C79.2867 7.146 79.8074 7.245 80.2767 7.443C80.7534 7.641 81.1677 7.91967 81.5197 8.279C81.879 8.63833 82.154 9.06 82.3447 9.544C82.5354 10.028 82.6307 10.556 82.6307 11.128C82.6307 11.7 82.5354 12.228 82.3447 12.712C82.154 13.196 81.879 13.6177 81.5197 13.977C81.1677 14.3363 80.7534 14.615 80.2767 14.813C79.8074 15.011 79.2867 15.11 78.7147 15.11ZM78.7147 13.548C79.0374 13.548 79.3344 13.4893 79.6057 13.372C79.8844 13.2547 80.1227 13.086 80.3207 12.866C80.5187 12.646 80.6727 12.3893 80.7827 12.096C80.9 11.8027 80.9587 11.48 80.9587 11.128C80.9587 10.776 80.9 10.4533 80.7827 10.16C80.6727 9.86667 80.5187 9.61367 80.3207 9.401C80.1227 9.181 79.8844 9.01233 79.6057 8.895C79.3344 8.77033 79.0374 8.708 78.7147 8.708C78.392 8.708 78.095 8.77033 77.8237 8.895C77.5524 9.01233 77.314 9.181 77.1087 9.401C76.9034 9.61367 76.7457 9.86667 76.6357 10.16C76.533 10.4533 76.4817 10.776 76.4817 11.128C76.4817 11.48 76.533 11.8027 76.6357 12.096C76.7457 12.3893 76.9034 12.646 77.1087 12.866C77.314 13.086 77.5524 13.2547 77.8237 13.372C78.095 13.4893 78.392 13.548 78.7147 13.548ZM84.124 15V7.3H87.391C87.8457 7.3 88.2564 7.41 88.623 7.63C88.997 7.84267 89.2904 8.136 89.503 8.51C89.723 8.884 89.833 9.30567 89.833 9.775C89.833 10.2517 89.723 10.6807 89.503 11.062C89.2904 11.4433 88.997 11.7477 88.623 11.975C88.2564 12.195 87.8457 12.305 87.391 12.305H85.774V15H84.124ZM85.752 10.82H87.204C87.38 10.82 87.5377 10.776 87.677 10.688C87.8164 10.5927 87.9264 10.468 88.007 10.314C88.095 10.16 88.139 9.984 88.139 9.786C88.139 9.588 88.095 9.41567 88.007 9.269C87.9264 9.115 87.8164 8.99767 87.677 8.917C87.5377 8.829 87.38 8.785 87.204 8.785H85.752V10.82Z" fill="white"/>
<defs>
<linearGradient id="paint0_linear_10905_90018" x1="-1" y1="3.5" x2="34.8309" y2="13.0989" gradientUnits="userSpaceOnUse">
<stop offset="0.207304" stop-color="#FF52BC"/>
<stop offset="1" stop-color="#01E6FF"/>
</linearGradient>
</defs>
</svg>
