<svg width="79" height="18" viewBox="0 0 79 18" fill="none" xmlns="http://www.w3.org/2000/svg">
<path d="M3.26 14.02V2.66L4 4L1.08 5.42L0.5 2.76L4.4 0.799999H6.22V14.02H3.26ZM0.8 15V12.3H8.74V15H0.8ZM17.9398 15L15.3198 11.26L14.5198 10.14L10.2398 4.42H13.6798L16.2398 8.04L17.1198 9.24L21.3398 15H17.9398ZM10.1998 15L14.4198 9.22L15.9798 11.08L13.5398 15H10.1998ZM16.9998 10.24L15.4798 8.38L17.7398 4.42H21.0798L16.9998 10.24Z" fill="url(#paint0_linear_10905_90020)"/>
<path d="M27.0564 17.42V9.181H28.5634L28.6074 10.49L28.3214 10.391C28.3727 10.1563 28.4974 9.94 28.6954 9.742C28.9007 9.544 29.1537 9.38267 29.4544 9.258C29.7551 9.13333 30.0704 9.071 30.4004 9.071C30.9064 9.071 31.3537 9.203 31.7424 9.467C32.1384 9.72367 32.4501 10.0793 32.6774 10.534C32.9121 10.9813 33.0294 11.4983 33.0294 12.085C33.0294 12.6643 32.9157 13.1813 32.6884 13.636C32.4611 14.0907 32.1494 14.45 31.7534 14.714C31.3574 14.9707 30.9064 15.099 30.4004 15.099C30.0631 15.099 29.7404 15.0367 29.4324 14.912C29.1317 14.78 28.8751 14.6077 28.6624 14.395C28.4497 14.1823 28.3177 13.955 28.2664 13.713L28.6294 13.559V17.42H27.0564ZM30.0484 13.757C30.3344 13.757 30.5874 13.6873 30.8074 13.548C31.0274 13.4087 31.1997 13.2143 31.3244 12.965C31.4491 12.7083 31.5114 12.415 31.5114 12.085C31.5114 11.755 31.4491 11.4653 31.3244 11.216C31.1997 10.9667 31.0274 10.7723 30.8074 10.633C30.5947 10.4937 30.3417 10.424 30.0484 10.424C29.7551 10.424 29.4984 10.4937 29.2784 10.633C29.0584 10.765 28.8861 10.9593 28.7614 11.216C28.6367 11.4653 28.5744 11.755 28.5744 12.085C28.5744 12.415 28.6367 12.7083 28.7614 12.965C28.8861 13.2143 29.0584 13.4087 29.2784 13.548C29.4984 13.6873 29.7551 13.757 30.0484 13.757ZM36.9717 15.11C36.341 15.11 35.791 14.9817 35.3217 14.725C34.8524 14.4683 34.4857 14.1163 34.2217 13.669C33.9577 13.2217 33.8257 12.7083 33.8257 12.129C33.8257 11.6817 33.899 11.271 34.0457 10.897C34.1924 10.523 34.3977 10.2003 34.6617 9.929C34.9257 9.65033 35.2374 9.43767 35.5967 9.291C35.9634 9.137 36.3594 9.06 36.7847 9.06C37.1807 9.06 37.5474 9.13333 37.8847 9.28C38.222 9.41933 38.5117 9.621 38.7537 9.885C39.003 10.1417 39.1937 10.446 39.3257 10.798C39.4577 11.15 39.5164 11.535 39.5017 11.953L39.4907 12.437H34.8157L34.5627 11.48H38.2037L38.0277 11.678V11.436C38.013 11.238 37.947 11.0583 37.8297 10.897C37.7197 10.7357 37.5767 10.611 37.4007 10.523C37.2247 10.435 37.0267 10.391 36.8067 10.391C36.484 10.391 36.209 10.4533 35.9817 10.578C35.7617 10.7027 35.593 10.886 35.4757 11.128C35.3584 11.37 35.2997 11.6633 35.2997 12.008C35.2997 12.36 35.373 12.6643 35.5197 12.921C35.6737 13.1777 35.8864 13.3793 36.1577 13.526C36.4364 13.6653 36.7627 13.735 37.1367 13.735C37.3934 13.735 37.628 13.6947 37.8407 13.614C38.0534 13.5333 38.2807 13.394 38.5227 13.196L39.2707 14.241C39.058 14.4317 38.8234 14.593 38.5667 14.725C38.31 14.8497 38.046 14.945 37.7747 15.011C37.5034 15.077 37.2357 15.11 36.9717 15.11ZM40.656 15V9.181H42.163L42.218 11.051L41.954 10.666C42.042 10.3653 42.185 10.094 42.383 9.852C42.581 9.60267 42.812 9.40833 43.076 9.269C43.3473 9.12967 43.6297 9.06 43.923 9.06C44.0477 9.06 44.1687 9.071 44.286 9.093C44.4033 9.115 44.5023 9.14067 44.583 9.17L44.165 10.886C44.077 10.842 43.9707 10.8053 43.846 10.776C43.7213 10.7393 43.593 10.721 43.461 10.721C43.285 10.721 43.12 10.754 42.966 10.82C42.8193 10.8787 42.691 10.9667 42.581 11.084C42.471 11.194 42.383 11.326 42.317 11.48C42.2583 11.634 42.229 11.8027 42.229 11.986V15H40.656ZM49.0723 15V7.3H50.7223V13.515H54.2093V15H49.0723ZM58.9383 15.11C58.3737 15.11 57.853 15.011 57.3763 14.813C56.8997 14.615 56.4817 14.34 56.1223 13.988C55.7703 13.6287 55.499 13.207 55.3083 12.723C55.1177 12.2317 55.0223 11.7 55.0223 11.128C55.0223 10.5487 55.1177 10.0207 55.3083 9.544C55.499 9.06 55.7703 8.63833 56.1223 8.279C56.4817 7.91967 56.8997 7.641 57.3763 7.443C57.853 7.245 58.3737 7.146 58.9383 7.146C59.5103 7.146 60.031 7.245 60.5003 7.443C60.977 7.641 61.3913 7.91967 61.7433 8.279C62.1027 8.63833 62.3777 9.06 62.5683 9.544C62.759 10.028 62.8543 10.556 62.8543 11.128C62.8543 11.7 62.759 12.228 62.5683 12.712C62.3777 13.196 62.1027 13.6177 61.7433 13.977C61.3913 14.3363 60.977 14.615 60.5003 14.813C60.031 15.011 59.5103 15.11 58.9383 15.11ZM58.9383 13.548C59.261 13.548 59.558 13.4893 59.8293 13.372C60.108 13.2547 60.3463 13.086 60.5443 12.866C60.7423 12.646 60.8963 12.3893 61.0063 12.096C61.1237 11.8027 61.1823 11.48 61.1823 11.128C61.1823 10.776 61.1237 10.4533 61.0063 10.16C60.8963 9.86667 60.7423 9.61367 60.5443 9.401C60.3463 9.181 60.108 9.01233 59.8293 8.895C59.558 8.77033 59.261 8.708 58.9383 8.708C58.6157 8.708 58.3187 8.77033 58.0473 8.895C57.776 9.01233 57.5377 9.181 57.3323 9.401C57.127 9.61367 56.9693 9.86667 56.8593 10.16C56.7567 10.4533 56.7053 10.776 56.7053 11.128C56.7053 11.48 56.7567 11.8027 56.8593 12.096C56.9693 12.3893 57.127 12.646 57.3323 12.866C57.5377 13.086 57.776 13.2547 58.0473 13.372C58.3187 13.4893 58.6157 13.548 58.9383 13.548ZM67.7577 15.11C67.193 15.11 66.6723 15.011 66.1957 14.813C65.719 14.615 65.301 14.34 64.9417 13.988C64.5897 13.6287 64.3183 13.207 64.1277 12.723C63.937 12.2317 63.8417 11.7 63.8417 11.128C63.8417 10.5487 63.937 10.0207 64.1277 9.544C64.3183 9.06 64.5897 8.63833 64.9417 8.279C65.301 7.91967 65.719 7.641 66.1957 7.443C66.6723 7.245 67.193 7.146 67.7577 7.146C68.3297 7.146 68.8503 7.245 69.3197 7.443C69.7963 7.641 70.2107 7.91967 70.5627 8.279C70.922 8.63833 71.197 9.06 71.3877 9.544C71.5783 10.028 71.6737 10.556 71.6737 11.128C71.6737 11.7 71.5783 12.228 71.3877 12.712C71.197 13.196 70.922 13.6177 70.5627 13.977C70.2107 14.3363 69.7963 14.615 69.3197 14.813C68.8503 15.011 68.3297 15.11 67.7577 15.11ZM67.7577 13.548C68.0803 13.548 68.3773 13.4893 68.6487 13.372C68.9273 13.2547 69.1657 13.086 69.3637 12.866C69.5617 12.646 69.7157 12.3893 69.8257 12.096C69.943 11.8027 70.0017 11.48 70.0017 11.128C70.0017 10.776 69.943 10.4533 69.8257 10.16C69.7157 9.86667 69.5617 9.61367 69.3637 9.401C69.1657 9.181 68.9273 9.01233 68.6487 8.895C68.3773 8.77033 68.0803 8.708 67.7577 8.708C67.435 8.708 67.138 8.77033 66.8667 8.895C66.5953 9.01233 66.357 9.181 66.1517 9.401C65.9463 9.61367 65.7887 9.86667 65.6787 10.16C65.576 10.4533 65.5247 10.776 65.5247 11.128C65.5247 11.48 65.576 11.8027 65.6787 12.096C65.7887 12.3893 65.9463 12.646 66.1517 12.866C66.357 13.086 66.5953 13.2547 66.8667 13.372C67.138 13.4893 67.435 13.548 67.7577 13.548ZM73.167 15V7.3H76.434C76.8887 7.3 77.2993 7.41 77.666 7.63C78.04 7.84267 78.3333 8.136 78.546 8.51C78.766 8.884 78.876 9.30567 78.876 9.775C78.876 10.2517 78.766 10.6807 78.546 11.062C78.3333 11.4433 78.04 11.7477 77.666 11.975C77.2993 12.195 76.8887 12.305 76.434 12.305H74.817V15H73.167ZM74.795 10.82H76.247C76.423 10.82 76.5807 10.776 76.72 10.688C76.8593 10.5927 76.9693 10.468 77.05 10.314C77.138 10.16 77.182 9.984 77.182 9.786C77.182 9.588 77.138 9.41567 77.05 9.269C76.9693 9.115 76.8593 8.99767 76.72 8.917C76.5807 8.829 76.423 8.785 76.247 8.785H74.795V10.82Z" fill="white"/>
<defs>
<linearGradient id="paint0_linear_10905_90020" x1="-1" y1="3.5" x2="31.0289" y2="11.0545" gradientUnits="userSpaceOnUse">
<stop offset="0.207304" stop-color="#FF52BC"/>
<stop offset="1" stop-color="#01E6FF"/>
</linearGradient>
</defs>
</svg>
