<svg width="93" height="18" viewBox="0 0 93 18" fill="none" xmlns="http://www.w3.org/2000/svg">
<path d="M1.4 15L0.74 13.36L4.88 8.78C5.10667 8.54 5.34667 8.26 5.6 7.94C5.86667 7.62 6.12 7.29333 6.36 6.96C6.61333 6.61333 6.81333 6.28 6.96 5.96C7.10667 5.62667 7.18 5.32667 7.18 5.06C7.18 4.75333 7.11333 4.48667 6.98 4.26C6.84667 4.02 6.65333 3.83333 6.4 3.7C6.14667 3.56667 5.83333 3.5 5.46 3.5C5.11333 3.5 4.78667 3.59333 4.48 3.78C4.17333 3.95333 3.88667 4.21333 3.62 4.56C3.35333 4.90667 3.12 5.32667 2.92 5.82L0.68 4.56C0.946667 3.78667 1.32667 3.11333 1.82 2.54C2.31333 1.96667 2.9 1.52 3.58 1.2C4.26 0.879999 4.98667 0.719999 5.76 0.719999C6.57333 0.733332 7.30667 0.906666 7.96 1.24C8.61333 1.57333 9.12667 2.04 9.5 2.64C9.87333 3.24 10.06 3.93333 10.06 4.72C10.06 5.01333 10.0267 5.31333 9.96 5.62C9.90667 5.92667 9.80667 6.24667 9.66 6.58C9.52667 6.91333 9.34667 7.26667 9.12 7.64C8.90667 8 8.64 8.38667 8.32 8.8C8.01333 9.2 7.66 9.62 7.26 10.06L4.08 13.52L3.68 12.3H10.64V15H1.4ZM17.5664 15V3.68L18.9664 3.76L14.0464 9.78L13.7064 9.28H22.7864V11.82H12.2464L11.0064 9.46L18.0664 0.919999H20.4664V15H17.5664ZM31.6352 15L29.0152 11.26L28.2152 10.14L23.9352 4.42H27.3752L29.9352 8.04L30.8152 9.24L35.0352 15H31.6352ZM23.8952 15L28.1152 9.22L29.6752 11.08L27.2352 15H23.8952ZM30.6952 10.24L29.1752 8.38L31.4352 4.42H34.7752L30.6952 10.24Z" fill="url(#paint0_linear_10905_90017)"/>
<path d="M40.7517 17.42V9.181H42.2587L42.3027 10.49L42.0167 10.391C42.068 10.1563 42.1927 9.94 42.3907 9.742C42.596 9.544 42.849 9.38267 43.1497 9.258C43.4504 9.13333 43.7657 9.071 44.0957 9.071C44.6017 9.071 45.049 9.203 45.4377 9.467C45.8337 9.72367 46.1454 10.0793 46.3727 10.534C46.6074 10.9813 46.7247 11.4983 46.7247 12.085C46.7247 12.6643 46.611 13.1813 46.3837 13.636C46.1564 14.0907 45.8447 14.45 45.4487 14.714C45.0527 14.9707 44.6017 15.099 44.0957 15.099C43.7584 15.099 43.4357 15.0367 43.1277 14.912C42.827 14.78 42.5704 14.6077 42.3577 14.395C42.145 14.1823 42.013 13.955 41.9617 13.713L42.3247 13.559V17.42H40.7517ZM43.7437 13.757C44.0297 13.757 44.2827 13.6873 44.5027 13.548C44.7227 13.4087 44.895 13.2143 45.0197 12.965C45.1444 12.7083 45.2067 12.415 45.2067 12.085C45.2067 11.755 45.1444 11.4653 45.0197 11.216C44.895 10.9667 44.7227 10.7723 44.5027 10.633C44.29 10.4937 44.037 10.424 43.7437 10.424C43.4504 10.424 43.1937 10.4937 42.9737 10.633C42.7537 10.765 42.5814 10.9593 42.4567 11.216C42.332 11.4653 42.2697 11.755 42.2697 12.085C42.2697 12.415 42.332 12.7083 42.4567 12.965C42.5814 13.2143 42.7537 13.4087 42.9737 13.548C43.1937 13.6873 43.4504 13.757 43.7437 13.757ZM50.667 15.11C50.0363 15.11 49.4863 14.9817 49.017 14.725C48.5477 14.4683 48.181 14.1163 47.917 13.669C47.653 13.2217 47.521 12.7083 47.521 12.129C47.521 11.6817 47.5943 11.271 47.741 10.897C47.8877 10.523 48.093 10.2003 48.357 9.929C48.621 9.65033 48.9327 9.43767 49.292 9.291C49.6587 9.137 50.0547 9.06 50.48 9.06C50.876 9.06 51.2427 9.13333 51.58 9.28C51.9173 9.41933 52.207 9.621 52.449 9.885C52.6983 10.1417 52.889 10.446 53.021 10.798C53.153 11.15 53.2117 11.535 53.197 11.953L53.186 12.437H48.511L48.258 11.48H51.899L51.723 11.678V11.436C51.7083 11.238 51.6423 11.0583 51.525 10.897C51.415 10.7357 51.272 10.611 51.096 10.523C50.92 10.435 50.722 10.391 50.502 10.391C50.1793 10.391 49.9043 10.4533 49.677 10.578C49.457 10.7027 49.2883 10.886 49.171 11.128C49.0537 11.37 48.995 11.6633 48.995 12.008C48.995 12.36 49.0683 12.6643 49.215 12.921C49.369 13.1777 49.5817 13.3793 49.853 13.526C50.1317 13.6653 50.458 13.735 50.832 13.735C51.0887 13.735 51.3233 13.6947 51.536 13.614C51.7487 13.5333 51.976 13.394 52.218 13.196L52.966 14.241C52.7533 14.4317 52.5187 14.593 52.262 14.725C52.0053 14.8497 51.7413 14.945 51.47 15.011C51.1987 15.077 50.931 15.11 50.667 15.11ZM54.3513 15V9.181H55.8583L55.9133 11.051L55.6493 10.666C55.7373 10.3653 55.8803 10.094 56.0783 9.852C56.2763 9.60267 56.5073 9.40833 56.7713 9.269C57.0426 9.12967 57.325 9.06 57.6183 9.06C57.743 9.06 57.864 9.071 57.9813 9.093C58.0986 9.115 58.1976 9.14067 58.2783 9.17L57.8603 10.886C57.7723 10.842 57.666 10.8053 57.5413 10.776C57.4166 10.7393 57.2883 10.721 57.1563 10.721C56.9803 10.721 56.8153 10.754 56.6613 10.82C56.5146 10.8787 56.3863 10.9667 56.2763 11.084C56.1663 11.194 56.0783 11.326 56.0123 11.48C55.9536 11.634 55.9243 11.8027 55.9243 11.986V15H54.3513ZM62.7676 15V7.3H64.4176V13.515H67.9046V15H62.7676ZM72.6337 15.11C72.069 15.11 71.5483 15.011 71.0717 14.813C70.595 14.615 70.177 14.34 69.8177 13.988C69.4657 13.6287 69.1943 13.207 69.0037 12.723C68.813 12.2317 68.7177 11.7 68.7177 11.128C68.7177 10.5487 68.813 10.0207 69.0037 9.544C69.1943 9.06 69.4657 8.63833 69.8177 8.279C70.177 7.91967 70.595 7.641 71.0717 7.443C71.5483 7.245 72.069 7.146 72.6337 7.146C73.2057 7.146 73.7263 7.245 74.1957 7.443C74.6723 7.641 75.0867 7.91967 75.4387 8.279C75.798 8.63833 76.073 9.06 76.2637 9.544C76.4543 10.028 76.5497 10.556 76.5497 11.128C76.5497 11.7 76.4543 12.228 76.2637 12.712C76.073 13.196 75.798 13.6177 75.4387 13.977C75.0867 14.3363 74.6723 14.615 74.1957 14.813C73.7263 15.011 73.2057 15.11 72.6337 15.11ZM72.6337 13.548C72.9563 13.548 73.2533 13.4893 73.5247 13.372C73.8033 13.2547 74.0417 13.086 74.2397 12.866C74.4377 12.646 74.5917 12.3893 74.7017 12.096C74.819 11.8027 74.8777 11.48 74.8777 11.128C74.8777 10.776 74.819 10.4533 74.7017 10.16C74.5917 9.86667 74.4377 9.61367 74.2397 9.401C74.0417 9.181 73.8033 9.01233 73.5247 8.895C73.2533 8.77033 72.9563 8.708 72.6337 8.708C72.311 8.708 72.014 8.77033 71.7427 8.895C71.4713 9.01233 71.233 9.181 71.0277 9.401C70.8223 9.61367 70.6647 9.86667 70.5547 10.16C70.452 10.4533 70.4007 10.776 70.4007 11.128C70.4007 11.48 70.452 11.8027 70.5547 12.096C70.6647 12.3893 70.8223 12.646 71.0277 12.866C71.233 13.086 71.4713 13.2547 71.7427 13.372C72.014 13.4893 72.311 13.548 72.6337 13.548ZM81.453 15.11C80.8883 15.11 80.3677 15.011 79.891 14.813C79.4143 14.615 78.9963 14.34 78.637 13.988C78.285 13.6287 78.0137 13.207 77.823 12.723C77.6323 12.2317 77.537 11.7 77.537 11.128C77.537 10.5487 77.6323 10.0207 77.823 9.544C78.0137 9.06 78.285 8.63833 78.637 8.279C78.9963 7.91967 79.4143 7.641 79.891 7.443C80.3677 7.245 80.8883 7.146 81.453 7.146C82.025 7.146 82.5457 7.245 83.015 7.443C83.4917 7.641 83.906 7.91967 84.258 8.279C84.6173 8.63833 84.8923 9.06 85.083 9.544C85.2737 10.028 85.369 10.556 85.369 11.128C85.369 11.7 85.2737 12.228 85.083 12.712C84.8923 13.196 84.6173 13.6177 84.258 13.977C83.906 14.3363 83.4917 14.615 83.015 14.813C82.5457 15.011 82.025 15.11 81.453 15.11ZM81.453 13.548C81.7757 13.548 82.0727 13.4893 82.344 13.372C82.6227 13.2547 82.861 13.086 83.059 12.866C83.257 12.646 83.411 12.3893 83.521 12.096C83.6383 11.8027 83.697 11.48 83.697 11.128C83.697 10.776 83.6383 10.4533 83.521 10.16C83.411 9.86667 83.257 9.61367 83.059 9.401C82.861 9.181 82.6227 9.01233 82.344 8.895C82.0727 8.77033 81.7757 8.708 81.453 8.708C81.1303 8.708 80.8333 8.77033 80.562 8.895C80.2907 9.01233 80.0523 9.181 79.847 9.401C79.6417 9.61367 79.484 9.86667 79.374 10.16C79.2713 10.4533 79.22 10.776 79.22 11.128C79.22 11.48 79.2713 11.8027 79.374 12.096C79.484 12.3893 79.6417 12.646 79.847 12.866C80.0523 13.086 80.2907 13.2547 80.562 13.372C80.8333 13.4893 81.1303 13.548 81.453 13.548ZM86.8623 15V7.3H90.1293C90.584 7.3 90.9947 7.41 91.3613 7.63C91.7353 7.84267 92.0287 8.136 92.2413 8.51C92.4613 8.884 92.5713 9.30567 92.5713 9.775C92.5713 10.2517 92.4613 10.6807 92.2413 11.062C92.0287 11.4433 91.7353 11.7477 91.3613 11.975C90.9947 12.195 90.584 12.305 90.1293 12.305H88.5123V15H86.8623ZM88.4903 10.82H89.9423C90.1183 10.82 90.276 10.776 90.4153 10.688C90.5547 10.5927 90.6647 10.468 90.7453 10.314C90.8333 10.16 90.8773 9.984 90.8773 9.786C90.8773 9.588 90.8333 9.41567 90.7453 9.269C90.6647 9.115 90.5547 8.99767 90.4153 8.917C90.276 8.829 90.1183 8.785 89.9423 8.785H88.4903V10.82Z" fill="white"/>
<defs>
<linearGradient id="paint0_linear_10905_90017" x1="-4.83109e-07" y1="3.5" x2="36.5024" y2="13.4914" gradientUnits="userSpaceOnUse">
<stop offset="0.207304" stop-color="#FF52BC"/>
<stop offset="1" stop-color="#01E6FF"/>
</linearGradient>
</defs>
</svg>
