<svg width="94" height="18" viewBox="0 0 94 18" fill="none" xmlns="http://www.w3.org/2000/svg">
<path d="M5.52 15.2C4.42667 15.2 3.47333 14.9667 2.66 14.5C1.86 14.0333 1.12 13.2333 0.44 12.1L2.64 10.7C2.94667 11.1667 3.26 11.5467 3.58 11.84C3.9 12.1333 4.22667 12.3467 4.56 12.48C4.90667 12.6133 5.26667 12.68 5.64 12.68C6.04 12.68 6.41333 12.5867 6.76 12.4C7.10667 12.2 7.38 11.9333 7.58 11.6C7.79333 11.2667 7.9 10.88 7.9 10.44C7.9 9.98667 7.81333 9.60667 7.64 9.3C7.46667 8.99333 7.21333 8.76 6.88 8.6C6.54667 8.44 6.15333 8.36 5.7 8.36C5.5 8.36 5.28 8.38 5.04 8.42C4.81333 8.46 4.56667 8.52667 4.3 8.62C4.04667 8.7 3.77333 8.80667 3.48 8.94L2.78 7.08L6.48 3.04L7.24 3.58L1.36 3.5V0.919999H9.78L10.32 2.02L5.7 7.02L5.02 6.2C5.12667 6.14667 5.3 6.1 5.54 6.06C5.79333 6.00667 6.02 5.98 6.22 5.98C6.83333 5.98 7.40667 6.09333 7.94 6.32C8.47333 6.54667 8.94667 6.86 9.36 7.26C9.77333 7.66 10.0933 8.12667 10.32 8.66C10.56 9.19333 10.68 9.76667 10.68 10.38C10.68 11.3 10.4467 12.1267 9.98 12.86C9.52667 13.58 8.90667 14.1533 8.12 14.58C7.34667 14.9933 6.48 15.2 5.52 15.2ZM17.9458 15.2C16.7458 15.2 15.7191 14.9133 14.8658 14.34C14.0258 13.7667 13.3791 12.9467 12.9258 11.88C12.4858 10.8 12.2658 9.50667 12.2658 8C12.2658 6.49333 12.4858 5.20667 12.9258 4.14C13.3791 3.06 14.0258 2.23333 14.8658 1.66C15.7191 1.08667 16.7458 0.799999 17.9458 0.799999C19.1458 0.799999 20.1724 1.08667 21.0258 1.66C21.8791 2.23333 22.5258 3.06 22.9658 4.14C23.4191 5.20667 23.6458 6.49333 23.6458 8C23.6458 9.50667 23.4191 10.8 22.9658 11.88C22.5258 12.9467 21.8791 13.7667 21.0258 14.34C20.1724 14.9133 19.1458 15.2 17.9458 15.2ZM17.9458 12.62C18.8524 12.62 19.5458 12.22 20.0258 11.42C20.5191 10.62 20.7658 9.48 20.7658 8C20.7658 6.49333 20.5191 5.33333 20.0258 4.52C19.5458 3.70667 18.8524 3.3 17.9458 3.3C17.0391 3.3 16.3391 3.70667 15.8458 4.52C15.3658 5.33333 15.1258 6.49333 15.1258 8C15.1258 9.48 15.3658 10.62 15.8458 11.42C16.3391 12.22 17.0391 12.62 17.9458 12.62ZM32.5922 15L29.9722 11.26L29.1722 10.14L24.8922 4.42H28.3322L30.8922 8.04L31.7722 9.22L35.9922 15H32.5922ZM24.8522 15L29.0722 9.22L30.6322 11.08L28.1922 15H24.8522ZM31.6522 10.24L30.1322 8.38L32.3922 4.42H35.7322L31.6522 10.24Z" fill="url(#paint0_linear_12144_75454)"/>
<path d="M41.7087 17.42V9.181H43.2157L43.2597 10.49L42.9737 10.391C43.0251 10.1563 43.1497 9.94 43.3477 9.742C43.5531 9.544 43.8061 9.38267 44.1067 9.258C44.4074 9.13333 44.7227 9.071 45.0527 9.071C45.5587 9.071 46.0097 9.203 46.4057 9.467C46.8017 9.72367 47.1134 10.0793 47.3407 10.534C47.5681 10.9813 47.6817 11.4983 47.6817 12.085C47.6817 12.6643 47.5681 13.1813 47.3407 13.636C47.1134 14.0907 46.8017 14.45 46.4057 14.714C46.0097 14.9707 45.5587 15.099 45.0527 15.099C44.7154 15.099 44.3927 15.0367 44.0847 14.912C43.7841 14.78 43.5274 14.6077 43.3147 14.395C43.1094 14.1823 42.9774 13.955 42.9187 13.713L43.2817 13.559V17.42H41.7087ZM44.7007 13.757C44.9867 13.757 45.2397 13.6873 45.4597 13.548C45.6797 13.4087 45.8521 13.2143 45.9767 12.965C46.1014 12.7083 46.1637 12.415 46.1637 12.085C46.1637 11.755 46.1014 11.4653 45.9767 11.216C45.8521 10.9667 45.6797 10.7723 45.4597 10.633C45.2471 10.4937 44.9941 10.424 44.7007 10.424C44.4074 10.424 44.1507 10.4937 43.9307 10.633C43.7107 10.765 43.5384 10.9593 43.4137 11.216C43.2891 11.4653 43.2267 11.755 43.2267 12.085C43.2267 12.415 43.2891 12.7083 43.4137 12.965C43.5384 13.2143 43.7107 13.4087 43.9307 13.548C44.1507 13.6873 44.4074 13.757 44.7007 13.757ZM51.624 15.11C50.9934 15.11 50.4397 14.9817 49.963 14.725C49.4937 14.4683 49.127 14.1163 48.863 13.669C48.6064 13.2217 48.478 12.7083 48.478 12.129C48.478 11.6743 48.5514 11.26 48.698 10.886C48.8447 10.512 49.05 10.1893 49.314 9.918C49.578 9.63933 49.8897 9.42667 50.249 9.28C50.6157 9.126 51.0117 9.049 51.437 9.049C51.833 9.049 52.1997 9.12233 52.537 9.269C52.8744 9.41567 53.164 9.621 53.406 9.885C53.6554 10.1417 53.846 10.4497 53.978 10.809C54.11 11.161 54.1687 11.5423 54.154 11.953L54.143 12.437H49.468L49.215 11.48H52.856L52.68 11.678V11.436C52.6654 11.238 52.5994 11.062 52.482 10.908C52.372 10.7467 52.229 10.622 52.053 10.534C51.877 10.4387 51.679 10.391 51.459 10.391C51.1364 10.391 50.8614 10.4533 50.634 10.578C50.414 10.7027 50.2454 10.886 50.128 11.128C50.0107 11.37 49.952 11.6633 49.952 12.008C49.952 12.36 50.0254 12.6643 50.172 12.921C50.326 13.1777 50.5387 13.3793 50.81 13.526C51.0887 13.6653 51.415 13.735 51.789 13.735C52.0457 13.735 52.2804 13.6947 52.493 13.614C52.7057 13.5333 52.933 13.394 53.175 13.196L53.923 14.241C53.7104 14.4317 53.4757 14.593 53.219 14.725C52.9624 14.8497 52.6984 14.945 52.427 15.011C52.1557 15.077 51.888 15.11 51.624 15.11ZM55.3083 15V9.181H56.8153L56.8703 11.051L56.6063 10.666C56.6943 10.3653 56.8373 10.094 57.0353 9.852C57.2333 9.60267 57.4643 9.40833 57.7283 9.269C57.9997 9.12967 58.282 9.06 58.5753 9.06C58.7 9.06 58.821 9.071 58.9383 9.093C59.0557 9.115 59.1547 9.14067 59.2353 9.17L58.8173 10.886C58.7367 10.842 58.6303 10.8053 58.4983 10.776C58.3737 10.7393 58.2453 10.721 58.1133 10.721C57.9373 10.721 57.7723 10.754 57.6183 10.82C57.4717 10.8787 57.3433 10.9667 57.2333 11.084C57.1233 11.194 57.0353 11.326 56.9693 11.48C56.9107 11.634 56.8813 11.8027 56.8813 11.986V15H55.3083ZM63.7246 15V7.3H65.3746V13.515H68.8616V15H63.7246ZM73.6017 15.11C73.0297 15.11 72.5054 15.011 72.0287 14.813C71.552 14.615 71.134 14.34 70.7747 13.988C70.4227 13.6287 70.1514 13.207 69.9607 12.723C69.77 12.2317 69.6747 11.7 69.6747 11.128C69.6747 10.5487 69.77 10.017 69.9607 9.533C70.1514 9.049 70.4227 8.631 70.7747 8.279C71.134 7.91967 71.552 7.641 72.0287 7.443C72.5054 7.245 73.026 7.146 73.5907 7.146C74.1627 7.146 74.6834 7.245 75.1527 7.443C75.6294 7.641 76.0437 7.91967 76.3957 8.279C76.755 8.63833 77.03 9.06 77.2207 9.544C77.4114 10.028 77.5067 10.556 77.5067 11.128C77.5067 11.7 77.4114 12.228 77.2207 12.712C77.03 13.196 76.755 13.6177 76.3957 13.977C76.0437 14.3363 75.6294 14.615 75.1527 14.813C74.6834 15.011 74.1664 15.11 73.6017 15.11ZM73.5907 13.548C73.9207 13.548 74.2214 13.4893 74.4927 13.372C74.764 13.2473 74.9987 13.0787 75.1967 12.866C75.3947 12.646 75.5487 12.3893 75.6587 12.096C75.776 11.8027 75.8347 11.48 75.8347 11.128C75.8347 10.776 75.776 10.4533 75.6587 10.16C75.5487 9.86667 75.3947 9.61367 75.1967 9.401C74.9987 9.181 74.764 9.01233 74.4927 8.895C74.2214 8.77033 73.9207 8.708 73.5907 8.708C73.268 8.708 72.971 8.77033 72.6997 8.895C72.4284 9.01233 72.19 9.181 71.9847 9.401C71.7794 9.61367 71.6217 9.86667 71.5117 10.16C71.409 10.4533 71.3577 10.776 71.3577 11.128C71.3577 11.48 71.409 11.8027 71.5117 12.096C71.6217 12.3893 71.7794 12.646 71.9847 12.866C72.19 13.0787 72.4284 13.2473 72.6997 13.372C72.971 13.4893 73.268 13.548 73.5907 13.548ZM82.421 15.11C81.849 15.11 81.3247 15.011 80.848 14.813C80.3714 14.615 79.9534 14.34 79.594 13.988C79.242 13.6287 78.9707 13.207 78.78 12.723C78.5894 12.2317 78.494 11.7 78.494 11.128C78.494 10.5487 78.5894 10.017 78.78 9.533C78.9707 9.049 79.242 8.631 79.594 8.279C79.9534 7.91967 80.3714 7.641 80.848 7.443C81.3247 7.245 81.8454 7.146 82.41 7.146C82.982 7.146 83.5027 7.245 83.972 7.443C84.4487 7.641 84.863 7.91967 85.215 8.279C85.5744 8.63833 85.8494 9.06 86.04 9.544C86.2307 10.028 86.326 10.556 86.326 11.128C86.326 11.7 86.2307 12.228 86.04 12.712C85.8494 13.196 85.5744 13.6177 85.215 13.977C84.863 14.3363 84.4487 14.615 83.972 14.813C83.5027 15.011 82.9857 15.11 82.421 15.11ZM82.41 13.548C82.74 13.548 83.0407 13.4893 83.312 13.372C83.5834 13.2473 83.818 13.0787 84.016 12.866C84.214 12.646 84.368 12.3893 84.478 12.096C84.5954 11.8027 84.654 11.48 84.654 11.128C84.654 10.776 84.5954 10.4533 84.478 10.16C84.368 9.86667 84.214 9.61367 84.016 9.401C83.818 9.181 83.5834 9.01233 83.312 8.895C83.0407 8.77033 82.74 8.708 82.41 8.708C82.0874 8.708 81.7904 8.77033 81.519 8.895C81.2477 9.01233 81.0094 9.181 80.804 9.401C80.5987 9.61367 80.441 9.86667 80.331 10.16C80.2284 10.4533 80.177 10.776 80.177 11.128C80.177 11.48 80.2284 11.8027 80.331 12.096C80.441 12.3893 80.5987 12.646 80.804 12.866C81.0094 13.0787 81.2477 13.2473 81.519 13.372C81.7904 13.4893 82.0874 13.548 82.41 13.548ZM87.8194 15V7.3H91.0864C91.5484 7.3 91.9627 7.41 92.3294 7.63C92.696 7.84267 92.9857 8.136 93.1984 8.51C93.4184 8.884 93.5284 9.30567 93.5284 9.775C93.5284 10.2517 93.4184 10.6807 93.1984 11.062C92.9857 11.4433 92.696 11.7477 92.3294 11.975C91.9627 12.195 91.5484 12.305 91.0864 12.305H89.4694V15H87.8194ZM89.4474 10.82H90.8994C91.0754 10.82 91.233 10.776 91.3724 10.688C91.5117 10.5927 91.6217 10.468 91.7024 10.314C91.7904 10.16 91.8344 9.984 91.8344 9.786C91.8344 9.588 91.7904 9.41567 91.7024 9.269C91.6217 9.12233 91.5117 9.005 91.3724 8.917C91.233 8.829 91.0754 8.785 90.8994 8.785H89.4474V10.82Z" fill="white"/>
<defs>
<linearGradient id="paint0_linear_12144_75454" x1="-4.88249e-07" y1="3.5" x2="36.8358" y2="13.6899" gradientUnits="userSpaceOnUse">
<stop offset="0.207304" stop-color="#FF52BC"/>
<stop offset="1" stop-color="#01E6FF"/>
</linearGradient>
</defs>
</svg>
