<svg width="81" height="18" viewBox="0 0 81 18" fill="none" xmlns="http://www.w3.org/2000/svg">
<path d="M5.8 15C5.09333 15 4.42667 14.8733 3.8 14.62C3.18667 14.3667 2.64667 14.0133 2.18 13.56C1.72667 13.1067 1.36667 12.5733 1.1 11.96C0.846667 11.3467 0.72 10.6867 0.72 9.98C0.72 9.54 0.773333 9.09333 0.88 8.64C0.986667 8.17333 1.13333 7.69333 1.32 7.2C1.52 6.70667 1.76 6.19333 2.04 5.66C2.32 5.12667 2.63333 4.57333 2.98 4L4.9 0.779999H7.7L7.78 0.979999L5.24 5.08C4.88 5.66667 4.56 6.22667 4.28 6.76C4.01333 7.29333 3.77333 7.80667 3.56 8.3C3.36 8.79333 3.17333 9.29333 3 9.8L2.42 8.2C2.59333 7.74667 2.82667 7.34 3.12 6.98C3.41333 6.60667 3.74667 6.29333 4.12 6.04C4.49333 5.77333 4.88667 5.57333 5.3 5.44C5.71333 5.29333 6.12 5.22 6.52 5.22C7.30667 5.22 8.02667 5.43333 8.68 5.86C9.34667 6.27333 9.87333 6.82667 10.26 7.52C10.66 8.21333 10.86 8.97333 10.86 9.8C10.86 10.8 10.64 11.6933 10.2 12.48C9.77333 13.2533 9.17333 13.8667 8.4 14.32C7.64 14.7733 6.77333 15 5.8 15ZM5.84 12.46C6.29333 12.46 6.69333 12.36 7.04 12.16C7.4 11.9467 7.68 11.6533 7.88 11.28C8.08 10.9067 8.18 10.48 8.18 10C8.18 9.58667 8.07333 9.2 7.86 8.84C7.66 8.46667 7.38 8.16667 7.02 7.94C6.67333 7.71333 6.28667 7.6 5.86 7.6C5.39333 7.6 4.97333 7.71333 4.6 7.94C4.24 8.15333 3.95333 8.44 3.74 8.8C3.54 9.14667 3.44 9.54 3.44 9.98C3.44 10.46 3.54 10.8867 3.74 11.26C3.95333 11.62 4.24 11.9133 4.6 12.14C4.96 12.3533 5.37333 12.46 5.84 12.46ZM19.5453 15L16.9253 11.26L16.1253 10.14L11.8453 4.42H15.2853L17.8453 8.04L18.7253 9.24L22.9453 15H19.5453ZM11.8053 15L16.0253 9.22L17.5853 11.08L15.1453 15H11.8053ZM18.6053 10.24L17.0853 8.38L19.3453 4.42H22.6853L18.6053 10.24Z" fill="#C4C4C4"/>
<path d="M5.8 15C5.09333 15 4.42667 14.8733 3.8 14.62C3.18667 14.3667 2.64667 14.0133 2.18 13.56C1.72667 13.1067 1.36667 12.5733 1.1 11.96C0.846667 11.3467 0.72 10.6867 0.72 9.98C0.72 9.54 0.773333 9.09333 0.88 8.64C0.986667 8.17333 1.13333 7.69333 1.32 7.2C1.52 6.70667 1.76 6.19333 2.04 5.66C2.32 5.12667 2.63333 4.57333 2.98 4L4.9 0.779999H7.7L7.78 0.979999L5.24 5.08C4.88 5.66667 4.56 6.22667 4.28 6.76C4.01333 7.29333 3.77333 7.80667 3.56 8.3C3.36 8.79333 3.17333 9.29333 3 9.8L2.42 8.2C2.59333 7.74667 2.82667 7.34 3.12 6.98C3.41333 6.60667 3.74667 6.29333 4.12 6.04C4.49333 5.77333 4.88667 5.57333 5.3 5.44C5.71333 5.29333 6.12 5.22 6.52 5.22C7.30667 5.22 8.02667 5.43333 8.68 5.86C9.34667 6.27333 9.87333 6.82667 10.26 7.52C10.66 8.21333 10.86 8.97333 10.86 9.8C10.86 10.8 10.64 11.6933 10.2 12.48C9.77333 13.2533 9.17333 13.8667 8.4 14.32C7.64 14.7733 6.77333 15 5.8 15ZM5.84 12.46C6.29333 12.46 6.69333 12.36 7.04 12.16C7.4 11.9467 7.68 11.6533 7.88 11.28C8.08 10.9067 8.18 10.48 8.18 10C8.18 9.58667 8.07333 9.2 7.86 8.84C7.66 8.46667 7.38 8.16667 7.02 7.94C6.67333 7.71333 6.28667 7.6 5.86 7.6C5.39333 7.6 4.97333 7.71333 4.6 7.94C4.24 8.15333 3.95333 8.44 3.74 8.8C3.54 9.14667 3.44 9.54 3.44 9.98C3.44 10.46 3.54 10.8867 3.74 11.26C3.95333 11.62 4.24 11.9133 4.6 12.14C4.96 12.3533 5.37333 12.46 5.84 12.46ZM19.5453 15L16.9253 11.26L16.1253 10.14L11.8453 4.42H15.2853L17.8453 8.04L18.7253 9.24L22.9453 15H19.5453ZM11.8053 15L16.0253 9.22L17.5853 11.08L15.1453 15H11.8053ZM18.6053 10.24L17.0853 8.38L19.3453 4.42H22.6853L18.6053 10.24Z" fill="url(#paint0_linear_10905_90019)"/>
<path d="M28.6619 17.42V9.181H30.1689L30.2129 10.49L29.9269 10.391C29.9782 10.1563 30.1029 9.94 30.3009 9.742C30.5062 9.544 30.7592 9.38267 31.0599 9.258C31.3605 9.13333 31.6759 9.071 32.0059 9.071C32.5119 9.071 32.9592 9.203 33.3479 9.467C33.7439 9.72367 34.0555 10.0793 34.2829 10.534C34.5175 10.9813 34.6349 11.4983 34.6349 12.085C34.6349 12.6643 34.5212 13.1813 34.2939 13.636C34.0665 14.0907 33.7549 14.45 33.3589 14.714C32.9629 14.9707 32.5119 15.099 32.0059 15.099C31.6685 15.099 31.3459 15.0367 31.0379 14.912C30.7372 14.78 30.4805 14.6077 30.2679 14.395C30.0552 14.1823 29.9232 13.955 29.8719 13.713L30.2349 13.559V17.42H28.6619ZM31.6539 13.757C31.9399 13.757 32.1929 13.6873 32.4129 13.548C32.6329 13.4087 32.8052 13.2143 32.9299 12.965C33.0545 12.7083 33.1169 12.415 33.1169 12.085C33.1169 11.755 33.0545 11.4653 32.9299 11.216C32.8052 10.9667 32.6329 10.7723 32.4129 10.633C32.2002 10.4937 31.9472 10.424 31.6539 10.424C31.3605 10.424 31.1039 10.4937 30.8839 10.633C30.6639 10.765 30.4915 10.9593 30.3669 11.216C30.2422 11.4653 30.1799 11.755 30.1799 12.085C30.1799 12.415 30.2422 12.7083 30.3669 12.965C30.4915 13.2143 30.6639 13.4087 30.8839 13.548C31.1039 13.6873 31.3605 13.757 31.6539 13.757ZM38.5772 15.11C37.9465 15.11 37.3965 14.9817 36.9272 14.725C36.4578 14.4683 36.0912 14.1163 35.8272 13.669C35.5632 13.2217 35.4312 12.7083 35.4312 12.129C35.4312 11.6817 35.5045 11.271 35.6512 10.897C35.7978 10.523 36.0032 10.2003 36.2672 9.929C36.5312 9.65033 36.8428 9.43767 37.2022 9.291C37.5688 9.137 37.9648 9.06 38.3902 9.06C38.7862 9.06 39.1528 9.13333 39.4902 9.28C39.8275 9.41933 40.1172 9.621 40.3592 9.885C40.6085 10.1417 40.7992 10.446 40.9312 10.798C41.0632 11.15 41.1218 11.535 41.1072 11.953L41.0962 12.437H36.4212L36.1682 11.48H39.8092L39.6332 11.678V11.436C39.6185 11.238 39.5525 11.0583 39.4352 10.897C39.3252 10.7357 39.1822 10.611 39.0062 10.523C38.8302 10.435 38.6322 10.391 38.4122 10.391C38.0895 10.391 37.8145 10.4533 37.5872 10.578C37.3672 10.7027 37.1985 10.886 37.0812 11.128C36.9638 11.37 36.9052 11.6633 36.9052 12.008C36.9052 12.36 36.9785 12.6643 37.1252 12.921C37.2792 13.1777 37.4918 13.3793 37.7632 13.526C38.0418 13.6653 38.3682 13.735 38.7422 13.735C38.9988 13.735 39.2335 13.6947 39.4462 13.614C39.6588 13.5333 39.8862 13.394 40.1282 13.196L40.8762 14.241C40.6635 14.4317 40.4288 14.593 40.1722 14.725C39.9155 14.8497 39.6515 14.945 39.3802 15.011C39.1088 15.077 38.8412 15.11 38.5772 15.11ZM42.2615 15V9.181H43.7685L43.8235 11.051L43.5595 10.666C43.6475 10.3653 43.7905 10.094 43.9885 9.852C44.1865 9.60267 44.4175 9.40833 44.6815 9.269C44.9528 9.12967 45.2351 9.06 45.5285 9.06C45.6531 9.06 45.7741 9.071 45.8915 9.093C46.0088 9.115 46.1078 9.14067 46.1885 9.17L45.7705 10.886C45.6825 10.842 45.5761 10.8053 45.4515 10.776C45.3268 10.7393 45.1985 10.721 45.0665 10.721C44.8905 10.721 44.7255 10.754 44.5715 10.82C44.4248 10.8787 44.2965 10.9667 44.1865 11.084C44.0765 11.194 43.9885 11.326 43.9225 11.48C43.8638 11.634 43.8345 11.8027 43.8345 11.986V15H42.2615ZM50.6778 15V7.3H52.3278V13.515H55.8148V15H50.6778ZM60.5438 15.11C59.9791 15.11 59.4585 15.011 58.9818 14.813C58.5051 14.615 58.0871 14.34 57.7278 13.988C57.3758 13.6287 57.1045 13.207 56.9138 12.723C56.7231 12.2317 56.6278 11.7 56.6278 11.128C56.6278 10.5487 56.7231 10.0207 56.9138 9.544C57.1045 9.06 57.3758 8.63833 57.7278 8.279C58.0871 7.91967 58.5051 7.641 58.9818 7.443C59.4585 7.245 59.9791 7.146 60.5438 7.146C61.1158 7.146 61.6365 7.245 62.1058 7.443C62.5825 7.641 62.9968 7.91967 63.3488 8.279C63.7081 8.63833 63.9831 9.06 64.1738 9.544C64.3645 10.028 64.4598 10.556 64.4598 11.128C64.4598 11.7 64.3645 12.228 64.1738 12.712C63.9831 13.196 63.7081 13.6177 63.3488 13.977C62.9968 14.3363 62.5825 14.615 62.1058 14.813C61.6365 15.011 61.1158 15.11 60.5438 15.11ZM60.5438 13.548C60.8665 13.548 61.1635 13.4893 61.4348 13.372C61.7135 13.2547 61.9518 13.086 62.1498 12.866C62.3478 12.646 62.5018 12.3893 62.6118 12.096C62.7291 11.8027 62.7878 11.48 62.7878 11.128C62.7878 10.776 62.7291 10.4533 62.6118 10.16C62.5018 9.86667 62.3478 9.61367 62.1498 9.401C61.9518 9.181 61.7135 9.01233 61.4348 8.895C61.1635 8.77033 60.8665 8.708 60.5438 8.708C60.2211 8.708 59.9241 8.77033 59.6528 8.895C59.3815 9.01233 59.1431 9.181 58.9378 9.401C58.7325 9.61367 58.5748 9.86667 58.4648 10.16C58.3621 10.4533 58.3108 10.776 58.3108 11.128C58.3108 11.48 58.3621 11.8027 58.4648 12.096C58.5748 12.3893 58.7325 12.646 58.9378 12.866C59.1431 13.086 59.3815 13.2547 59.6528 13.372C59.9241 13.4893 60.2211 13.548 60.5438 13.548ZM69.3631 15.11C68.7985 15.11 68.2778 15.011 67.8011 14.813C67.3245 14.615 66.9065 14.34 66.5471 13.988C66.1951 13.6287 65.9238 13.207 65.7331 12.723C65.5425 12.2317 65.4471 11.7 65.4471 11.128C65.4471 10.5487 65.5425 10.0207 65.7331 9.544C65.9238 9.06 66.1951 8.63833 66.5471 8.279C66.9065 7.91967 67.3245 7.641 67.8011 7.443C68.2778 7.245 68.7985 7.146 69.3631 7.146C69.9351 7.146 70.4558 7.245 70.9251 7.443C71.4018 7.641 71.8161 7.91967 72.1681 8.279C72.5275 8.63833 72.8025 9.06 72.9931 9.544C73.1838 10.028 73.2791 10.556 73.2791 11.128C73.2791 11.7 73.1838 12.228 72.9931 12.712C72.8025 13.196 72.5275 13.6177 72.1681 13.977C71.8161 14.3363 71.4018 14.615 70.9251 14.813C70.4558 15.011 69.9351 15.11 69.3631 15.11ZM69.3631 13.548C69.6858 13.548 69.9828 13.4893 70.2541 13.372C70.5328 13.2547 70.7711 13.086 70.9691 12.866C71.1671 12.646 71.3211 12.3893 71.4311 12.096C71.5485 11.8027 71.6071 11.48 71.6071 11.128C71.6071 10.776 71.5485 10.4533 71.4311 10.16C71.3211 9.86667 71.1671 9.61367 70.9691 9.401C70.7711 9.181 70.5328 9.01233 70.2541 8.895C69.9828 8.77033 69.6858 8.708 69.3631 8.708C69.0405 8.708 68.7435 8.77033 68.4721 8.895C68.2008 9.01233 67.9625 9.181 67.7571 9.401C67.5518 9.61367 67.3941 9.86667 67.2841 10.16C67.1815 10.4533 67.1301 10.776 67.1301 11.128C67.1301 11.48 67.1815 11.8027 67.2841 12.096C67.3941 12.3893 67.5518 12.646 67.7571 12.866C67.9625 13.086 68.2008 13.2547 68.4721 13.372C68.7435 13.4893 69.0405 13.548 69.3631 13.548ZM74.7725 15V7.3H78.0395C78.4942 7.3 78.9048 7.41 79.2715 7.63C79.6455 7.84267 79.9388 8.136 80.1515 8.51C80.3715 8.884 80.4815 9.30567 80.4815 9.775C80.4815 10.2517 80.3715 10.6807 80.1515 11.062C79.9388 11.4433 79.6455 11.7477 79.2715 11.975C78.9048 12.195 78.4942 12.305 78.0395 12.305H76.4225V15H74.7725ZM76.4005 10.82H77.8525C78.0285 10.82 78.1862 10.776 78.3255 10.688C78.4648 10.5927 78.5748 10.468 78.6555 10.314C78.7435 10.16 78.7875 9.984 78.7875 9.786C78.7875 9.588 78.7435 9.41567 78.6555 9.269C78.5748 9.115 78.4648 8.99767 78.3255 8.917C78.1862 8.829 78.0285 8.785 77.8525 8.785H76.4005V10.82Z" fill="white"/>
<defs>
<linearGradient id="paint0_linear_10905_90019" x1="-4.16296e-07" y1="3.5" x2="32.0289" y2="11.0545" gradientUnits="userSpaceOnUse">
<stop offset="0.207304" stop-color="#FF52BC"/>
<stop offset="1" stop-color="#01E6FF"/>
</linearGradient>
</defs>
</svg>
