<svg version="1.2" xmlns="http://www.w3.org/2000/svg" viewBox="0 0 20 20" width="20" height="20">
	<title>auto_compound</title>
	<style>
		.s0 { fill: #01cdfd } 
	</style>
	<path id="Layer" fill-rule="evenodd" class="s0" d="m13.6 19.9c-3.5 0-6.3-2.8-6.3-6.3q0-0.4 0-0.9v-0.1h-0.1q-0.4 0.1-0.8 0.1c-3.5 0-6.3-2.8-6.3-6.3 0-3.4 2.8-6.3 6.3-6.3 3.5 0 6.3 2.8 6.3 6.3q0 0.4 0 0.9v0.1h0.1q0.5-0.1 0.8-0.1c3.5 0 6.3 2.8 6.3 6.3 0 3.5-2.9 6.3-6.3 6.3zm0-12c-3.2 0-5.7 2.6-5.7 5.7 0 3.1 2.5 5.7 5.7 5.7 3.1 0 5.7-2.6 5.7-5.7 0-3.1-2.6-5.7-5.7-5.7zm-7.2-7.2c-3.2 0-5.7 2.6-5.7 5.7 0 3.2 2.5 5.7 5.7 5.7 0.4 0 0.7 0 1-0.1h0.1c0.6-2.1 2.2-3.8 4.4-4.4v-0.1c0.1-0.3 0.1-0.6 0.1-1 0.1-3.2-2.5-5.8-5.6-5.8zm-3 18.6l1.4-1.4h-1.6c-1.5 0-2.7-1.2-2.7-2.7v-2.3h0.6v2.3c0 1.2 0.9 2.1 2 2.1h1.7l-1.4-1.4 0.5-0.4 2.1 2.1-2.1 2.2zm2.9-9q0 0-0.1-0.1-0.1 0-0.1 0c0-0.1 0-0.1-0.1-0.1 0-0.1 0-0.1 0-0.1v-0.8h-0.1q-0.7-0.1-1.1-0.6-0.5-0.4-0.6-1.3h0.6c0 0.5 0.2 0.8 0.3 0.9 0.2 0.2 0.5 0.4 0.8 0.5h0.1v-2.5h-0.1c-0.3-0.1-0.5-0.2-0.6-0.2q-0.4-0.2-0.5-0.4-0.3-0.1-0.3-0.4c-0.1-0.2-0.1-0.4-0.1-0.6q-0.1-0.5 0.1-0.7c0.1-0.2 0.2-0.3 0.3-0.5l0.1-0.1q0.2-0.3 0.5-0.4 0.3 0 0.5-0.1h0.1v-0.8q0-0.1 0-0.2c0.2-0.1 0.2-0.1 0.3-0.1q0 0 0.1 0 0.1 0 0.1 0.1c0 0 0 0 0.1 0 0 0.1 0 0.1 0 0.2v0.8h0.1q0.6 0 1 0.4 0.4 0.4 0.6 1.1h-0.6q-0.2-0.8-0.9-1h-0.2v2.4l0.5 0.1q0.2 0.1 0.4 0.2c0.2 0.1 0.3 0.2 0.5 0.3q0.2 0.2 0.3 0.5c0.1 0.2 0.1 0.4 0.1 0.6q0 0.5-0.1 0.8-0.1 0.3-0.4 0.6-0.2 0.1-0.6 0.4-0.3 0.1-0.6 0.1h-0.1v0.8q0 0 0 0.1-0.1 0.1-0.1 0.1c-0.1 0-0.1 0-0.1 0.1 0-0.1-0.1-0.1-0.1-0.1zm0.3-1.5l0.2-0.1c0 0 0.2 0 0.2-0.1 0.2 0 0.4-0.1 0.4-0.2 0.2-0.1 0.3-0.2 0.3-0.4 0.1-0.1 0.1-0.3 0.1-0.5 0-0.2 0-0.4-0.1-0.5 0-0.2-0.1-0.2-0.3-0.3q-0.1-0.1-0.4-0.2c0-0.1-0.1-0.1-0.2-0.1l-0.2-0.1zm-0.7-5.4c-0.2 0-0.4 0.1-0.6 0.3q-0.3 0.2-0.3 0.8 0 0.3 0 0.4c0.1 0.2 0.2 0.3 0.3 0.4q0 0 0.2 0.1c0 0 0.1 0 0.1 0.1q0.1 0 0.2 0l0.2 0.1v-0.1-2.1zm12.9 1.4c0-1.1-0.9-2.1-2.1-2.1h-2l1.4 1.4-0.5 0.5-2.1-2.2 2.1-2.1 0.5 0.4-1.4 1.4h2c1.5 0 2.8 1.2 2.8 2.8v2.3h-0.7z"/>
	<path id="Layer" fill-rule="evenodd" class="s0" d="m17 13.7c0 1.2-0.9 2.2-2.1 2.2q-0.7-0.1-1.2-0.4-0.5 0.3-1.2 0.4c-1.2 0-2.2-1-2.2-2.2 0-1.2 1-2.1 2.2-2.1q0.7 0 1.2 0.3 0.5-0.3 1.2-0.3c1.2 0 2.1 0.9 2.1 2.1zm-0.7 0c0-0.8-0.6-1.4-1.4-1.4q-0.4 0-0.7 0.1c0.3 0.4 0.4 0.8 0.4 1.3 0 0.5-0.1 0.9-0.4 1.3q0.3 0.2 0.7 0.2c0.8 0 1.4-0.7 1.4-1.5zm-5.3 0c0 0.8 0.7 1.5 1.5 1.5q0.4 0 0.7-0.2c-0.3-0.4-0.5-0.8-0.5-1.3 0-0.5 0.2-0.9 0.5-1.3q-0.3-0.1-0.7-0.1c-0.8 0-1.5 0.6-1.5 1.4zm2.7-0.8q-0.3 0.4-0.3 0.8 0 0.5 0.3 0.8 0.2-0.3 0.2-0.8 0-0.4-0.2-0.8z"/>
</svg>