<svg width="14" height="14" viewBox="0 0 14 14" fill="none" xmlns="http://www.w3.org/2000/svg">
<path d="M6.97779 1C3.68157 1 1 3.69158 1 6.99993C1 10.3084 3.68157 13 6.97779 13C10.274 13 12.9557 10.3084 12.9557 6.99993C12.9557 3.69158 10.2739 1 6.97779 1ZM6.97779 12.1325C4.15822 12.1325 1.86414 9.83001 1.86414 6.99993C1.86414 4.16984 4.15808 1.86746 6.97779 1.86746C9.7975 1.86746 12.0914 4.16984 12.0914 6.99993C12.0914 9.83001 9.7975 12.1325 6.97779 12.1325Z" fill="#919191" stroke="#919191" stroke-width="0.3"/>
<path d="M8.70872 7.55233C8.70642 7.55233 8.7044 7.55233 8.7021 7.55233L7.41115 7.5717V4.1808C7.41115 3.94124 7.2177 3.74707 6.97901 3.74707C6.74033 3.74707 6.54688 3.94124 6.54688 4.1808V8.01208C6.54688 8.01295 6.54716 8.01381 6.54716 8.01468C6.54716 8.01613 6.54688 8.01743 6.54688 8.01859C6.54716 8.03622 6.55048 8.05285 6.55278 8.06977C6.55422 8.08032 6.55437 8.09116 6.55638 8.10157C6.56027 8.12022 6.56675 8.13757 6.57295 8.15507C6.57612 8.16417 6.57813 8.17372 6.58188 8.18239C6.58937 8.20017 6.59945 8.21637 6.6091 8.23299C6.61357 8.24037 6.61688 8.24846 6.62164 8.25569C6.63258 8.27174 6.64569 8.28605 6.65866 8.30065C6.66413 8.30673 6.66859 8.31367 6.67436 8.31959C6.68833 8.33347 6.70403 8.34518 6.71973 8.35718C6.72607 8.36195 6.73169 8.36774 6.73817 8.37222C6.75517 8.38379 6.77375 8.39289 6.79233 8.40186C6.79881 8.40489 6.80457 8.40923 6.8112 8.41198C6.83281 8.42109 6.85585 8.42745 6.87919 8.43309C6.88351 8.4341 6.88754 8.43612 6.89201 8.43699C6.91996 8.44263 6.94891 8.44581 6.97858 8.44581C6.98074 8.44581 6.98305 8.44581 6.98521 8.44581L8.71492 8.41979C8.95346 8.41617 9.14403 8.21897 9.14058 7.97955C9.13726 7.7423 8.94438 7.55233 8.70872 7.55233Z" fill="#919191" stroke="#919191" stroke-width="0.3"/>
</svg>
