<svg version="1.2" xmlns="http://www.w3.org/2000/svg" viewBox="0 0 21 20" width="21" height="20">
	<title>harvest2</title>
	<defs>
		<clipPath clipPathUnits="userSpaceOnUse" id="cp1">
			<path d="m0.5 0h20v20h-20z"/>
		</clipPath>
	</defs>
	<style>
		.s0 { fill: #919191 } 
	</style>
	<g id="Clip-Path: Clip-Path" clip-path="url(#cp1)">
		<g id="Clip-Path">
			<g id="Layer">
				<path id="Layer" fill-rule="evenodd" class="s0" d="m13.2 17.8c-0.5 0-0.9-0.1-1.3-0.2-0.6 0.1-1 0.2-1.5 0.2-0.5 0-0.9-0.1-1.3-0.2-0.6 0.1-1 0.2-1.5 0.2-3.9 0-7.1-3.2-7.1-7.1 0-3.9 3.2-7.1 7.1-7.1q0.7 0 1.4 0.2h0.1c0.4-0.1 0.8-0.2 1.4-0.2q0.6 0 1.4 0.2c0.4-0.1 0.9-0.2 1.4-0.2 3.9 0 7.1 3.2 7.1 7.1 0 3.9-3.3 7.1-7.2 7.1zm-5.6-13.6c-3.6 0-6.5 2.9-6.5 6.5 0 3.5 2.9 6.5 6.5 6.5q0.7 0 1.3-0.1 0.1-0.1 0.1-0.1c3-0.6 5.1-3.2 5.1-6.3 0-3-2.1-5.6-5-6.3 0 0-0.1 0-0.2 0q-0.7-0.2-1.3-0.2zm3.3 0.2c2.4 1.3 3.8 3.7 3.8 6.3 0 2.7-1.4 5.1-3.8 6.3l-0.6 0.2h0.8q0.3 0 0.6-0.1 0.1-0.1 0.1-0.1c3-0.6 5.1-3.2 5.1-6.3 0-3-2.1-5.6-5-6.3 0 0-0.1 0-0.2 0q-0.4-0.1-0.6-0.1h-0.6zm2.8 0c2.3 1.2 3.8 3.6 3.8 6.3 0 2.6-1.5 5-3.8 6.2l-0.5 0.2h0.5c3.4-0.3 6-3.1 6-6.4 0-3.4-2.6-6.2-6-6.5l-0.6-0.1z"/>
				<path id="Layer" fill-rule="evenodd" class="s0" d="m9.3 13.4c-1.4 0-2.7-1.2-2.7-2.7 0-1.5 1.2-2.7 2.7-2.7 1.6 0 2.8 1.2 2.8 2.7 0 1.5-1.2 2.7-2.8 2.7zm0-4.8c-1.1 0-2 1-2 2.1 0 1.1 0.9 2.1 2 2.1 1.2 0 2.1-1 2.1-2.1 0-1.1-0.9-2.1-2.1-2.1z"/>
				<path id="Layer" fill-rule="evenodd" class="s0" d="m6.1 13.4c-1.4 0-2.7-1.2-2.7-2.7 0-1.5 1.2-2.7 2.7-2.7 1.6 0 2.8 1.2 2.8 2.7 0 1.5-1.2 2.7-2.8 2.7zm0-4.8c-1.1 0-2 1-2 2.1 0 1.1 0.9 2.1 2 2.1 1.2 0 2.1-1 2.1-2.1 0-1.1-0.9-2.1-2.1-2.1z"/>
			</g>
		</g>
	</g>
</svg>