<svg width="11" height="14" viewBox="0 0 11 14" fill="none" xmlns="http://www.w3.org/2000/svg">
<g clip-path="url(#clip0_12913_81773)">
<path fill-rule="evenodd" clip-rule="evenodd" d="M3.62159 3.15575C3.82327 3.21151 3.97802 3.33966 4.0917 3.48544C4.32279 3.78172 4.35909 4.15502 4.32131 4.47664C4.28251 4.80666 4.15961 5.15031 3.98691 5.46499C3.69972 5.98831 3.22241 6.52125 2.6194 6.77873C2.61539 7.15837 2.65072 7.53839 2.7345 7.89766C2.83317 8.32073 2.99729 8.70787 3.23709 9.03395C3.56028 9.4734 3.85589 9.68492 4.09655 9.78003C4.33233 9.87324 4.5515 9.86919 4.7553 9.81214C5.02641 9.73625 5.26505 9.56679 5.43233 9.41302C4.88335 8.56602 4.57927 7.4317 4.52058 6.41631C4.4869 5.83327 4.53182 5.25756 4.67684 4.76902C4.81913 4.28967 5.07965 3.82588 5.52994 3.58051C5.79501 3.43606 6.09682 3.38568 6.39079 3.50306C6.6652 3.61263 6.84878 3.83592 6.97025 4.05627C7.21032 4.49177 7.32133 5.12025 7.34806 5.76242C7.37541 6.42015 7.31664 7.15619 7.17036 7.84657C7.05427 8.39451 6.8783 8.9361 6.6308 9.39238C6.75766 9.52225 6.88651 9.63008 7.01253 9.7039C7.20375 9.81593 7.34235 9.82611 7.46323 9.77875C7.61708 9.71849 7.76921 9.58427 7.90826 9.36703C7.72973 8.89097 7.61251 8.33359 7.53999 7.77946C7.43984 7.01375 7.41897 6.20479 7.46181 5.52529C7.48324 5.18563 7.52109 4.86979 7.57585 4.6029C7.62749 4.35137 7.70431 4.08947 7.83215 3.89871C7.90493 3.79015 8.02429 3.6494 8.2096 3.58168C8.43224 3.50034 8.64344 3.56037 8.79239 3.67033C8.92038 3.76482 9.00344 3.89352 9.05776 3.99732C9.11585 4.10835 9.16336 4.23465 9.20293 4.3653C9.35859 4.87902 9.44802 5.65168 9.44897 6.45861C9.44992 7.26959 9.36162 8.16348 9.13333 8.91972C9.08538 9.07869 9.02916 9.23817 8.96322 9.39328C9.07093 9.58546 9.17326 9.68945 9.25418 9.73818C9.31965 9.77762 9.38856 9.79341 9.49514 9.76359C9.49502 9.76362 9.49493 9.76365 9.49493 9.76362C9.49493 9.76362 9.50852 9.75918 9.53352 9.74056C9.55971 9.72105 9.59277 9.6901 9.62848 9.64486C9.70042 9.5538 9.77082 9.42044 9.81468 9.25342C9.90065 8.92594 9.88029 8.48548 9.5876 8.02306C9.44689 7.80079 9.51268 7.50631 9.73452 7.36533C9.95637 7.22435 10.2503 7.29027 10.391 7.51254C10.8304 8.20673 10.8856 8.9213 10.7348 9.49589C10.6602 9.77994 10.5341 10.0344 10.3745 10.2364C10.2198 10.4323 10.0082 10.6097 9.75096 10.6817C9.39626 10.7809 9.0571 10.7316 8.764 10.5551C8.63137 10.4752 8.51513 10.3736 8.41304 10.2589C8.2429 10.4334 8.04347 10.5749 7.80967 10.6665C7.33334 10.8531 6.88431 10.733 6.53234 10.5268C6.35351 10.422 6.18869 10.2895 6.04001 10.1473C5.78428 10.3756 5.43266 10.6122 5.0113 10.7302C4.63445 10.8357 4.20039 10.8458 3.74746 10.6667C3.29941 10.4897 2.87075 10.1427 2.47121 9.5994C2.14085 9.15021 1.93026 8.63823 1.80812 8.11457C1.71738 7.72549 1.67449 7.32598 1.66848 6.93321C0.979294 6.8683 0.431842 6.41223 0.171918 5.81264C-0.163312 5.03936 -0.0280463 4.04109 0.752846 3.27347C0.940369 3.08913 1.24154 3.09201 1.42552 3.2799C1.60951 3.46778 1.60663 3.76953 1.41911 3.95387C0.911392 4.45296 0.870718 5.032 1.04451 5.43289C1.17312 5.72956 1.41504 5.9363 1.72354 5.97887C1.82635 5.18154 2.06264 4.44488 2.3586 3.93204C2.52638 3.6413 2.75522 3.34848 3.05461 3.20948C3.21821 3.13351 3.41532 3.09874 3.62159 3.15575ZM2.77006 5.52641C2.9152 5.37762 3.04658 5.20009 3.15328 5.00571C3.28085 4.77322 3.35509 4.54726 3.37646 4.36516C3.38859 4.26208 3.38232 4.19096 3.37141 4.14407C3.3228 4.19534 3.2574 4.27887 3.18218 4.40916C3.02369 4.68383 2.87486 5.0738 2.77006 5.52641ZM8.45353 7.40304C8.48385 7.09111 8.49798 6.77203 8.49762 6.45974C8.49714 6.05122 8.47196 5.66835 8.43031 5.34108C8.42297 5.41926 8.4166 5.50082 8.41128 5.58539C8.37686 6.13136 8.38756 6.77641 8.45353 7.40304ZM6.00032 8.48253C6.09555 8.23038 6.17611 7.94892 6.23977 7.64864C6.36951 7.03627 6.42156 6.38006 6.39754 5.80211C6.37283 5.20861 6.27027 4.75801 6.13746 4.51711C6.09216 4.4349 6.05767 4.40311 6.04396 4.39259C6.03329 4.39507 6.01427 4.40164 5.98448 4.41787C5.84828 4.49209 5.69645 4.67783 5.58871 5.04074C5.48371 5.39446 5.44102 5.85373 5.47033 6.3612C5.51272 7.09433 5.70068 7.86221 6.00032 8.48253Z" fill="url(#paint0_linear_12913_81773)"/>
<path fill-rule="evenodd" clip-rule="evenodd" d="M3.62159 3.15575C3.82327 3.21151 3.97802 3.33966 4.0917 3.48544C4.32279 3.78172 4.35909 4.15501 4.32131 4.47664C4.28251 4.80666 4.15961 5.15031 3.98691 5.46499C3.66921 6.04386 3.11892 6.63453 2.42319 6.85105C2.33886 6.90872 2.23546 6.9397 2.12567 6.93285C2.10768 6.93172 2.08998 6.9296 2.07263 6.92653C1.19605 7.03523 0.480869 6.5253 0.171918 5.81264C-0.163312 5.03936 -0.0280463 4.04109 0.752846 3.27347C0.940369 3.08913 1.24154 3.09201 1.42552 3.2799C1.60951 3.46778 1.60663 3.76953 1.41911 3.95387C0.911392 4.45296 0.870718 5.032 1.04451 5.43289C1.17312 5.72956 1.41504 5.9363 1.72354 5.97887C1.82635 5.18154 2.06264 4.44488 2.3586 3.93204C2.52638 3.6413 2.75522 3.34848 3.05461 3.20948C3.21821 3.13351 3.41532 3.09874 3.62159 3.15575ZM2.77006 5.52641C2.9152 5.37762 3.04658 5.20009 3.15328 5.00571C3.28085 4.77322 3.35509 4.54726 3.37646 4.36516C3.38859 4.26208 3.38232 4.19096 3.37141 4.14407C3.3228 4.19534 3.2574 4.27887 3.18218 4.40916C3.02369 4.68383 2.87486 5.0738 2.77006 5.52641ZM7.17036 7.84657C7.02531 8.53114 6.78685 9.20582 6.43215 9.71656C6.25192 9.97606 5.7343 10.5278 5.0113 10.7302C4.63445 10.8357 4.20039 10.8458 3.74746 10.6667C3.29941 10.4897 2.87075 10.1427 2.47121 9.5994C2.14085 9.15021 1.93026 8.63823 1.80812 8.11457C1.74834 7.85825 1.90726 7.6019 2.16308 7.54203C2.4189 7.48213 2.67474 7.64134 2.7345 7.89766C2.83317 8.32073 2.99729 8.70787 3.23709 9.03395C3.56028 9.4734 3.85589 9.68492 4.09655 9.78003C4.33233 9.87324 4.5515 9.86919 4.7553 9.81214C5.02641 9.73625 5.26505 9.56679 5.43233 9.41302C4.88335 8.56602 4.57927 7.4317 4.52058 6.41631C4.4869 5.83327 4.53182 5.25756 4.67684 4.76902C4.81913 4.28967 5.07965 3.82588 5.52994 3.58051C5.79501 3.43606 6.09682 3.38568 6.39079 3.50306C6.6652 3.61263 6.84878 3.83592 6.97025 4.05627C7.21029 4.49177 7.32133 5.12025 7.34806 5.76242C7.37541 6.42015 7.31664 7.15619 7.17036 7.84657ZM6.04393 4.39259C6.03329 4.39507 6.01427 4.40164 5.98448 4.41787C5.84828 4.49209 5.69645 4.67783 5.58871 5.04074C5.48371 5.39446 5.44102 5.85373 5.47033 6.3612C5.51272 7.09433 5.70068 7.86221 6.00032 8.48253C6.09555 8.23038 6.17611 7.94892 6.23977 7.64864C6.36951 7.03627 6.42156 6.38006 6.39754 5.80211C6.37283 5.20861 6.27027 4.75801 6.13746 4.51711C6.09216 4.4349 6.05767 4.40311 6.04393 4.39259ZM8.74595 9.82197C8.52015 10.1957 8.21715 10.5069 7.80967 10.6665C7.51532 10.7818 7.22281 10.7814 6.95491 10.7081C6.70147 10.6388 6.55211 10.3768 6.62129 10.1229C6.69047 9.86892 6.952 9.71927 7.20542 9.78858C7.29865 9.81408 7.37996 9.81137 7.46323 9.77875C7.61708 9.71849 7.76921 9.58427 7.90826 9.36703C7.59942 8.54285 7.46463 7.44844 7.4437 6.48783C7.43184 5.94292 7.45613 5.41936 7.51306 4.98362C7.54151 4.76596 7.57903 4.56304 7.62692 4.38671C7.6728 4.21786 7.73651 4.04139 7.83215 3.89871C7.90493 3.79015 8.02429 3.6494 8.2096 3.58168C8.43224 3.50034 8.64344 3.56037 8.79239 3.67033C8.92038 3.76482 9.00344 3.89352 9.05776 3.99732C9.11585 4.10835 9.16336 4.23465 9.20293 4.3653C9.35859 4.87902 9.44802 5.65168 9.44897 6.45861C9.44992 7.26959 9.36162 8.16348 9.13336 8.91972C9.07771 9.1041 9.01096 9.28917 8.93081 9.46733C8.92406 9.60488 8.85782 9.7358 8.74595 9.82197ZM8.45353 7.40295C8.48385 7.09105 8.49798 6.772 8.49762 6.45974C8.49714 6.05122 8.47196 5.66834 8.43031 5.34107C8.39915 5.67333 8.38595 6.05947 8.39481 6.46704C8.40162 6.77867 8.42112 7.09498 8.45353 7.40295ZM9.73452 7.36533C9.95637 7.22435 10.2503 7.29027 10.391 7.51254C10.8304 8.20673 10.8856 8.9213 10.7348 9.49589C10.6602 9.77994 10.5341 10.0344 10.3745 10.2364C10.2198 10.4323 10.0082 10.6097 9.75096 10.6817C9.49793 10.7524 9.23554 10.6043 9.1649 10.3508C9.09424 10.0973 9.24211 9.83436 9.49514 9.76359C9.49514 9.76359 9.50852 9.75918 9.53352 9.74056C9.55971 9.72105 9.59277 9.6901 9.62848 9.64486C9.70042 9.5538 9.77082 9.42044 9.81468 9.25342C9.90065 8.92594 9.88029 8.48548 9.5876 8.02306C9.44689 7.80079 9.51268 7.50631 9.73452 7.36533Z" fill="url(#paint1_radial_12913_81773)"/>
<path opacity="0.6" fill-rule="evenodd" clip-rule="evenodd" d="M9.73475 7.36569C9.95659 7.22471 10.2505 7.29062 10.3912 7.5129C10.8306 8.20709 10.8858 8.92165 10.7349 9.49625C10.6604 9.7803 10.5343 10.0347 10.3747 10.2368C10.22 10.4326 10.0084 10.6101 9.75119 10.682C9.49813 10.7528 9.23577 10.6047 9.1651 10.3511C9.09446 10.0976 9.24234 9.83472 9.49537 9.76395C9.49522 9.76398 9.49537 9.76395 9.49537 9.76395C9.49537 9.76392 9.50874 9.75954 9.53375 9.74092C9.55994 9.72141 9.593 9.69046 9.6287 9.64522C9.70065 9.55416 9.77105 9.4208 9.8149 9.25378C9.90088 8.9263 9.88051 8.48584 9.58783 8.02342C9.44711 7.80115 9.51291 7.50667 9.73475 7.36569Z" fill="url(#paint2_linear_12913_81773)"/>
<path opacity="0.6" fill-rule="evenodd" clip-rule="evenodd" d="M1.42552 3.28003C1.60951 3.46791 1.60663 3.76966 1.41911 3.95401C0.911392 4.45309 0.870718 5.03213 1.04451 5.43302C1.21879 5.83503 1.60115 6.07192 2.0753 5.95894C2.47491 5.86371 2.8896 5.48628 3.15328 5.00585C3.28085 4.77336 3.35509 4.5474 3.37646 4.36529C3.39888 4.17479 3.35845 4.09344 3.3421 4.07248C3.18034 3.86508 3.21702 3.56556 3.424 3.40349C3.63101 3.24142 3.92994 3.27817 4.0917 3.48557C4.32279 3.78186 4.35909 4.15515 4.32131 4.47677C4.28251 4.8068 4.15961 5.15044 3.98691 5.46512C3.65001 6.07901 3.05149 6.70614 2.2954 6.88629C1.31829 7.11911 0.50666 6.58494 0.171918 5.81277C-0.163312 5.03949 -0.0280467 4.04123 0.752846 3.2736C0.940369 3.08926 1.24154 3.09214 1.42552 3.28003Z" fill="url(#paint3_linear_12913_81773)"/>
<path opacity="0.6" fill-rule="evenodd" clip-rule="evenodd" d="M7.16986 7.84668C7.0248 8.53125 6.78634 9.20593 6.43164 9.71666C6.25142 9.9762 5.73379 10.5279 5.01079 10.7303C4.63394 10.8358 4.19989 10.8459 3.74695 10.6668C3.2989 10.4898 2.87024 10.1428 2.47069 9.59951C2.31485 9.3876 2.35997 9.08926 2.57146 8.93311C2.78296 8.77697 3.08074 8.82215 3.23658 9.03406C3.55978 9.47351 3.85538 9.68503 4.09604 9.78014C4.33183 9.87334 4.55099 9.86932 4.75476 9.81225C5.19304 9.68956 5.54646 9.32237 5.65073 9.17224C5.90548 8.80544 6.10827 8.26692 6.23923 7.64874C6.369 7.03638 6.42105 6.38017 6.397 5.80222C6.37233 5.20873 6.26976 4.75813 6.13696 4.51722C6.09165 4.43501 6.05716 4.40323 6.04343 4.3927C6.03278 4.39519 6.01376 4.40175 5.98397 4.41799C5.75318 4.54375 5.46435 4.45825 5.33883 4.22702C5.21331 3.99579 5.29864 3.70639 5.52943 3.58063C5.7945 3.43618 6.09632 3.38579 6.39028 3.50317C6.66469 3.61275 6.84827 3.83604 6.96975 4.05639C7.20978 4.49188 7.32082 5.12037 7.34755 5.76253C7.3749 6.42029 7.31613 7.15633 7.16986 7.84668Z" fill="url(#paint4_linear_12913_81773)"/>
<path opacity="0.6" fill-rule="evenodd" clip-rule="evenodd" d="M9.13287 8.92013C8.91296 9.64866 8.52014 10.3884 7.80918 10.6669C7.56451 10.7628 7.28862 10.6417 7.19295 10.3966C7.09728 10.1514 7.21807 9.87501 7.46274 9.77916C7.74509 9.66856 8.0216 9.30894 8.22225 8.64421C8.41451 8.00721 8.49799 7.21391 8.49713 6.46015C8.49624 5.70228 8.41029 5.03257 8.29211 4.6426C8.29158 4.64076 8.29101 4.63892 8.29045 4.6371C8.17911 4.65226 8.06201 4.62818 7.96137 4.56048C7.74327 4.41374 7.68521 4.11764 7.83166 3.89912C7.90444 3.79055 8.0238 3.6498 8.20911 3.58209C8.43175 3.50075 8.64295 3.56078 8.7919 3.67074C8.91989 3.76522 9.00295 3.89392 9.05727 3.99773C9.11536 4.10875 9.16287 4.23506 9.20244 4.36571C9.3581 4.87943 9.44753 5.65209 9.44851 6.45901C9.44943 7.27 9.36114 8.16389 9.13287 8.92013Z" fill="url(#paint5_linear_12913_81773)"/>
</g>
<defs>
<linearGradient id="paint0_linear_12913_81773" x1="1.64791" y1="6.98647" x2="4.40088" y2="4.83547" gradientUnits="userSpaceOnUse">
<stop stop-color="#B00017"/>
<stop offset="0.615809" stop-color="#3F00C7"/>
<stop offset="1" stop-color="#003C56"/>
</linearGradient>
<radialGradient id="paint1_radial_12913_81773" cx="0" cy="0" r="1" gradientUnits="userSpaceOnUse" gradientTransform="translate(0.458721 4.92086) rotate(14.6159) scale(11.2142 15.8453)">
<stop stop-color="#F99974"/>
<stop offset="0.166667" stop-color="#FE4366"/>
<stop offset="0.402254" stop-color="#F43D88"/>
<stop offset="0.552743" stop-color="#D72DE5"/>
<stop offset="0.6875" stop-color="#3B7BEA"/>
<stop offset="0.828125" stop-color="#30B1CD"/>
<stop offset="0.927083" stop-color="#40CAD7"/>
<stop offset="1" stop-color="#09ACA2"/>
</radialGradient>
<linearGradient id="paint2_linear_12913_81773" x1="8.87589" y1="4.32551" x2="7.26359" y2="8.48258" gradientUnits="userSpaceOnUse">
<stop stop-color="white" stop-opacity="0"/>
<stop offset="0.270833" stop-color="white" stop-opacity="0.5"/>
<stop offset="0.515625" stop-color="white" stop-opacity="0.8"/>
<stop offset="0.802083" stop-color="white" stop-opacity="0.5"/>
<stop offset="1" stop-color="white" stop-opacity="0"/>
</linearGradient>
<linearGradient id="paint3_linear_12913_81773" x1="5.36414" y1="4.49142" x2="3.93645" y2="8.1725" gradientUnits="userSpaceOnUse">
<stop stop-color="white" stop-opacity="0"/>
<stop offset="0.270833" stop-color="white" stop-opacity="0.5"/>
<stop offset="0.515625" stop-color="white" stop-opacity="0.8"/>
<stop offset="0.802083" stop-color="white" stop-opacity="0.5"/>
<stop offset="1" stop-color="white" stop-opacity="0"/>
</linearGradient>
<linearGradient id="paint4_linear_12913_81773" x1="5.09386" y1="4.32528" x2="3.43052" y2="8.61395" gradientUnits="userSpaceOnUse">
<stop stop-color="white" stop-opacity="0"/>
<stop offset="0.270833" stop-color="white" stop-opacity="0.5"/>
<stop offset="0.515625" stop-color="white" stop-opacity="0.8"/>
<stop offset="0.802083" stop-color="white" stop-opacity="0.5"/>
<stop offset="1" stop-color="white" stop-opacity="0"/>
</linearGradient>
<linearGradient id="paint5_linear_12913_81773" x1="8.00243" y1="4.32555" x2="6.42193" y2="8.40061" gradientUnits="userSpaceOnUse">
<stop stop-color="white" stop-opacity="0"/>
<stop offset="0.270833" stop-color="white" stop-opacity="0.5"/>
<stop offset="0.515625" stop-color="white" stop-opacity="0.8"/>
<stop offset="0.802083" stop-color="white" stop-opacity="0.5"/>
<stop offset="1" stop-color="white" stop-opacity="0"/>
</linearGradient>
<clipPath id="clip0_12913_81773">
<rect width="11" height="14" fill="white"/>
</clipPath>
</defs>
</svg>
