<svg width="24" height="24" viewBox="0 0 24 24" fill="none" xmlns="http://www.w3.org/2000/svg">
<g opacity="0.4">
<path d="M9.81753 3.10091C12.3598 2.31189 14.971 2.48475 17.2591 3.4132C20.2288 4.61825 20.1861 7.86218 21.2102 11.1619C22.0126 13.7474 24.2883 15.6381 23.3181 17.9537C22.096 20.8704 16.0774 20.486 12.8209 21.4967C9.68808 22.469 10.0132 24.7406 7.40465 23.1777C5.14887 21.8261 2.30561 19.9992 1.46479 17.29C0.492499 14.1572 3.81681 11.3389 5.37974 8.73036C6.73132 6.47457 7.10834 3.94173 9.81753 3.10091Z" fill="url(#paint0_radial_12141_77869)"/>
<path d="M17.2727 3.3795C14.9772 2.44801 12.3574 2.27458 9.80675 3.06618C8.44079 3.49012 7.66295 4.34137 7.05821 5.36654C6.76961 5.8558 6.52001 6.38538 6.26491 6.92664C6.25311 6.95168 6.2413 6.97674 6.22947 7.00183C5.96168 7.56975 5.68539 8.14947 5.34854 8.71167C4.959 9.3618 4.45942 10.0255 3.94297 10.7057C3.92011 10.7358 3.89721 10.766 3.87429 10.7962C3.37993 11.4471 2.87421 12.113 2.44087 12.794C1.53442 14.2187 0.939001 15.7185 1.43006 17.3008C1.85322 18.6642 2.77955 19.8036 3.88011 20.7703C4.9807 21.737 6.25797 22.533 7.38596 23.2089C8.04032 23.601 8.51622 23.7561 8.91164 23.7475C9.30847 23.7389 9.61789 23.5655 9.93846 23.3166C10.0649 23.2184 10.1935 23.1083 10.3304 22.991C10.887 22.5142 11.581 21.9196 12.8317 21.5314C13.6428 21.2797 14.627 21.1146 15.6683 20.9629C15.9165 20.9267 16.168 20.8913 16.4211 20.8557C17.2286 20.7421 18.0525 20.6261 18.8392 20.4757C19.8725 20.2781 20.845 20.0204 21.6364 19.6283C22.4281 19.236 23.0415 18.7078 23.3516 17.9678C23.8431 16.7947 23.5106 15.7305 22.9613 14.6426C22.795 14.3132 22.6077 13.9795 22.4169 13.6397C22.2933 13.4196 22.1683 13.1969 22.0465 12.971C21.7359 12.3947 21.4445 11.7942 21.2449 11.1511C21.008 10.3879 20.8283 9.62764 20.6548 8.89364C20.6411 8.83565 20.6274 8.77782 20.6138 8.72016C20.4274 7.9334 20.2435 7.17904 19.9985 6.48986C19.508 5.11023 18.7707 3.98735 17.2727 3.3795Z" stroke="#C9F3FE" stroke-opacity="0.33" stroke-width="0.0727273"/>
</g>
<g opacity="0.5">
<path d="M19.084 4.55938C21.1604 6.22508 22.0931 8.35965 22.6037 10.7755C23.2664 13.9112 20.9388 15.8171 18.7768 18.512C17.0828 20.6237 16.789 23.5677 14.3268 24.0591C11.2256 24.678 9.8718 21.9148 7.21213 19.7811C4.65349 17.7285 1.18529 17.1655 1.02128 14.129C0.879442 11.5032 2.51744 8.92603 4.29249 6.71338C6.34511 4.15473 8.89875 4.19477 11.9352 4.03076C14.5611 3.88893 16.8714 2.78432 19.084 4.55938Z" fill="url(#paint1_radial_12141_77869)"/>
<path d="M22.6393 10.768C22.1276 8.34728 21.1919 6.20379 19.1068 4.53101C17.9912 3.63603 16.8504 3.4676 15.6624 3.53994C15.0954 3.57446 14.5168 3.66388 13.9254 3.75528C13.8981 3.7595 13.8707 3.76374 13.8433 3.76797C13.2228 3.86375 12.5877 3.9591 11.9333 3.99445C11.7379 4.005 11.5443 4.01471 11.3528 4.02431C8.57153 4.16379 6.19564 4.28294 4.26413 6.69062C2.48909 8.90326 0.84232 11.4901 0.984965 14.131C1.06792 15.6667 1.9881 16.5754 3.19904 17.3546C3.64333 17.6405 4.12841 17.9099 4.62659 18.1867C4.80664 18.2867 4.98839 18.3876 5.17055 18.4907C5.85763 18.8793 6.55207 19.2982 7.18938 19.8095C7.85261 20.3415 8.43469 20.913 8.98403 21.4624C9.03696 21.5154 9.0896 21.5681 9.14198 21.6206C9.63271 22.1123 10.101 22.5814 10.5806 22.9803C11.6441 23.8645 12.7687 24.4071 14.3339 24.0948C15.5812 23.8459 16.2772 22.9748 16.8716 21.9109C17.0516 21.5887 17.2233 21.2468 17.3982 20.8985C17.5115 20.673 17.6262 20.4447 17.7453 20.2174C18.0491 19.6375 18.3838 19.06 18.8052 18.5348C19.1771 18.0712 19.5537 17.6312 19.9195 17.2038C20.085 17.0105 20.2482 16.8198 20.4078 16.6307C20.9199 16.0238 21.3941 15.4334 21.7802 14.8286C22.5529 13.6179 22.9732 12.3478 22.6393 10.768Z" stroke="#C9F3FE" stroke-opacity="0.33" stroke-width="0.0727273"/>
</g>
<g opacity="0.4">
<path d="M11.3271 2.44279C8.66517 2.44279 6.22259 3.38186 4.31254 4.94679C1.83345 6.97794 2.8358 10.0634 2.8358 13.5184C2.8358 16.2255 1.22274 18.7058 2.8358 20.6298C4.86749 23.0532 10.5017 20.9021 13.9114 20.9021C17.1916 20.9021 17.5545 23.168 19.5825 20.9021C21.3363 18.9426 23.5103 16.3551 23.5103 13.5184C23.5103 10.2382 19.5 8.53186 17.2341 6.50384C15.2746 4.75006 14.1638 2.44279 11.3271 2.44279Z" fill="url(#paint2_radial_12141_77869)"/>
<path d="M4.2895 4.91866C6.2058 3.3486 8.65647 2.40642 11.3271 2.40642C12.7573 2.40642 13.7525 2.98886 14.634 3.78872C15.0546 4.17044 15.45 4.60224 15.854 5.04356C15.8727 5.06398 15.8914 5.08441 15.9102 5.10486C16.3343 5.56788 16.77 6.03966 17.2583 6.47675C17.8231 6.9822 18.4969 7.46797 19.1918 7.96457C19.2226 7.98656 19.2534 8.00856 19.2842 8.03059C19.9493 8.50572 20.6297 8.99178 21.2454 9.5138C22.5334 10.6058 23.5466 11.8617 23.5466 13.5184C23.5466 14.946 22.9996 16.3087 22.2351 17.5582C21.4705 18.8077 20.4866 19.9465 19.6096 20.9264C19.1009 21.4948 18.6923 21.784 18.3121 21.893C17.9306 22.0024 17.5837 21.9285 17.2037 21.7859C17.0538 21.7296 16.8984 21.6625 16.7329 21.5911C16.06 21.3007 15.2209 20.9385 13.9114 20.9385C13.0621 20.9385 12.0732 21.0725 11.0337 21.2363C10.7859 21.2753 10.5353 21.3161 10.283 21.3571C9.47808 21.4879 8.65688 21.6214 7.86089 21.7109C6.81545 21.8284 5.81029 21.8705 4.93823 21.7306C4.06586 21.5907 3.32338 21.268 2.80793 20.6532C1.9908 19.6786 1.99293 18.5636 2.19504 17.3618C2.25625 16.9978 2.33625 16.6237 2.41774 16.2426C2.47053 15.9957 2.52394 15.7459 2.57327 15.4941C2.69912 14.8517 2.79943 14.1917 2.79943 13.5184C2.79943 12.7193 2.74572 11.9399 2.69386 11.1875C2.68977 11.128 2.68568 11.0687 2.68164 11.0096C2.62642 10.203 2.57844 9.42802 2.60818 8.69718C2.66772 7.23416 3.039 5.94321 4.2895 4.91866Z" stroke="#C9F3FE" stroke-opacity="0.33" stroke-width="0.0727273"/>
</g>
<circle cx="12.2112" cy="12.9238" r="6.68749" fill="#282B42"/>
<mask id="mask0_12141_77869" style="mask-type:alpha" maskUnits="userSpaceOnUse" x="10" y="9" width="7" height="7">
<path fill-rule="evenodd" clip-rule="evenodd" d="M16.9357 12.919C16.9357 14.5953 15.5768 15.9542 13.9006 15.9542C13.0183 15.9542 12.2239 15.5777 11.6693 14.9767L10.8091 14.1148C10.8091 14.1148 11.043 13.6019 11.043 12.919C11.043 12.2361 10.8091 11.7209 10.8091 11.7209H11.111C11.5757 10.6404 12.6497 9.88379 13.9006 9.88379C15.5768 9.88379 16.9357 11.2427 16.9357 12.919ZM15.18 12.919C15.18 13.6256 14.6072 14.1985 13.9006 14.1985C13.1939 14.1985 12.6211 13.6256 12.6211 12.919C12.6211 12.2123 13.1939 11.6395 13.9006 11.6395C14.6072 11.6395 15.18 12.2123 15.18 12.919Z" fill="url(#paint3_linear_12141_77869)"/>
</mask>
<g mask="url(#mask0_12141_77869)">
<path fill-rule="evenodd" clip-rule="evenodd" d="M16.9357 12.919C16.9357 14.5953 15.5768 15.9542 13.9006 15.9542C13.0183 15.9542 12.2239 15.5777 11.6693 14.9767L10.8091 14.1148C10.8091 14.1148 11.043 13.6019 11.043 12.919C11.043 12.2361 10.8091 11.7209 10.8091 11.7209H11.111C11.5757 10.6404 12.6497 9.88379 13.9006 9.88379C15.5768 9.88379 16.9357 11.2427 16.9357 12.919ZM15.18 12.919C15.18 13.6256 14.6072 14.1985 13.9006 14.1985C13.1939 14.1985 12.6211 13.6256 12.6211 12.919C12.6211 12.2123 13.1939 11.6395 13.9006 11.6395C14.6072 11.6395 15.18 12.2123 15.18 12.919Z" fill="url(#paint4_linear_12141_77869)"/>
<path opacity="0.4" d="M10.8091 12.8803V11.7285L10.8105 11.7291C11.0228 11.8136 11.192 11.9952 11.338 12.1519C11.3681 12.1842 11.3971 12.2154 11.4254 12.2444L12.9972 13.8264C13.0069 13.8357 13.0204 13.848 13.0363 13.8618C12.1714 13.2662 11.6916 13.0238 10.8091 12.8803Z" fill="#1E2337"/>
</g>
<path d="M10.3372 9.88379C8.66091 9.88379 7.302 11.2427 7.302 12.919C7.302 14.5953 8.66091 15.9542 10.3372 15.9542C11.0028 15.9542 11.6184 15.7399 12.1188 15.3766L10.8102 14.1082C10.6639 14.1664 10.5043 14.1985 10.3372 14.1985C9.63056 14.1985 9.05771 13.6256 9.05771 12.919C9.05771 12.2123 9.63056 11.6395 10.3372 11.6395C10.5043 11.6395 10.6639 11.6715 10.8102 11.7298C11.0662 11.8317 11.2594 12.0746 11.4251 12.2451L12.9969 13.8271C13.0321 13.8607 13.1176 13.9338 13.1795 13.9772C13.214 14.0013 13.2683 14.0337 13.3159 14.058C13.3651 14.0833 13.4069 14.1002 13.4069 14.1002C13.4069 14.1002 13.173 13.6 13.173 12.9226C13.173 12.2451 13.4069 11.7449 13.4069 11.7449L12.4222 10.7642C12.1896 10.5319 11.9475 10.3246 11.6506 10.1819C11.2532 9.99084 10.8077 9.88379 10.3372 9.88379Z" fill="url(#paint5_linear_12141_77869)"/>
<path opacity="0.3" fill-rule="evenodd" clip-rule="evenodd" d="M10.8083 14.111C10.9664 14.4622 11.2138 15.0865 11.2138 15.8278C11.5424 15.7288 11.8474 15.5757 12.1186 15.3787L10.81 14.1104C10.8095 14.1106 10.8089 14.1108 10.8083 14.111Z" fill="#262D47"/>
<defs>
<radialGradient id="paint0_radial_12141_77869" cx="0" cy="0" r="1" gradientUnits="userSpaceOnUse" gradientTransform="translate(11.2819 12.8376) rotate(-14.5679) scale(12.9464 11.7813)">
<stop offset="0.469146" stop-color="#31D8FF"/>
<stop offset="1" stop-color="#31D8FF" stop-opacity="0.1"/>
</radialGradient>
<radialGradient id="paint1_radial_12141_77869" cx="0" cy="0" r="1" gradientUnits="userSpaceOnUse" gradientTransform="translate(12.4641 12.0269) rotate(41.7568) scale(11.7435 12.0611)">
<stop offset="0.469146" stop-color="#31D8FF"/>
<stop offset="1" stop-color="#31D8FF" stop-opacity="0.1"/>
</radialGradient>
<radialGradient id="paint2_radial_12141_77869" cx="0" cy="0" r="1" gradientUnits="userSpaceOnUse" gradientTransform="translate(12.8146 12.176) rotate(177.326) scale(12.9464 11.7813)">
<stop offset="0.469146" stop-color="#31D8FF"/>
<stop offset="1" stop-color="#31D8FF" stop-opacity="0.1"/>
</radialGradient>
<linearGradient id="paint3_linear_12141_77869" x1="15.7992" y1="10.7261" x2="12.1755" y2="15.5009" gradientUnits="userSpaceOnUse">
<stop stop-color="#FF52BC"/>
<stop offset="0.516172" stop-color="#C83E93"/>
<stop offset="1" stop-color="#861F5E"/>
</linearGradient>
<linearGradient id="paint4_linear_12141_77869" x1="15.7992" y1="10.7261" x2="12.1755" y2="15.5009" gradientUnits="userSpaceOnUse">
<stop stop-color="#FF52BC"/>
<stop offset="0.516172" stop-color="#C83E93"/>
<stop offset="1" stop-color="#861F5E"/>
</linearGradient>
<linearGradient id="paint5_linear_12141_77869" x1="12.1629" y1="15.3242" x2="8.11915" y2="11.4406" gradientUnits="userSpaceOnUse">
<stop stop-color="#00FFFF"/>
<stop offset="1" stop-color="#01CDFD"/>
</linearGradient>
</defs>
</svg>
