<svg width="248" height="162" viewBox="0 0 248 162" fill="none" xmlns="http://www.w3.org/2000/svg">
<g filter="url(#filter0_d_10905_90235)">
<rect x="60" y="58" width="128" height="42" rx="8" fill="#32FE9A" shape-rendering="crispEdges"/>
<path d="M101.17 82.5V75.5H102.4L104.95 79.65L104.23 79.64L106.81 75.5H107.98V82.5H106.69V79.87C106.69 79.27 106.704 78.73 106.73 78.25C106.764 77.77 106.817 77.2933 106.89 76.82L107.05 77.25L104.88 80.6H104.22L102.12 77.28L102.26 76.82C102.334 77.2667 102.384 77.7267 102.41 78.2C102.444 78.6667 102.46 79.2233 102.46 79.87V82.5H101.17ZM109.652 82.5V81.35H110.802V76.65H109.652V75.5H113.252V76.65H112.102V81.35H113.252V82.5H109.652ZM114.911 82.5V75.5H116.081L120.141 80.97L119.921 81.01C119.894 80.8233 119.871 80.6333 119.851 80.44C119.831 80.24 119.811 80.0333 119.791 79.82C119.777 79.6067 119.764 79.3833 119.751 79.15C119.744 78.9167 119.737 78.6733 119.731 78.42C119.724 78.16 119.721 77.8867 119.721 77.6V75.5H121.011V82.5H119.821L115.741 77.11L116.001 77.04C116.034 77.4133 116.061 77.7333 116.081 78C116.107 78.26 116.127 78.4867 116.141 78.68C116.154 78.8667 116.164 79.0233 116.171 79.15C116.184 79.2767 116.191 79.3933 116.191 79.5C116.197 79.6 116.201 79.6967 116.201 79.79V82.5H114.911ZM124.289 82.5V76.7H122.289V75.5H127.649V76.7H125.589V82.5H124.289ZM133.264 82.5V76.7H131.264V75.5H136.624V76.7H134.564V82.5H133.264ZM140.616 82.6C140.116 82.6 139.653 82.51 139.226 82.33C138.8 82.15 138.426 81.9 138.106 81.58C137.793 81.2533 137.55 80.87 137.376 80.43C137.203 79.99 137.116 79.51 137.116 78.99C137.116 78.47 137.203 77.99 137.376 77.55C137.55 77.11 137.793 76.73 138.106 76.41C138.426 76.0833 138.8 75.83 139.226 75.65C139.653 75.47 140.116 75.38 140.616 75.38C141.123 75.38 141.59 75.47 142.016 75.65C142.443 75.83 142.813 76.0833 143.126 76.41C143.44 76.7367 143.683 77.12 143.856 77.56C144.03 77.9933 144.116 78.47 144.116 78.99C144.116 79.5033 144.03 79.98 143.856 80.42C143.683 80.86 143.44 81.2433 143.126 81.57C142.813 81.8967 142.443 82.15 142.016 82.33C141.59 82.51 141.123 82.6 140.616 82.6ZM140.616 81.36C140.936 81.36 141.226 81.3033 141.486 81.19C141.753 81.07 141.983 80.9033 142.176 80.69C142.37 80.47 142.52 80.2167 142.626 79.93C142.74 79.6433 142.796 79.33 142.796 78.99C142.796 78.65 142.74 78.3367 142.626 78.05C142.52 77.7633 142.37 77.5133 142.176 77.3C141.983 77.08 141.753 76.9133 141.486 76.8C141.226 76.68 140.936 76.62 140.616 76.62C140.303 76.62 140.013 76.68 139.746 76.8C139.48 76.9133 139.25 77.0767 139.056 77.29C138.863 77.5033 138.713 77.7533 138.606 78.04C138.5 78.3267 138.446 78.6433 138.446 78.99C138.446 79.33 138.5 79.6467 138.606 79.94C138.713 80.2267 138.863 80.4767 139.056 80.69C139.25 80.9033 139.48 81.07 139.746 81.19C140.013 81.3033 140.303 81.36 140.616 81.36ZM148.465 82.5V75.5H149.635L153.695 80.97L153.475 81.01C153.449 80.8233 153.425 80.6333 153.405 80.44C153.385 80.24 153.365 80.0333 153.345 79.82C153.332 79.6067 153.319 79.3833 153.305 79.15C153.299 78.9167 153.292 78.6733 153.285 78.42C153.279 78.16 153.275 77.8867 153.275 77.6V75.5H154.565V82.5H153.375L149.295 77.11L149.555 77.04C149.589 77.4133 149.615 77.7333 149.635 78C149.662 78.26 149.682 78.4867 149.695 78.68C149.709 78.8667 149.719 79.0233 149.725 79.15C149.739 79.2767 149.745 79.3933 149.745 79.5C149.752 79.6 149.755 79.6967 149.755 79.79V82.5H148.465ZM156.444 82.5V75.5H157.744V82.5H156.444ZM157.044 79.63V78.45H160.654V79.63H157.044ZM157.044 76.7V75.5H161.084V76.7H157.044ZM164.074 82.5V76.7H162.074V75.5H167.434V76.7H165.374V82.5H164.074Z" fill="#1B1B1B"/>
<path d="M84.8087 72.6279C84.6715 72.6279 84.5369 72.6577 84.4192 72.7143C84.3015 72.7709 84.2053 72.8521 84.1407 72.9491L78.0876 82.0515C78.066 82.0845 78.0481 82.119 78.0344 82.1546C78.0334 82.1571 78.0324 82.1593 78.0314 82.1617C78.031 82.1625 78.0305 82.1633 78.03 82.1641C78.0137 82.2085 78.0038 82.2542 78.0004 82.3004C77.9999 82.3072 78.0006 82.3138 78.0004 82.3206C77.9985 82.3679 78.0034 82.4152 78.0152 82.4616C78.0283 82.5113 78.0492 82.5595 78.0773 82.605C78.078 82.6062 78.078 82.6074 78.0787 82.6086C78.0839 82.617 78.0893 82.6253 78.095 82.6335L79.592 85.0359C79.7206 85.2416 79.9821 85.3713 80.2688 85.3713H92.375C92.4373 85.3711 92.4994 85.3647 92.5597 85.3523C92.5657 85.3511 92.5716 85.3501 92.5775 85.3488C92.7641 85.3074 92.9238 85.2103 93.0238 85.0774C93.0244 85.0766 93.0247 85.0758 93.0253 85.075C93.0347 85.0622 93.0436 85.0492 93.0519 85.0359L94.5651 82.6086C94.6192 82.5219 94.6466 82.4261 94.6451 82.3292C94.6436 82.2323 94.6131 82.1371 94.5563 82.0515L88.5032 72.9491C88.4898 72.9291 88.475 72.9097 88.4588 72.891C88.4446 72.8746 88.4293 72.8588 88.413 72.8436C88.3967 72.8279 88.3795 72.8129 88.3613 72.7986C88.3246 72.7706 88.2845 72.7455 88.2416 72.7239C88.2234 72.7142 88.2046 72.7051 88.1854 72.6967C88.1825 72.6955 88.1795 72.6943 88.1766 72.6931C88.1727 72.6915 88.1687 72.6899 88.1648 72.6884C88.1459 72.6814 88.1267 72.6751 88.1071 72.6694C88.0868 72.6628 88.0661 72.6568 88.0451 72.6516C88.0421 72.6508 88.0391 72.65 88.0362 72.6493C88.0147 72.6445 87.993 72.6406 87.9712 72.6374C87.9682 72.637 87.9653 72.6366 87.9623 72.6362C87.9407 72.6335 87.919 72.6315 87.8973 72.6303C87.8766 72.6288 87.8559 72.628 87.8352 72.6279H87.8204H84.8087ZM85.2623 73.8416H86.5613L82.6319 79.6195C82.5691 79.7118 82.5374 79.8157 82.5398 79.9209C82.5422 80.0261 82.5786 80.1289 82.6455 80.2194C82.7124 80.3099 82.8075 80.3848 82.9214 80.437C83.0354 80.4891 83.1642 80.5165 83.2954 80.5167H85.4131L86.1697 81.7303H80.0176L85.2623 73.8416ZM87.8278 74.5124L93.0371 82.3466L92.3558 83.437L88.4721 77.5525C88.4716 77.5521 88.4712 77.5517 88.4707 77.5513C88.4388 77.5034 88.399 77.4591 88.3524 77.4197H88.351C88.3059 77.381 88.2548 77.3471 88.1987 77.319H88.1973C88.141 77.291 88.0804 77.2691 88.017 77.2538H88.0155C88.0146 77.2536 88.0135 77.254 88.0125 77.2538C87.952 77.2397 87.8894 77.2317 87.8263 77.2301C87.8233 77.23 87.8205 77.229 87.8175 77.2289C87.8154 77.2289 87.8136 77.2301 87.8116 77.2301C87.6127 77.2285 87.421 77.2899 87.2781 77.4008C87.2763 77.4021 87.2739 77.4029 87.2722 77.4043C87.2272 77.4398 87.188 77.4796 87.1554 77.5228C87.1538 77.525 87.1511 77.5265 87.1495 77.5288L85.852 79.303H84.5693L87.8278 74.5124Z" fill="black"/>
</g>
<defs>
<filter id="filter0_d_10905_90235" x="0" y="0" width="248" height="162" filterUnits="userSpaceOnUse" color-interpolation-filters="sRGB">
<feFlood flood-opacity="0" result="BackgroundImageFix"/>
<feColorMatrix in="SourceAlpha" type="matrix" values="0 0 0 0 0 0 0 0 0 0 0 0 0 0 0 0 0 0 127 0" result="hardAlpha"/>
<feOffset dy="2"/>
<feGaussianBlur stdDeviation="30"/>
<feComposite in2="hardAlpha" operator="out"/>
<feColorMatrix type="matrix" values="0 0 0 0 0.196078 0 0 0 0 0.996078 0 0 0 0 0.603922 0 0 0 0.25 0"/>
<feBlend mode="normal" in2="BackgroundImageFix" result="effect1_dropShadow_10905_90235"/>
<feBlend mode="normal" in="SourceGraphic" in2="effect1_dropShadow_10905_90235" result="shape"/>
</filter>
</defs>
</svg>
