<svg width="20" height="20" viewBox="0 0 20 20" fill="none" xmlns="http://www.w3.org/2000/svg">
<path d="M3.95833 2.5C3.16044 2.5 2.5 3.16044 2.5 3.95833V6.875C2.5 7.6729 3.16044 8.33333 3.95833 8.33333H4.16667V8.95833C4.1655 9.04115 4.1808 9.12338 4.21168 9.20023C4.24256 9.27709 4.28841 9.34704 4.34657 9.40602C4.40472 9.465 4.47401 9.51184 4.55043 9.54381C4.62684 9.57577 4.70884 9.59224 4.79167 9.59224C4.87449 9.59224 4.9565 9.57577 5.03291 9.54381C5.10932 9.51184 5.17861 9.465 5.23677 9.40602C5.29492 9.34704 5.34077 9.27709 5.37165 9.20023C5.40254 9.12338 5.41784 9.04115 5.41667 8.95833V8.33333H6.875C7.6729 8.33333 8.33333 7.6729 8.33333 6.875V5.41667H8.95833C9.04115 5.41784 9.12338 5.40254 9.20023 5.37165C9.27709 5.34077 9.34704 5.29492 9.40602 5.23677C9.465 5.17861 9.51184 5.10932 9.54381 5.03291C9.57577 4.9565 9.59224 4.87449 9.59224 4.79167C9.59224 4.70884 9.57577 4.62684 9.54381 4.55043C9.51184 4.47401 9.465 4.40472 9.40602 4.34657C9.34704 4.28841 9.27709 4.24256 9.20023 4.21168C9.12338 4.1808 9.04115 4.1655 8.95833 4.16667H8.33333V3.95833C8.33333 3.16044 7.6729 2.5 6.875 2.5H3.95833ZM13.125 2.5C12.3271 2.5 11.6667 3.16044 11.6667 3.95833V4.16667H11.0417C10.9588 4.1655 10.8766 4.1808 10.7998 4.21168C10.7229 4.24256 10.653 4.28841 10.594 4.34657C10.535 4.40472 10.4882 4.47401 10.4562 4.55043C10.4242 4.62684 10.4078 4.70884 10.4078 4.79167C10.4078 4.87449 10.4242 4.9565 10.4562 5.03291C10.4882 5.10932 10.535 5.17861 10.594 5.23677C10.653 5.29492 10.7229 5.34077 10.7998 5.37165C10.8766 5.40254 10.9588 5.41784 11.0417 5.41667H11.6667V6.875C11.6667 7.6729 12.3271 8.33333 13.125 8.33333H14.5833V8.95833C14.5822 9.04115 14.5975 9.12338 14.6283 9.20023C14.6592 9.27709 14.7051 9.34704 14.7632 9.40602C14.8214 9.465 14.8907 9.51184 14.9671 9.54381C15.0435 9.57577 15.1255 9.59224 15.2083 9.59224C15.2912 9.59224 15.3732 9.57577 15.4496 9.54381C15.526 9.51184 15.5953 9.465 15.6534 9.40602C15.7116 9.34704 15.7574 9.27709 15.7883 9.20023C15.8192 9.12338 15.8345 9.04115 15.8333 8.95833V8.33333H16.0417C16.8396 8.33333 17.5 7.6729 17.5 6.875V3.95833C17.5 3.16044 16.8396 2.5 16.0417 2.5H13.125ZM3.95833 3.75H6.875C6.99794 3.75 7.08333 3.8354 7.08333 3.95833V4.68913C7.07231 4.75622 7.07231 4.82467 7.08333 4.89176V6.875C7.08333 6.99794 6.99794 7.08333 6.875 7.08333H4.89421C4.85712 7.07697 4.81953 7.07398 4.7819 7.07438C4.75134 7.07513 4.72088 7.07812 4.69075 7.08333H3.95833C3.8354 7.08333 3.75 6.99794 3.75 6.875V3.95833C3.75 3.8354 3.8354 3.75 3.95833 3.75ZM13.125 3.75H16.0417C16.1646 3.75 16.25 3.8354 16.25 3.95833V6.875C16.25 6.99794 16.1646 7.08333 16.0417 7.08333H15.3109C15.2738 7.07697 15.2362 7.07398 15.1986 7.07438C15.168 7.07513 15.1375 7.07812 15.1074 7.08333H13.125C13.0021 7.08333 12.9167 6.99794 12.9167 6.875V4.89421C12.9277 4.82711 12.9277 4.75866 12.9167 4.69157V3.95833C12.9167 3.8354 13.0021 3.75 13.125 3.75ZM4.7819 10.4077C4.61628 10.4103 4.45846 10.4785 4.34311 10.5974C4.22775 10.7163 4.16429 10.876 4.16667 11.0417V11.6667H3.95833C3.16044 11.6667 2.5 12.3271 2.5 13.125V16.0417C2.5 16.8396 3.16044 17.5 3.95833 17.5H6.875C7.6729 17.5 8.33333 16.8396 8.33333 16.0417V15.8333H8.95833C9.04115 15.8345 9.12338 15.8192 9.20023 15.7883C9.27709 15.7574 9.34704 15.7116 9.40602 15.6534C9.465 15.5953 9.51184 15.526 9.54381 15.4496C9.57577 15.3732 9.59224 15.2912 9.59224 15.2083C9.59224 15.1255 9.57577 15.0435 9.54381 14.9671C9.51184 14.8907 9.465 14.8214 9.40602 14.7632C9.34704 14.7051 9.27709 14.6592 9.20023 14.6283C9.12338 14.5975 9.04115 14.5822 8.95833 14.5833H8.33333V13.125C8.33333 12.3271 7.6729 11.6667 6.875 11.6667H5.41667V11.0417C5.41787 10.958 5.40226 10.875 5.37078 10.7975C5.33929 10.72 5.29257 10.6496 5.23337 10.5904C5.17418 10.5313 5.10371 10.4847 5.02616 10.4533C4.94861 10.4219 4.86555 10.4064 4.7819 10.4077ZM15.1986 10.4077C15.0329 10.4103 14.8751 10.4785 14.7598 10.5974C14.6444 10.7163 14.581 10.876 14.5833 11.0417V11.6667H13.125C12.3271 11.6667 11.6667 12.3271 11.6667 13.125V14.5833H11.0417C10.9588 14.5822 10.8766 14.5975 10.7998 14.6283C10.7229 14.6592 10.653 14.7051 10.594 14.7632C10.535 14.8214 10.4882 14.8907 10.4562 14.9671C10.4242 15.0435 10.4078 15.1255 10.4078 15.2083C10.4078 15.2912 10.4242 15.3732 10.4562 15.4496C10.4882 15.526 10.535 15.5953 10.594 15.6534C10.653 15.7116 10.7229 15.7574 10.7998 15.7883C10.8766 15.8192 10.9588 15.8345 11.0417 15.8333H11.6667V16.0417C11.6667 16.8396 12.3271 17.5 13.125 17.5H16.0417C16.8396 17.5 17.5 16.8396 17.5 16.0417V13.125C17.5 12.3271 16.8396 11.6667 16.0417 11.6667H15.8333V11.0417C15.8345 10.958 15.8189 10.875 15.7874 10.7975C15.756 10.72 15.7092 10.6496 15.65 10.5904C15.5908 10.5313 15.5204 10.4847 15.4428 10.4533C15.3653 10.4219 15.2822 10.4064 15.1986 10.4077ZM3.95833 12.9167H4.68913C4.75622 12.9277 4.82467 12.9277 4.89176 12.9167H6.875C6.99794 12.9167 7.08333 13.0021 7.08333 13.125V15.1058C7.07231 15.1729 7.07231 15.2413 7.08333 15.3084V16.0417C7.08333 16.1646 6.99794 16.25 6.875 16.25H3.95833C3.8354 16.25 3.75 16.1646 3.75 16.0417V13.125C3.75 13.0021 3.8354 12.9167 3.95833 12.9167ZM13.125 12.9167H15.1058C15.1729 12.9277 15.2413 12.9277 15.3084 12.9167H16.0417C16.1646 12.9167 16.25 13.0021 16.25 13.125V16.0417C16.25 16.1646 16.1646 16.25 16.0417 16.25H13.125C13.0021 16.25 12.9167 16.1646 12.9167 16.0417V15.3109C12.9277 15.2438 12.9277 15.1753 12.9167 15.1082V13.125C12.9167 13.0021 13.0021 12.9167 13.125 12.9167Z" fill="#9BA2AD"/>
</svg>
