<svg width="20" height="20" viewBox="0 0 20 20" fill="none" xmlns="http://www.w3.org/2000/svg">
<path d="M9.99999 1.66699C5.39749 1.66699 1.66666 5.39783 1.66666 10.0003C1.66666 14.6028 5.39749 18.3337 9.99999 18.3337C14.6025 18.3337 18.3333 14.6028 18.3333 10.0003C18.3333 5.39783 14.6025 1.66699 9.99999 1.66699ZM9.99999 2.91699C10.2823 2.91699 10.5595 2.93843 10.8333 2.9707V4.65446C10.5609 4.61202 10.284 4.58366 9.99999 4.58366C9.716 4.58366 9.43903 4.61202 9.16666 4.65446V2.9707C9.44044 2.93843 9.71767 2.91699 9.99999 2.91699ZM7.91666 3.23112V5.00195C7.42483 5.20802 6.96939 5.48453 6.5633 5.81901L5.048 4.94417C5.84515 4.1633 6.82438 3.56803 7.91666 3.23112ZM12.0833 3.23112C13.1756 3.56803 14.1548 4.1633 14.952 4.94417L13.4367 5.81901C13.0306 5.48453 12.5752 5.20802 12.0833 5.00195V3.23112ZM9.99999 5.83366C12.3086 5.83366 14.1667 7.69174 14.1667 10.0003C14.1667 12.3089 12.3086 14.167 9.99999 14.167C7.6914 14.167 5.83332 12.3089 5.83332 10.0003C5.83332 7.69174 7.6914 5.83366 9.99999 5.83366ZM4.22606 5.9126L5.67789 6.75081C5.34393 7.19362 5.07666 7.68757 4.89013 8.22054L3.4261 7.37581C3.63512 6.85416 3.90505 6.36468 4.22606 5.9126ZM15.7739 5.9126C16.0949 6.36468 16.3649 6.85416 16.5739 7.37581L15.1099 8.22054C14.9233 7.68757 14.656 7.19362 14.3221 6.75081L15.7739 5.9126ZM3.05582 8.60547L4.60855 9.50147C4.5934 9.666 4.58332 9.83194 4.58332 10.0003C4.58332 10.3021 4.61445 10.5964 4.66226 10.8849L3.14696 11.7598C3.00203 11.196 2.91666 10.6087 2.91666 10.0003C2.91666 9.52285 2.96532 9.0567 3.05582 8.60547ZM16.9442 8.60547C17.0347 9.0567 17.0833 9.52285 17.0833 10.0003C17.0833 10.6087 16.998 11.196 16.853 11.7598L15.3377 10.8849C15.3855 10.5964 15.4167 10.3021 15.4167 10.0003C15.4167 9.83194 15.4066 9.666 15.3914 9.50147L16.9442 8.60547ZM5.01789 12.1227C5.23962 12.6405 5.54297 13.1143 5.90657 13.5347L4.44335 14.3794C4.09928 13.9438 3.80708 13.467 3.57177 12.9577L5.01789 12.1227ZM14.9821 12.1227L16.4282 12.9577C16.1929 13.467 15.9007 13.9438 15.5566 14.3794L14.0942 13.5339C14.4575 13.1137 14.7605 12.6401 14.9821 12.1227ZM13.1225 14.4168L14.6712 15.3112C13.9283 15.9654 13.0519 16.4708 12.0833 16.7695V14.9987C12.453 14.8438 12.7995 14.6461 13.1225 14.4168ZM6.87825 14.4176C7.20104 14.6466 7.54729 14.8439 7.91666 14.9987V16.7695C6.94804 16.4708 6.07164 15.9654 5.32877 15.3112L6.87825 14.4176ZM9.16666 15.3462C9.43903 15.3886 9.716 15.417 9.99999 15.417C10.284 15.417 10.5609 15.3886 10.8333 15.3462V17.0299C10.5595 17.0622 10.2823 17.0837 9.99999 17.0837C9.71767 17.0837 9.44044 17.0622 9.16666 17.0299V15.3462Z" fill="white"/>
</svg>
