<svg width="20" height="20" viewBox="0 0 20 20" fill="none" xmlns="http://www.w3.org/2000/svg">
<path d="M5.83333 16.6667L8.9675 17.45C9.1 17.4833 9.23583 17.5 9.37167 17.5H12.7192C13.0289 17.5001 13.3325 17.414 13.596 17.2512C13.8595 17.0884 14.0724 16.8554 14.2108 16.5783L17.1275 10.745C17.2545 10.4909 17.3144 10.2086 17.3016 9.9248C17.2888 9.64104 17.2036 9.36525 17.0543 9.12364C16.9049 8.88202 16.6963 8.68259 16.4482 8.54427C16.2001 8.40595 15.9207 8.33334 15.6367 8.33333H11.6667V4.16667C11.6667 3.72464 11.4911 3.30072 11.1785 2.98816C10.866 2.67559 10.442 2.5 10 2.5H9.92083C9.50417 2.5 9.16667 2.8375 9.16667 3.25417C9.16667 3.84917 8.99083 4.43083 8.66 4.92583L5.83333 9.16667V16.6667ZM5.83333 16.6667H4.16667C3.72464 16.6667 3.30072 16.4911 2.98816 16.1785C2.67559 15.866 2.5 15.442 2.5 15V10C2.5 9.55797 2.67559 9.13405 2.98816 8.82149C3.30072 8.50893 3.72464 8.33333 4.16667 8.33333H6.25" stroke="#9BA2AD" stroke-width="1.5" stroke-linecap="round" stroke-linejoin="round"/>
</svg>
